SplineFontDB: 3.0
FontName: TEL-ElurNormal
FullName: TEL Elur Normal
FamilyName: TEL Elur
Weight: Book
Copyright: Copyright (c) 2009-2015, NLCI (http://www.nlci.in/fonts/)
Version: 1.0 Tue Aug 16 14:54:48 1994
ItalicAngle: 0
UnderlinePosition: -594
UnderlineWidth: 41
Ascent: 1638
Descent: 410
LayerCount: 2
Layer: 0 1 "Back"  1
Layer: 1 1 "Fore"  0
XUID: [1021 420 433963286 5127124]
FSType: 0
OS2Version: 0
OS2_WeightWidthSlopeOnly: 0
OS2_UseTypoMetrics: 1
CreationTime: 1257736739
ModificationTime: 1257736739
PfmFamily: 81
TTFWeight: 400
TTFWidth: 5
LineGap: 0
VLineGap: 0
Panose: 5 0 0 0 0 0 0 0 0 0
OS2TypoAscent: -335
OS2TypoAOffset: 1
OS2TypoDescent: -493
OS2TypoDOffset: 1
OS2TypoLinegap: 0
OS2WinAscent: -515
OS2WinAOffset: 1
OS2WinDescent: -361
OS2WinDOffset: 1
HheadAscent: -515
HheadAOffset: 1
HheadDescent: 361
HheadDOffset: 1
OS2SubXSize: 1434
OS2SubYSize: 1331
OS2SubXOff: 0
OS2SubYOff: 293
OS2SupXSize: 1434
OS2SupYSize: 1331
OS2SupXOff: 0
OS2SupYOff: 928
OS2StrikeYSize: 102
OS2StrikeYPos: 530
OS2Vendor: 'Alts'
OS2UnicodeRanges: 00000000.00000000.00000000.00000000
DEI: 91125
TtTable: prep
NPUSHB
 1
 1
SCANTYPE
PUSHW_1
 511
SCANCTRL
EndTTInstrs
ShortTable: maxp 16
  1
  0
  315
  185
  12
  147
  6
  2
  8
  64
  10
  0
  3
  557
  5
  2
EndShort
LangName: 1033 "" "" "Normal" "NLCI:TEL Elur Normal" "" "1.0 Tue Aug 16 14:54:48 1994" 
Encoding: UnicodeBmp
UnicodeInterp: none
NameList: Adobe Glyph List
DisplaySize: -24
AntiAlias: 1
FitToEm: 1
Lookup: 4 0 0 "'akhn' Akhand in Telugu lookup 0"  {"'akhn' Akhand (ligatures)"  } ['akhn' ('telu' <'dflt' > ) ]
Lookup: 4 0 0 "'blwf' Below Base Forms in Telugu lookup 1"  {"'blwf' Below Base Form (sub)"  } ['blwf' ('telu' <'dflt' > ) ]

StartChar: .notdef
Encoding: 65536 -1 0
Width: 1024
Flags: W
LayerCount: 2
Fore
SplineSet
64 0 m 1,0,-1
 64 1303 l 1,1,-1
 960 1303 l 1,2,-1
 960 0 l 1,3,-1
 64 0 l 1,0,-1
896 64 m 1,4,-1
 896 1239 l 1,5,-1
 128 1239 l 1,6,-1
 128 64 l 1,7,-1
 896 64 l 1,4,-1
EndSplineSet
EndChar

StartChar: exclam
Encoding: 33 33 4
Width: 692
Flags: W
LayerCount: 2
Fore
SplineSet
473 102 m 0,0,1
 473 77 473 77 463 54 c 128,-1,2
 453 31 453 31 435.5 13.5 c 128,-1,3
 418 -4 418 -4 395 -14.5 c 128,-1,4
 372 -25 372 -25 346 -25 c 256,5,6
 320 -25 320 -25 297 -14.5 c 128,-1,7
 274 -4 274 -4 257 13.5 c 128,-1,8
 240 31 240 31 230.5 54 c 128,-1,9
 221 77 221 77 221 102 c 0,10,11
 221 128 221 128 230.5 151 c 128,-1,12
 240 174 240 174 257 191 c 128,-1,13
 274 208 274 208 297 217.5 c 128,-1,14
 320 227 320 227 346 227 c 256,15,16
 372 227 372 227 395 217.5 c 128,-1,17
 418 208 418 208 435.5 191 c 128,-1,18
 453 174 453 174 463 151 c 128,-1,19
 473 128 473 128 473 102 c 0,0,1
471 1274 m 0,20,21
 471 1268 471 1268 467.5 1225.5 c 128,-1,22
 464 1183 464 1183 459 1118.5 c 128,-1,23
 454 1054 454 1054 447.5 973.5 c 128,-1,24
 441 893 441 893 434 810 c 0,25,26
 417 615 417 615 397 371 c 1,27,-1
 297 371 l 1,28,29
 276 615 276 615 259 810 c 0,30,31
 252 893 252 893 245 973.5 c 128,-1,32
 238 1054 238 1054 233 1118.5 c 128,-1,33
 228 1183 228 1183 224.5 1225.5 c 128,-1,34
 221 1268 221 1268 221 1274 c 0,35,36
 221 1336 221 1336 251 1371.5 c 128,-1,37
 281 1407 281 1407 346 1407 c 256,38,39
 411 1407 411 1407 441 1371.5 c 128,-1,40
 471 1336 471 1336 471 1274 c 0,20,21
EndSplineSet
EndChar

StartChar: quotedbl
Encoding: 34 34 5
Width: 682
Flags: W
LayerCount: 2
Fore
SplineSet
193 862 m 1,0,-1
 160 862 l 1,1,-1
 88 1362 l 1,2,3
 88 1410 88 1410 111 1436 c 128,-1,4
 134 1462 134 1462 176 1462 c 0,5,6
 219 1462 219 1462 240.5 1436 c 128,-1,7
 262 1410 262 1410 262 1362 c 1,8,-1
 193 862 l 1,0,-1
522 862 m 1,9,-1
 489 862 l 1,10,-1
 420 1362 l 1,11,12
 420 1410 420 1410 442 1436 c 128,-1,13
 464 1462 464 1462 506 1462 c 0,14,15
 549 1462 549 1462 571.5 1436 c 128,-1,16
 594 1410 594 1410 594 1362 c 1,17,-1
 522 862 l 1,9,-1
EndSplineSet
EndChar

StartChar: numbersign
Encoding: 35 35 6
Width: 1522
Flags: W
LayerCount: 2
Fore
SplineSet
664 862 m 1,0,-1
 563 569 l 1,1,-1
 860 569 l 1,2,-1
 961 862 l 1,3,-1
 664 862 l 1,0,-1
1073 862 m 1,4,-1
 977 569 l 1,5,-1
 1307 569 l 1,6,-1
 1307 467 l 1,7,-1
 940 467 l 1,8,-1
 768 -47 l 1,9,-1
 666 -14 l 1,10,-1
 825 467 l 1,11,-1
 528 467 l 1,12,-1
 354 -47 l 1,13,-1
 254 -12 l 1,14,-1
 418 467 l 1,15,-1
 127 467 l 1,16,-1
 127 569 l 1,17,-1
 451 569 l 1,18,-1
 551 862 l 1,19,-1
 219 862 l 1,20,-1
 219 967 l 1,21,-1
 586 967 l 1,22,-1
 750 1450 l 1,23,-1
 854 1417 l 1,24,-1
 696 967 l 1,25,-1
 995 967 l 1,26,-1
 1157 1450 l 1,27,-1
 1266 1417 l 1,28,-1
 1110 967 l 1,29,-1
 1397 967 l 1,30,-1
 1397 862 l 1,31,-1
 1073 862 l 1,4,-1
EndSplineSet
EndChar

StartChar: dollar
Encoding: 36 36 7
Width: 1153
Flags: W
LayerCount: 2
Fore
SplineSet
848 350 m 0,0,1
 848 406 848 406 830 446 c 128,-1,2
 812 486 812 486 781 514.5 c 128,-1,3
 750 543 750 543 710 561.5 c 128,-1,4
 670 580 670 580 627 594 c 1,5,-1
 627 109 l 1,6,7
 670 116 670 116 710 134 c 128,-1,8
 750 152 750 152 781 181.5 c 128,-1,9
 812 211 812 211 830 253 c 128,-1,10
 848 295 848 295 848 350 c 0,0,1
535 1266 m 1,11,12
 494 1257 494 1257 459 1238.5 c 128,-1,13
 424 1220 424 1220 398 1191 c 128,-1,14
 372 1162 372 1162 357 1122.5 c 128,-1,15
 342 1083 342 1083 342 1032 c 0,16,17
 342 982 342 982 360.5 946 c 128,-1,18
 379 910 379 910 407 884.5 c 128,-1,19
 435 859 435 859 469 842 c 128,-1,20
 503 825 503 825 535 813 c 1,21,-1
 535 1266 l 1,11,12
1034 389 m 0,22,23
 1034 326 1034 326 1013 273 c 128,-1,24
 992 220 992 220 958.5 177.5 c 128,-1,25
 925 135 925 135 881.5 103 c 128,-1,26
 838 71 838 71 792.5 48.5 c 128,-1,27
 747 26 747 26 704 14 c 128,-1,28
 661 2 661 2 627 0 c 1,29,-1
 627 -211 l 1,30,-1
 532 -211 l 1,31,-1
 532 0 l 1,32,33
 494 2 494 2 444 5 c 128,-1,34
 394 8 394 8 339.5 13.5 c 128,-1,35
 285 19 285 19 228 28.5 c 128,-1,36
 171 38 171 38 119 53 c 1,37,-1
 119 401 l 1,38,-1
 221 401 l 1,39,-1
 258 172 l 1,40,41
 272 155 272 155 300.5 141.5 c 128,-1,42
 329 128 329 128 366.5 119 c 128,-1,43
 404 110 404 110 447 105 c 128,-1,44
 490 100 490 100 532 100 c 1,45,-1
 532 618 l 1,46,47
 465 633 465 633 397.5 660.5 c 128,-1,48
 330 688 330 688 275.5 732 c 128,-1,49
 221 776 221 776 186.5 839.5 c 128,-1,50
 152 903 152 903 152 991 c 0,51,52
 152 1053 152 1053 169 1103.5 c 128,-1,53
 186 1154 186 1154 215 1193.5 c 128,-1,54
 244 1233 244 1233 282.5 1263 c 128,-1,55
 321 1293 321 1293 363.5 1314 c 128,-1,56
 406 1335 406 1335 450.5 1348.5 c 128,-1,57
 495 1362 495 1362 535 1368 c 1,58,-1
 535 1522 l 1,59,-1
 629 1522 l 1,60,-1
 629 1374 l 1,61,62
 695 1374 695 1374 757.5 1366.5 c 128,-1,63
 820 1359 820 1359 869 1350 c 0,64,65
 926 1339 926 1339 977 1327 c 1,66,-1
 977 1004 l 1,67,-1
 870 1004 l 1,68,-1
 840 1221 l 1,69,70
 792 1274 792 1274 629 1274 c 1,71,-1
 629 786 l 1,72,73
 673 773 673 773 720.5 758 c 128,-1,74
 768 743 768 743 813 722 c 128,-1,75
 858 701 858 701 898 673 c 128,-1,76
 938 645 938 645 968.5 605 c 128,-1,77
 999 565 999 565 1016.5 512 c 128,-1,78
 1034 459 1034 459 1034 389 c 0,22,23
EndSplineSet
EndChar

StartChar: percent
Encoding: 37 37 8
Width: 1761
Flags: W
LayerCount: 2
Fore
SplineSet
537 977 m 256,0,1
 537 1058 537 1058 528 1123 c 128,-1,2
 519 1188 519 1188 500.5 1233.5 c 128,-1,3
 482 1279 482 1279 452.5 1304 c 128,-1,4
 423 1329 423 1329 381 1329 c 256,5,6
 339 1329 339 1329 308.5 1304 c 128,-1,7
 278 1279 278 1279 258 1233.5 c 128,-1,8
 238 1188 238 1188 228.5 1123 c 128,-1,9
 219 1058 219 1058 219 977 c 256,10,11
 219 896 219 896 228.5 831 c 128,-1,12
 238 766 238 766 258 720.5 c 128,-1,13
 278 675 278 675 308.5 650 c 128,-1,14
 339 625 339 625 381 625 c 256,15,16
 423 625 423 625 452.5 650 c 128,-1,17
 482 675 482 675 500.5 720.5 c 128,-1,18
 519 766 519 766 528 831 c 128,-1,19
 537 896 537 896 537 977 c 256,0,1
1538 397 m 256,20,21
 1538 478 1538 478 1529 543 c 128,-1,22
 1520 608 1520 608 1501.5 654 c 128,-1,23
 1483 700 1483 700 1453.5 725 c 128,-1,24
 1424 750 1424 750 1382 750 c 0,25,26
 1341 750 1341 750 1310.5 725 c 128,-1,27
 1280 700 1280 700 1260 654 c 128,-1,28
 1240 608 1240 608 1230.5 543 c 128,-1,29
 1221 478 1221 478 1221 397 c 256,30,31
 1221 316 1221 316 1230.5 251 c 128,-1,32
 1240 186 1240 186 1260 139.5 c 128,-1,33
 1280 93 1280 93 1310.5 68 c 128,-1,34
 1341 43 1341 43 1382 43 c 0,35,36
 1424 43 1424 43 1453.5 68 c 128,-1,37
 1483 93 1483 93 1501.5 139.5 c 128,-1,38
 1520 186 1520 186 1529 251 c 128,-1,39
 1538 316 1538 316 1538 397 c 256,20,21
694 977 m 0,40,41
 694 885 694 885 675 806.5 c 128,-1,42
 656 728 656 728 617 670.5 c 128,-1,43
 578 613 578 613 519 580 c 128,-1,44
 460 547 460 547 381 547 c 256,45,46
 302 547 302 547 243 580 c 128,-1,47
 184 613 184 613 144.5 670.5 c 128,-1,48
 105 728 105 728 85.5 806.5 c 128,-1,49
 66 885 66 885 66 977 c 0,50,51
 66 1068 66 1068 85.5 1147 c 128,-1,52
 105 1226 105 1226 144.5 1283.5 c 128,-1,53
 184 1341 184 1341 243 1374 c 128,-1,54
 302 1407 302 1407 381 1407 c 256,55,56
 460 1407 460 1407 519 1374 c 128,-1,57
 578 1341 578 1341 617 1283.5 c 128,-1,58
 656 1226 656 1226 675 1147 c 128,-1,59
 694 1068 694 1068 694 977 c 0,40,41
512 0 m 1,60,-1
 383 0 l 1,61,-1
 1253 1374 l 1,62,-1
 1380 1374 l 1,63,-1
 512 0 l 1,60,-1
1696 397 m 256,64,65
 1696 306 1696 306 1676.5 227.5 c 128,-1,66
 1657 149 1657 149 1618 91 c 128,-1,67
 1579 33 1579 33 1520 0 c 128,-1,68
 1461 -33 1461 -33 1382 -33 c 256,69,70
 1303 -33 1303 -33 1244 0 c 128,-1,71
 1185 33 1185 33 1145.5 91 c 128,-1,72
 1106 149 1106 149 1086.5 227.5 c 128,-1,73
 1067 306 1067 306 1067 397 c 256,74,75
 1067 488 1067 488 1086.5 567 c 128,-1,76
 1106 646 1106 646 1145.5 703.5 c 128,-1,77
 1185 761 1185 761 1244 794 c 128,-1,78
 1303 827 1303 827 1382 827 c 256,79,80
 1461 827 1461 827 1520 794 c 128,-1,81
 1579 761 1579 761 1618 703.5 c 128,-1,82
 1657 646 1657 646 1676.5 567 c 128,-1,83
 1696 488 1696 488 1696 397 c 256,64,65
EndSplineSet
EndChar

StartChar: glyph9
Encoding: 38 38 9
Width: 1432
Flags: W
LayerCount: 2
Fore
SplineSet
434 682 m 1,0,1
 403 661 403 661 376.5 635.5 c 128,-1,2
 350 610 350 610 330 579.5 c 128,-1,3
 310 549 310 549 298.5 511.5 c 128,-1,4
 287 474 287 474 287 428 c 0,5,6
 287 359 287 359 310 300.5 c 128,-1,7
 333 242 333 242 373 199.5 c 128,-1,8
 413 157 413 157 467.5 133 c 128,-1,9
 522 109 522 109 584 109 c 0,10,11
 631 109 631 109 669.5 118.5 c 128,-1,12
 708 128 708 128 740.5 144 c 128,-1,13
 773 160 773 160 801.5 180.5 c 128,-1,14
 830 201 830 201 856 223 c 1,15,-1
 434 682 l 1,0,1
743 1079 m 0,16,17
 743 1123 743 1123 731.5 1163 c 128,-1,18
 720 1203 720 1203 696 1233.5 c 128,-1,19
 672 1264 672 1264 636 1282 c 128,-1,20
 600 1300 600 1300 551 1300 c 0,21,22
 509 1300 509 1300 475 1285 c 128,-1,23
 441 1270 441 1270 417 1244 c 128,-1,24
 393 1218 393 1218 380 1183 c 128,-1,25
 367 1148 367 1148 367 1108 c 0,26,27
 367 1057 367 1057 386.5 1012.5 c 128,-1,28
 406 968 406 968 434.5 930.5 c 128,-1,29
 463 893 463 893 496 861.5 c 128,-1,30
 529 830 529 830 557 803 c 1,31,32
 602 825 602 825 636.5 851.5 c 128,-1,33
 671 878 671 878 694.5 911.5 c 128,-1,34
 718 945 718 945 730.5 986.5 c 128,-1,35
 743 1028 743 1028 743 1079 c 0,16,17
1014 0 m 1,36,-1
 1014 49 l 1,37,-1
 922 152 l 1,38,39
 882 120 882 120 839 88.5 c 128,-1,40
 796 57 796 57 746 32 c 128,-1,41
 696 7 696 7 637 -9 c 128,-1,42
 578 -25 578 -25 506 -25 c 0,43,44
 418 -25 418 -25 340.5 5.5 c 128,-1,45
 263 36 263 36 205 90 c 128,-1,46
 147 144 147 144 113.5 218.5 c 128,-1,47
 80 293 80 293 80 381 c 0,48,49
 80 448 80 448 100 503.5 c 128,-1,50
 120 559 120 559 156.5 603.5 c 128,-1,51
 193 648 193 648 243.5 682 c 128,-1,52
 294 716 294 716 354 741 c 1,53,54
 337 758 337 758 308 787.5 c 128,-1,55
 279 817 279 817 251 857 c 128,-1,56
 223 897 223 897 202.5 947 c 128,-1,57
 182 997 182 997 182 1055 c 0,58,59
 182 1132 182 1132 211.5 1195.5 c 128,-1,60
 241 1259 241 1259 293.5 1305 c 128,-1,61
 346 1351 346 1351 417 1376 c 128,-1,62
 488 1401 488 1401 571 1401 c 0,63,64
 649 1401 649 1401 715 1377.5 c 128,-1,65
 781 1354 781 1354 829 1313 c 128,-1,66
 877 1272 877 1272 904.5 1215.5 c 128,-1,67
 932 1159 932 1159 932 1092 c 0,68,69
 932 1017 932 1017 906 961 c 128,-1,70
 880 905 880 905 837.5 863 c 128,-1,71
 795 821 795 821 741 789.5 c 128,-1,72
 687 758 687 758 631 733 c 1,73,-1
 975 362 l 1,74,75
 991 383 991 383 1009.5 412 c 128,-1,76
 1028 441 1028 441 1044.5 473 c 128,-1,77
 1061 505 1061 505 1073.5 538.5 c 128,-1,78
 1086 572 1086 572 1090 602 c 0,79,80
 1091 611 1091 611 1079.5 625 c 128,-1,81
 1068 639 1068 639 1055 641 c 2,82,-1
 944 657 l 1,83,-1
 944 743 l 1,84,-1
 1364 743 l 1,85,-1
 1364 657 l 1,86,-1
 1217 635 l 1,87,88
 1202 583 1202 583 1181.5 534 c 128,-1,89
 1161 485 1161 485 1137.5 440.5 c 128,-1,90
 1114 396 1114 396 1089 358 c 128,-1,91
 1064 320 1064 320 1042 289 c 1,92,-1
 1208 98 l 1,93,-1
 1391 88 l 1,94,-1
 1391 0 l 1,95,-1
 1014 0 l 1,36,-1
EndSplineSet
EndChar

StartChar: quotesingle
Encoding: 39 39 10
Width: 350
Flags: W
LayerCount: 2
Fore
SplineSet
193 862 m 1,0,-1
 160 862 l 1,1,-1
 88 1362 l 1,2,3
 88 1410 88 1410 110 1436 c 128,-1,4
 132 1462 132 1462 174 1462 c 0,5,6
 217 1462 217 1462 239.5 1436 c 128,-1,7
 262 1410 262 1410 262 1362 c 1,8,-1
 193 862 l 1,0,-1
EndSplineSet
EndChar

StartChar: parenleft
Encoding: 40 40 11
Width: 770
Flags: W
LayerCount: 2
Fore
SplineSet
702 -291 m 1,0,1
 595 -279 595 -279 510.5 -240.5 c 128,-1,2
 426 -202 426 -202 361.5 -141 c 128,-1,3
 297 -80 297 -80 251 -0.5 c 128,-1,4
 205 79 205 79 176.5 173 c 128,-1,5
 148 267 148 267 134.5 372.5 c 128,-1,6
 121 478 121 478 121 590 c 0,7,8
 121 757 121 757 151.5 908.5 c 128,-1,9
 182 1060 182 1060 251 1178.5 c 128,-1,10
 320 1297 320 1297 430.5 1373.5 c 128,-1,11
 541 1450 541 1450 702 1468 c 1,12,-1
 702 1378 l 1,13,14
 594 1360 594 1360 519.5 1298.5 c 128,-1,15
 445 1237 445 1237 398.5 1136.5 c 128,-1,16
 352 1036 352 1036 331.5 898 c 128,-1,17
 311 760 311 760 311 590 c 0,18,19
 311 419 311 419 331.5 281 c 128,-1,20
 352 143 352 143 398.5 41.5 c 128,-1,21
 445 -60 445 -60 519.5 -121.5 c 128,-1,22
 594 -183 594 -183 702 -201 c 1,23,-1
 702 -291 l 1,0,1
EndSplineSet
EndChar

StartChar: parenright
Encoding: 41 41 12
Width: 770
Flags: W
LayerCount: 2
Fore
SplineSet
651 590 m 0,0,1
 651 478 651 478 637.5 372.5 c 128,-1,2
 624 267 624 267 595.5 173 c 128,-1,3
 567 79 567 79 521 -0.5 c 128,-1,4
 475 -80 475 -80 410.5 -141 c 128,-1,5
 346 -202 346 -202 261.5 -240.5 c 128,-1,6
 177 -279 177 -279 70 -291 c 1,7,-1
 70 -201 l 1,8,9
 178 -183 178 -183 252.5 -121.5 c 128,-1,10
 327 -60 327 -60 372.5 41.5 c 128,-1,11
 418 143 418 143 438.5 281 c 128,-1,12
 459 419 459 419 459 590 c 0,13,14
 459 760 459 760 438.5 898 c 128,-1,15
 418 1036 418 1036 372.5 1136.5 c 128,-1,16
 327 1237 327 1237 252.5 1298.5 c 128,-1,17
 178 1360 178 1360 70 1378 c 1,18,-1
 70 1468 l 1,19,20
 230 1450 230 1450 341 1373.5 c 128,-1,21
 452 1297 452 1297 521 1178.5 c 128,-1,22
 590 1060 590 1060 620.5 908.5 c 128,-1,23
 651 757 651 757 651 590 c 0,0,1
EndSplineSet
EndChar

StartChar: asterisk
Encoding: 42 42 13
Width: 1024
Flags: W
LayerCount: 2
Fore
SplineSet
406 743 m 1,0,-1
 264 690 l 1,1,-1
 268 842 l 1,2,-1
 475 1008 l 1,3,-1
 500 989 l 1,4,-1
 406 743 l 1,0,-1
467 1036 m 1,5,-1
 201 1051 l 1,6,-1
 109 1167 l 1,7,-1
 254 1210 l 1,8,-1
 475 1065 l 1,9,-1
 467 1036 l 1,5,-1
618 743 m 1,10,-1
 524 989 l 1,11,-1
 549 1008 l 1,12,-1
 756 842 l 1,13,-1
 760 690 l 1,14,-1
 618 743 l 1,10,-1
526 1085 m 1,15,-1
 498 1085 l 1,16,-1
 428 1341 l 1,17,-1
 512 1466 l 1,18,-1
 598 1341 l 1,19,-1
 526 1085 l 1,15,-1
823 1051 m 1,20,-1
 559 1036 l 1,21,-1
 549 1065 l 1,22,-1
 770 1210 l 1,23,-1
 915 1167 l 1,24,-1
 823 1051 l 1,20,-1
EndSplineSet
EndChar

StartChar: plus
Encoding: 43 43 14
Width: 2048
Flags: W
LayerCount: 2
Fore
SplineSet
1087 551 m 1,0,-1
 1087 0 l 1,1,-1
 961 0 l 1,2,-1
 961 551 l 1,3,-1
 410 551 l 1,4,-1
 410 678 l 1,5,-1
 961 678 l 1,6,-1
 961 1229 l 1,7,-1
 1087 1229 l 1,8,-1
 1087 678 l 1,9,-1
 1638 678 l 1,10,-1
 1638 551 l 1,11,-1
 1087 551 l 1,0,-1
EndSplineSet
EndChar

StartChar: comma
Encoding: 44 44 15
Width: 573
Flags: W
LayerCount: 2
Fore
SplineSet
422 20 m 0,0,1
 422 -57 422 -57 392.5 -121.5 c 128,-1,2
 363 -186 363 -186 313.5 -234.5 c 128,-1,3
 264 -283 264 -283 200 -312.5 c 128,-1,4
 136 -342 136 -342 66 -348 c 1,5,-1
 66 -274 l 1,6,7
 120 -262 120 -262 162.5 -241.5 c 128,-1,8
 205 -221 205 -221 233.5 -187.5 c 128,-1,9
 262 -154 262 -154 277 -105 c 128,-1,10
 292 -56 292 -56 291 14 c 1,11,-1
 162 14 l 1,12,13
 160 16 160 16 154 23.5 c 128,-1,14
 148 31 148 31 141.5 43 c 128,-1,15
 135 55 135 55 130 71.5 c 128,-1,16
 125 88 125 88 125 109 c 0,17,18
 125 136 125 136 134.5 161 c 128,-1,19
 144 186 144 186 161 206 c 128,-1,20
 178 226 178 226 201 238 c 128,-1,21
 224 250 224 250 252 250 c 0,22,23
 296 250 296 250 328 232.5 c 128,-1,24
 360 215 360 215 381 184.5 c 128,-1,25
 402 154 402 154 412 111.5 c 128,-1,26
 422 69 422 69 422 20 c 0,0,1
EndSplineSet
EndChar

StartChar: hyphen
Encoding: 45 45 16
Width: 655
Flags: W
LayerCount: 2
Fore
SplineSet
90 416 m 1,0,-1
 90 569 l 1,1,-1
 565 569 l 1,2,-1
 565 416 l 1,3,-1
 90 416 l 1,0,-1
EndSplineSet
EndChar

StartChar: period
Encoding: 46 46 17
Width: 573
Flags: W
LayerCount: 2
Fore
SplineSet
401 113 m 0,0,1
 401 84 401 84 390 59 c 128,-1,2
 379 34 379 34 360 15.5 c 128,-1,3
 341 -3 341 -3 315.5 -14 c 128,-1,4
 290 -25 290 -25 262 -25 c 0,5,6
 233 -25 233 -25 208.5 -14 c 128,-1,7
 184 -3 184 -3 165 15.5 c 128,-1,8
 146 34 146 34 135.5 59 c 128,-1,9
 125 84 125 84 125 113 c 0,10,11
 125 141 125 141 135.5 166 c 128,-1,12
 146 191 146 191 165 209.5 c 128,-1,13
 184 228 184 228 208.5 239 c 128,-1,14
 233 250 233 250 262 250 c 0,15,16
 290 250 290 250 315.5 239 c 128,-1,17
 341 228 341 228 360 209.5 c 128,-1,18
 379 191 379 191 390 166 c 128,-1,19
 401 141 401 141 401 113 c 0,0,1
EndSplineSet
EndChar

StartChar: slash
Encoding: 47 47 18
Width: 1004
Flags: W
LayerCount: 2
Fore
SplineSet
131 -190 m 1,0,-1
 0 -190 l 1,1,-1
 872 1374 l 1,2,-1
 1004 1374 l 1,3,-1
 131 -190 l 1,0,-1
EndSplineSet
EndChar

StartChar: zero
Encoding: 48 48 19
Width: 1153
Flags: W
LayerCount: 2
Fore
SplineSet
854 686 m 256,0,1
 854 763 854 763 848.5 838.5 c 128,-1,2
 843 914 843 914 830 983 c 128,-1,3
 817 1052 817 1052 796 1111 c 128,-1,4
 775 1170 775 1170 744 1213 c 128,-1,5
 713 1256 713 1256 671 1280.5 c 128,-1,6
 629 1305 629 1305 575 1305 c 256,7,8
 521 1305 521 1305 479 1280.5 c 128,-1,9
 437 1256 437 1256 406.5 1213 c 128,-1,10
 376 1170 376 1170 355 1111 c 128,-1,11
 334 1052 334 1052 321 983 c 128,-1,12
 308 914 308 914 302.5 838.5 c 128,-1,13
 297 763 297 763 297 686 c 256,14,15
 297 609 297 609 302.5 533.5 c 128,-1,16
 308 458 308 458 321 389.5 c 128,-1,17
 334 321 334 321 355 262.5 c 128,-1,18
 376 204 376 204 406.5 161.5 c 128,-1,19
 437 119 437 119 479 94.5 c 128,-1,20
 521 70 521 70 575 70 c 256,21,22
 629 70 629 70 671 94.5 c 128,-1,23
 713 119 713 119 744 161.5 c 128,-1,24
 775 204 775 204 796 262.5 c 128,-1,25
 817 321 817 321 830 389.5 c 128,-1,26
 843 458 843 458 848.5 533.5 c 128,-1,27
 854 609 854 609 854 686 c 256,0,1
1071 686 m 0,28,29
 1071 539 1071 539 1040.5 408.5 c 128,-1,30
 1010 278 1010 278 948.5 180 c 128,-1,31
 887 82 887 82 793.5 24.5 c 128,-1,32
 700 -33 700 -33 575 -33 c 256,33,34
 450 -33 450 -33 357.5 24.5 c 128,-1,35
 265 82 265 82 203.5 180 c 128,-1,36
 142 278 142 278 112 408.5 c 128,-1,37
 82 539 82 539 82 686 c 0,38,39
 82 784 82 784 95.5 875.5 c 128,-1,40
 109 967 109 967 136 1047 c 128,-1,41
 163 1127 163 1127 203.5 1193 c 128,-1,42
 244 1259 244 1259 299 1306.5 c 128,-1,43
 354 1354 354 1354 423 1380.5 c 128,-1,44
 492 1407 492 1407 575 1407 c 256,45,46
 658 1407 658 1407 727.5 1380.5 c 128,-1,47
 797 1354 797 1354 852 1306.5 c 128,-1,48
 907 1259 907 1259 948 1193 c 128,-1,49
 989 1127 989 1127 1016.5 1047 c 128,-1,50
 1044 967 1044 967 1057.5 875.5 c 128,-1,51
 1071 784 1071 784 1071 686 c 0,28,29
EndSplineSet
EndChar

StartChar: one
Encoding: 49 49 20
Width: 1153
Flags: W
LayerCount: 2
Fore
SplineSet
221 0 m 1,0,-1
 221 92 l 1,1,-1
 428 100 l 2,2,3
 447 100 447 100 460 113.5 c 128,-1,4
 473 127 473 127 473 145 c 2,5,-1
 473 1233 l 1,6,-1
 156 1178 l 1,7,-1
 156 1270 l 1,8,-1
 598 1407 l 1,9,-1
 676 1407 l 1,10,-1
 676 145 l 2,11,12
 676 127 676 127 689 113.5 c 128,-1,13
 702 100 702 100 721 100 c 2,14,-1
 913 92 l 1,15,-1
 913 0 l 1,16,-1
 221 0 l 1,0,-1
EndSplineSet
EndChar

StartChar: two
Encoding: 50 50 21
Width: 1153
Flags: W
LayerCount: 2
Fore
SplineSet
96 0 m 1,0,-1
 96 137 l 1,1,2
 252 266 252 266 383 374.5 c 128,-1,3
 514 483 514 483 609.5 583.5 c 128,-1,4
 705 684 705 684 758 781.5 c 128,-1,5
 811 879 811 879 811 987 c 0,6,7
 811 1061 811 1061 787.5 1118.5 c 128,-1,8
 764 1176 764 1176 724.5 1215.5 c 128,-1,9
 685 1255 685 1255 631.5 1275.5 c 128,-1,10
 578 1296 578 1296 518 1296 c 0,11,12
 482 1296 482 1296 452.5 1288 c 128,-1,13
 423 1280 423 1280 401 1270 c 128,-1,14
 379 1260 379 1260 365.5 1252 c 128,-1,15
 352 1244 352 1244 348 1243 c 1,16,-1
 348 1016 l 1,17,18
 337 1006 337 1006 322 998 c 0,19,20
 309 991 309 991 290 986 c 128,-1,21
 271 981 271 981 248 981 c 0,22,23
 224 981 224 981 202 988.5 c 128,-1,24
 180 996 180 996 162.5 1011 c 128,-1,25
 145 1026 145 1026 135 1048.5 c 128,-1,26
 125 1071 125 1071 125 1102 c 0,27,28
 125 1166 125 1166 161.5 1222 c 128,-1,29
 198 1278 198 1278 260 1319 c 128,-1,30
 322 1360 322 1360 403.5 1383.5 c 128,-1,31
 485 1407 485 1407 575 1407 c 0,32,33
 675 1407 675 1407 759 1378 c 128,-1,34
 843 1349 843 1349 903.5 1296.5 c 128,-1,35
 964 1244 964 1244 998 1170.5 c 128,-1,36
 1032 1097 1032 1097 1032 1008 c 0,37,38
 1032 936 1032 936 1004.5 866 c 128,-1,39
 977 796 977 796 927.5 727.5 c 128,-1,40
 878 659 878 659 810.5 591 c 128,-1,41
 743 523 743 523 663.5 454 c 128,-1,42
 584 385 584 385 494.5 315 c 128,-1,43
 405 245 405 245 313 172 c 1,44,-1
 920 172 l 1,45,-1
 956 348 l 1,46,-1
 1057 348 l 1,47,-1
 1057 0 l 1,48,-1
 96 0 l 1,0,-1
EndSplineSet
EndChar

StartChar: three
Encoding: 51 51 22
Width: 1153
Flags: W
LayerCount: 2
Fore
SplineSet
1057 391 m 0,0,1
 1057 298 1057 298 1014.5 220 c 128,-1,2
 972 142 972 142 899 86 c 128,-1,3
 826 30 826 30 728.5 -1.5 c 128,-1,4
 631 -33 631 -33 520 -33 c 0,5,6
 416 -33 416 -33 337 -9.5 c 128,-1,7
 258 14 258 14 204.5 50 c 128,-1,8
 151 86 151 86 123.5 128.5 c 128,-1,9
 96 171 96 171 96 209 c 0,10,11
 96 230 96 230 103.5 249.5 c 128,-1,12
 111 269 111 269 126 284.5 c 128,-1,13
 141 300 141 300 163.5 309.5 c 128,-1,14
 186 319 186 319 217 319 c 0,15,16
 229 319 229 319 251.5 316.5 c 128,-1,17
 274 314 274 314 287 305 c 1,18,-1
 348 123 l 1,19,20
 388 100 388 100 432.5 85 c 128,-1,21
 477 70 477 70 526 70 c 0,22,23
 598 70 598 70 657 97 c 128,-1,24
 716 124 716 124 758 169 c 128,-1,25
 800 214 800 214 823 271.5 c 128,-1,26
 846 329 846 329 846 391 c 0,27,28
 846 466 846 466 817 515.5 c 128,-1,29
 788 565 788 565 743 594.5 c 128,-1,30
 698 624 698 624 644 636.5 c 128,-1,31
 590 649 590 649 539 649 c 0,32,33
 512 649 512 649 489 648 c 128,-1,34
 466 647 466 647 449 645 c 0,35,36
 430 643 430 643 414 641 c 1,37,-1
 414 768 l 1,38,39
 417 768 417 768 434 767 c 128,-1,40
 451 766 451 766 467 766 c 0,41,42
 531 766 531 766 590.5 781.5 c 128,-1,43
 650 797 650 797 695.5 828.5 c 128,-1,44
 741 860 741 860 768 909 c 128,-1,45
 795 958 795 958 795 1026 c 0,46,47
 795 1090 795 1090 772.5 1140 c 128,-1,48
 750 1190 750 1190 713 1224.5 c 128,-1,49
 676 1259 676 1259 627 1276.5 c 128,-1,50
 578 1294 578 1294 526 1294 c 0,51,52
 485 1294 485 1294 451 1285 c 128,-1,53
 417 1276 417 1276 393 1265 c 0,54,55
 364 1253 364 1253 342 1237 c 1,56,-1
 342 1032 l 1,57,58
 336 1029 336 1029 312 1017.5 c 128,-1,59
 288 1006 288 1006 250 1006 c 0,60,61
 232 1006 232 1006 211 1011.5 c 128,-1,62
 190 1017 190 1017 172 1030 c 128,-1,63
 154 1043 154 1043 142.5 1065 c 128,-1,64
 131 1087 131 1087 131 1120 c 0,65,66
 131 1178 131 1178 167 1230.5 c 128,-1,67
 203 1283 203 1283 265 1322 c 128,-1,68
 327 1361 327 1361 409.5 1384 c 128,-1,69
 492 1407 492 1407 584 1407 c 0,70,71
 673 1407 673 1407 749.5 1382 c 128,-1,72
 826 1357 826 1357 882.5 1311 c 128,-1,73
 939 1265 939 1265 971.5 1199.5 c 128,-1,74
 1004 1134 1004 1134 1004 1053 c 0,75,76
 1004 937 1004 937 922.5 851.5 c 128,-1,77
 841 766 841 766 688 723 c 1,78,79
 752 720 752 720 818 699.5 c 128,-1,80
 884 679 884 679 937 638.5 c 128,-1,81
 990 598 990 598 1023.5 536.5 c 128,-1,82
 1057 475 1057 475 1057 391 c 0,0,1
EndSplineSet
EndChar

StartChar: four
Encoding: 52 52 23
Width: 1153
Flags: W
LayerCount: 2
Fore
SplineSet
705 1145 m 1,0,-1
 244 547 l 1,1,-1
 705 547 l 1,2,-1
 705 1145 l 1,0,-1
897 408 m 1,3,-1
 897 -33 l 1,4,-1
 705 -33 l 1,5,-1
 705 408 l 1,6,-1
 82 408 l 1,7,-1
 82 549 l 1,8,-1
 754 1407 l 1,9,-1
 897 1407 l 1,10,-1
 897 547 l 1,11,-1
 1071 547 l 1,12,-1
 1071 408 l 1,13,-1
 897 408 l 1,3,-1
EndSplineSet
EndChar

StartChar: five
Encoding: 53 53 24
Width: 1153
Flags: W
LayerCount: 2
Fore
SplineSet
1059 444 m 0,0,1
 1059 340 1059 340 1021.5 252.5 c 128,-1,2
 984 165 984 165 911 101.5 c 128,-1,3
 838 38 838 38 730 2.5 c 128,-1,4
 622 -33 622 -33 481 -33 c 0,5,6
 401 -33 401 -33 330.5 -10 c 128,-1,7
 260 13 260 13 207 48 c 128,-1,8
 154 83 154 83 123 126 c 128,-1,9
 92 169 92 169 92 209 c 0,10,11
 92 265 92 265 128.5 294.5 c 128,-1,12
 165 324 165 324 221 324 c 0,13,14
 238 324 238 324 254 320.5 c 128,-1,15
 270 317 270 317 276 315 c 1,16,-1
 354 127 l 1,17,18
 366 115 366 115 386 104.5 c 128,-1,19
 406 94 406 94 428 86 c 128,-1,20
 450 78 450 78 472 73 c 128,-1,21
 494 68 494 68 512 68 c 0,22,23
 593 68 593 68 656 98.5 c 128,-1,24
 719 129 719 129 762 177 c 128,-1,25
 805 225 805 225 827.5 283 c 128,-1,26
 850 341 850 341 850 395 c 0,27,28
 850 481 850 481 823 544.5 c 128,-1,29
 796 608 796 608 749 650 c 128,-1,30
 702 692 702 692 638 712.5 c 128,-1,31
 574 733 574 733 500 733 c 0,32,33
 449 733 449 733 392.5 722 c 128,-1,34
 336 711 336 711 287 698 c 0,35,36
 230 683 230 683 174 664 c 1,37,-1
 174 1374 l 1,38,-1
 965 1374 l 1,39,-1
 965 1200 l 1,40,-1
 319 1200 l 1,41,-1
 319 811 l 1,42,43
 321 811 321 811 345 819.5 c 128,-1,44
 369 828 369 828 408 837.5 c 128,-1,45
 447 847 447 847 496 855.5 c 128,-1,46
 545 864 545 864 596 864 c 0,47,48
 703 864 703 864 788.5 835.5 c 128,-1,49
 874 807 874 807 934 753 c 128,-1,50
 994 699 994 699 1026.5 621 c 128,-1,51
 1059 543 1059 543 1059 444 c 0,0,1
EndSplineSet
EndChar

StartChar: six
Encoding: 54 54 25
Width: 1153
Flags: W
LayerCount: 2
Fore
SplineSet
862 442 m 0,0,1
 862 517 862 517 842.5 576.5 c 128,-1,2
 823 636 823 636 785.5 677.5 c 128,-1,3
 748 719 748 719 694.5 740.5 c 128,-1,4
 641 762 641 762 573 762 c 0,5,6
 540 762 540 762 504 754.5 c 128,-1,7
 468 747 468 747 432 733.5 c 128,-1,8
 396 720 396 720 361.5 701 c 128,-1,9
 327 682 327 682 297 659 c 1,10,11
 294 627 294 627 293.5 598.5 c 128,-1,12
 293 570 293 570 293 547 c 0,13,14
 293 442 293 442 309 355 c 128,-1,15
 325 268 325 268 359.5 205.5 c 128,-1,16
 394 143 394 143 446.5 108.5 c 128,-1,17
 499 74 499 74 573 74 c 256,18,19
 647 74 647 74 701.5 103 c 128,-1,20
 756 132 756 132 791.5 181.5 c 128,-1,21
 827 231 827 231 844.5 298 c 128,-1,22
 862 365 862 365 862 442 c 0,0,1
1071 469 m 0,23,24
 1071 357 1071 357 1032 264.5 c 128,-1,25
 993 172 993 172 925.5 106 c 128,-1,26
 858 40 858 40 767.5 3.5 c 128,-1,27
 677 -33 677 -33 573 -33 c 256,28,29
 469 -33 469 -33 379.5 1 c 128,-1,30
 290 35 290 35 224 109 c 128,-1,31
 158 183 158 183 120 301.5 c 128,-1,32
 82 420 82 420 82 588 c 0,33,34
 82 771 82 771 137 922 c 128,-1,35
 192 1073 192 1073 296.5 1181 c 128,-1,36
 401 1289 401 1289 553.5 1348 c 128,-1,37
 706 1407 706 1407 901 1407 c 1,38,-1
 901 1280 l 1,39,-1
 831 1282 l 2,40,41
 733 1285 733 1285 644.5 1250.5 c 128,-1,42
 556 1216 556 1216 485.5 1149 c 128,-1,43
 415 1082 415 1082 367 985 c 128,-1,44
 319 888 319 888 303 766 c 1,45,46
 388 839 388 839 473.5 867 c 128,-1,47
 559 895 559 895 645 895 c 0,48,49
 742 895 742 895 820.5 862.5 c 128,-1,50
 899 830 899 830 954.5 773 c 128,-1,51
 1010 716 1010 716 1040.5 638 c 128,-1,52
 1071 560 1071 560 1071 469 c 0,23,24
EndSplineSet
EndChar

StartChar: seven
Encoding: 55 55 26
Width: 1153
Flags: W
LayerCount: 2
Fore
SplineSet
395 35 m 1,0,-1
 395 -33 l 1,1,-1
 178 -33 l 1,2,-1
 854 1200 l 1,3,-1
 223 1200 l 1,4,-1
 190 1014 l 1,5,-1
 86 1014 l 1,6,-1
 86 1374 l 1,7,-1
 1067 1374 l 1,8,-1
 1067 1260 l 1,9,-1
 395 35 l 1,0,-1
EndSplineSet
EndChar

StartChar: eight
Encoding: 56 56 27
Width: 1153
Flags: W
LayerCount: 2
Fore
SplineSet
862 340 m 0,0,1
 862 404 862 404 835 448.5 c 128,-1,2
 808 493 808 493 756 528.5 c 128,-1,3
 704 564 704 564 629 595.5 c 128,-1,4
 554 627 554 627 457 666 c 1,5,6
 418 645 418 645 384.5 619 c 128,-1,7
 351 593 351 593 326 559.5 c 128,-1,8
 301 526 301 526 286.5 483 c 128,-1,9
 272 440 272 440 272 385 c 0,10,11
 272 319 272 319 291.5 263 c 128,-1,12
 311 207 311 207 349 165.5 c 128,-1,13
 387 124 387 124 444 101 c 128,-1,14
 501 78 501 78 575 78 c 0,15,16
 641 78 641 78 694.5 99.5 c 128,-1,17
 748 121 748 121 785 157.5 c 128,-1,18
 822 194 822 194 842 241.5 c 128,-1,19
 862 289 862 289 862 340 c 0,0,1
825 1036 m 0,20,21
 825 1099 825 1099 805 1148.5 c 128,-1,22
 785 1198 785 1198 751 1232.5 c 128,-1,23
 717 1267 717 1267 671.5 1285 c 128,-1,24
 626 1303 626 1303 575 1303 c 0,25,26
 523 1303 523 1303 479.5 1283.5 c 128,-1,27
 436 1264 436 1264 405 1232 c 128,-1,28
 374 1200 374 1200 357 1157.5 c 128,-1,29
 340 1115 340 1115 340 1069 c 0,30,31
 340 1015 340 1015 363 971.5 c 128,-1,32
 386 928 386 928 429 891 c 128,-1,33
 472 854 472 854 534.5 822.5 c 128,-1,34
 597 791 597 791 676 762 c 1,35,36
 707 785 707 785 734.5 813 c 128,-1,37
 762 841 762 841 782 875 c 128,-1,38
 802 909 802 909 813.5 949 c 128,-1,39
 825 989 825 989 825 1036 c 0,20,21
1069 373 m 0,40,41
 1069 285 1069 285 1031.5 210.5 c 128,-1,42
 994 136 994 136 928 82 c 128,-1,43
 862 28 862 28 771.5 -2.5 c 128,-1,44
 681 -33 681 -33 575 -33 c 0,45,46
 462 -33 462 -33 371 -3 c 128,-1,47
 280 27 280 27 215.5 81 c 128,-1,48
 151 135 151 135 116.5 208.5 c 128,-1,49
 82 282 82 282 82 369 c 0,50,51
 82 439 82 439 106.5 493 c 128,-1,52
 131 547 131 547 171.5 588 c 128,-1,53
 212 629 212 629 265 659 c 128,-1,54
 318 689 318 689 375 711 c 1,55,56
 333 728 333 728 290.5 756 c 128,-1,57
 248 784 248 784 214 823 c 128,-1,58
 180 862 180 862 158.5 911.5 c 128,-1,59
 137 961 137 961 137 1022 c 0,60,61
 137 1110 137 1110 168.5 1181 c 128,-1,62
 200 1252 200 1252 257.5 1302.5 c 128,-1,63
 315 1353 315 1353 396 1380 c 128,-1,64
 477 1407 477 1407 575 1407 c 0,65,66
 669 1407 669 1407 749 1380 c 128,-1,67
 829 1353 829 1353 888 1305.5 c 128,-1,68
 947 1258 947 1258 980.5 1193.5 c 128,-1,69
 1014 1129 1014 1129 1014 1055 c 0,70,71
 1014 990 1014 990 989.5 937 c 128,-1,72
 965 884 965 884 928 843 c 128,-1,73
 891 802 891 802 847 772 c 128,-1,74
 803 742 803 742 764 723 c 1,75,76
 813 705 813 705 867 677.5 c 128,-1,77
 921 650 921 650 966 608 c 128,-1,78
 1011 566 1011 566 1040 508.5 c 128,-1,79
 1069 451 1069 451 1069 373 c 0,40,41
EndSplineSet
EndChar

StartChar: nine
Encoding: 57 57 28
Width: 1153
Flags: W
LayerCount: 2
Fore
SplineSet
858 827 m 0,0,1
 858 932 858 932 842 1019 c 128,-1,2
 826 1106 826 1106 791.5 1168.5 c 128,-1,3
 757 1231 757 1231 704 1265.5 c 128,-1,4
 651 1300 651 1300 578 1300 c 0,5,6
 504 1300 504 1300 449.5 1271.5 c 128,-1,7
 395 1243 395 1243 359.5 1193 c 128,-1,8
 324 1143 324 1143 306.5 1076 c 128,-1,9
 289 1009 289 1009 289 932 c 0,10,11
 289 857 289 857 308.5 797.5 c 128,-1,12
 328 738 328 738 365.5 696.5 c 128,-1,13
 403 655 403 655 456.5 633.5 c 128,-1,14
 510 612 510 612 578 612 c 0,15,16
 611 612 611 612 647 619.5 c 128,-1,17
 683 627 683 627 719 640.5 c 128,-1,18
 755 654 755 654 789.5 673 c 128,-1,19
 824 692 824 692 854 715 c 1,20,21
 857 747 857 747 857.5 775.5 c 128,-1,22
 858 804 858 804 858 827 c 0,0,1
1071 786 m 0,23,24
 1071 603 1071 603 1016 452 c 128,-1,25
 961 301 961 301 855.5 193 c 128,-1,26
 750 85 750 85 597.5 26 c 128,-1,27
 445 -33 445 -33 250 -33 c 1,28,-1
 250 94 l 1,29,-1
 319 92 l 2,30,31
 417 89 417 89 506 123.5 c 128,-1,32
 595 158 595 158 666 225 c 128,-1,33
 737 292 737 292 785.5 389 c 128,-1,34
 834 486 834 486 850 608 c 1,35,36
 808 571 808 571 765 546.5 c 128,-1,37
 722 522 722 522 679.5 507 c 128,-1,38
 637 492 637 492 594 485.5 c 128,-1,39
 551 479 551 479 508 479 c 0,40,41
 411 479 411 479 332.5 511 c 128,-1,42
 254 543 254 543 198.5 599.5 c 128,-1,43
 143 656 143 656 112.5 733.5 c 128,-1,44
 82 811 82 811 82 903 c 0,45,46
 82 1015 82 1015 120.5 1108 c 128,-1,47
 159 1201 159 1201 226 1267.5 c 128,-1,48
 293 1334 293 1334 383.5 1370.5 c 128,-1,49
 474 1407 474 1407 578 1407 c 0,50,51
 681 1407 681 1407 771 1373 c 128,-1,52
 861 1339 861 1339 928 1265 c 128,-1,53
 995 1191 995 1191 1033 1072.5 c 128,-1,54
 1071 954 1071 954 1071 786 c 0,23,24
EndSplineSet
EndChar

StartChar: colon
Encoding: 58 58 29
Width: 573
Flags: W
LayerCount: 2
Fore
SplineSet
401 113 m 0,0,1
 401 84 401 84 390 59 c 128,-1,2
 379 34 379 34 360 15.5 c 128,-1,3
 341 -3 341 -3 315.5 -14 c 128,-1,4
 290 -25 290 -25 262 -25 c 0,5,6
 233 -25 233 -25 208.5 -14 c 128,-1,7
 184 -3 184 -3 165 15.5 c 128,-1,8
 146 34 146 34 135.5 59 c 128,-1,9
 125 84 125 84 125 113 c 0,10,11
 125 141 125 141 135.5 166 c 128,-1,12
 146 191 146 191 165 209.5 c 128,-1,13
 184 228 184 228 208.5 239 c 128,-1,14
 233 250 233 250 262 250 c 0,15,16
 290 250 290 250 315.5 239 c 128,-1,17
 341 228 341 228 360 209.5 c 128,-1,18
 379 191 379 191 390 166 c 128,-1,19
 401 141 401 141 401 113 c 0,0,1
401 874 m 256,20,21
 401 846 401 846 390 821 c 128,-1,22
 379 796 379 796 360 777.5 c 128,-1,23
 341 759 341 759 315.5 748 c 128,-1,24
 290 737 290 737 262 737 c 0,25,26
 233 737 233 737 208.5 748 c 128,-1,27
 184 759 184 759 165 777.5 c 128,-1,28
 146 796 146 796 135.5 821 c 128,-1,29
 125 846 125 846 125 874 c 256,30,31
 125 902 125 902 135.5 927.5 c 128,-1,32
 146 953 146 953 165 971.5 c 128,-1,33
 184 990 184 990 208.5 1001 c 128,-1,34
 233 1012 233 1012 262 1012 c 0,35,36
 290 1012 290 1012 315.5 1001 c 128,-1,37
 341 990 341 990 360 971.5 c 128,-1,38
 379 953 379 953 390 927.5 c 128,-1,39
 401 902 401 902 401 874 c 256,20,21
EndSplineSet
EndChar

StartChar: semicolon
Encoding: 59 59 30
Width: 573
Flags: W
LayerCount: 2
Fore
SplineSet
422 20 m 0,0,1
 422 -57 422 -57 392.5 -121.5 c 128,-1,2
 363 -186 363 -186 313.5 -234.5 c 128,-1,3
 264 -283 264 -283 200 -312.5 c 128,-1,4
 136 -342 136 -342 66 -348 c 1,5,-1
 66 -274 l 1,6,7
 120 -262 120 -262 162.5 -241.5 c 128,-1,8
 205 -221 205 -221 233.5 -187.5 c 128,-1,9
 262 -154 262 -154 277 -105 c 128,-1,10
 292 -56 292 -56 291 14 c 1,11,-1
 162 14 l 1,12,13
 160 16 160 16 154 23.5 c 128,-1,14
 148 31 148 31 141.5 43 c 128,-1,15
 135 55 135 55 130 71.5 c 128,-1,16
 125 88 125 88 125 109 c 0,17,18
 125 136 125 136 134.5 161 c 128,-1,19
 144 186 144 186 161 206 c 128,-1,20
 178 226 178 226 201 238 c 128,-1,21
 224 250 224 250 252 250 c 0,22,23
 296 250 296 250 328 232.5 c 128,-1,24
 360 215 360 215 381 184.5 c 128,-1,25
 402 154 402 154 412 111.5 c 128,-1,26
 422 69 422 69 422 20 c 0,0,1
399 874 m 256,27,28
 399 846 399 846 388.5 821 c 128,-1,29
 378 796 378 796 359 777.5 c 128,-1,30
 340 759 340 759 315 748 c 128,-1,31
 290 737 290 737 262 737 c 0,32,33
 233 737 233 737 208.5 748 c 128,-1,34
 184 759 184 759 165 777.5 c 128,-1,35
 146 796 146 796 135.5 821 c 128,-1,36
 125 846 125 846 125 874 c 256,37,38
 125 902 125 902 136 927.5 c 128,-1,39
 147 953 147 953 166 971.5 c 128,-1,40
 185 990 185 990 210 1001 c 128,-1,41
 235 1012 235 1012 264 1012 c 0,42,43
 292 1012 292 1012 317 1001 c 128,-1,44
 342 990 342 990 360 971.5 c 128,-1,45
 378 953 378 953 388.5 927.5 c 128,-1,46
 399 902 399 902 399 874 c 256,27,28
EndSplineSet
EndChar

StartChar: less
Encoding: 60 60 31
Width: 2048
Flags: W
LayerCount: 2
Fore
SplineSet
410 551 m 1,0,-1
 410 678 l 1,1,-1
 1638 1149 l 1,2,-1
 1638 1022 l 1,3,-1
 541 614 l 1,4,-1
 1638 207 l 1,5,-1
 1638 80 l 1,6,-1
 410 551 l 1,0,-1
EndSplineSet
EndChar

StartChar: equal
Encoding: 61 61 32
Width: 2048
Flags: W
LayerCount: 2
Fore
SplineSet
410 365 m 1,0,-1
 410 492 l 1,1,-1
 1638 492 l 1,2,-1
 1638 365 l 1,3,-1
 410 365 l 1,0,-1
410 737 m 1,4,-1
 410 864 l 1,5,-1
 1638 864 l 1,6,-1
 1638 737 l 1,7,-1
 410 737 l 1,4,-1
EndSplineSet
EndChar

StartChar: greater
Encoding: 62 62 33
Width: 2048
Flags: W
LayerCount: 2
Fore
SplineSet
410 80 m 1,0,-1
 410 207 l 1,1,-1
 1507 614 l 1,2,-1
 410 1022 l 1,3,-1
 410 1149 l 1,4,-1
 1638 678 l 1,5,-1
 1638 551 l 1,6,-1
 410 80 l 1,0,-1
EndSplineSet
EndChar

StartChar: question
Encoding: 63 63 34
Width: 995
Flags: W
LayerCount: 2
Fore
SplineSet
854 1040 m 0,0,1
 854 975 854 975 836 921.5 c 128,-1,2
 818 868 818 868 788 824.5 c 128,-1,3
 758 781 758 781 718.5 746.5 c 128,-1,4
 679 712 679 712 636 684.5 c 128,-1,5
 593 657 593 657 548.5 635 c 128,-1,6
 504 613 504 613 465 596 c 1,7,-1
 465 369 l 1,8,-1
 350 369 l 1,9,-1
 350 666 l 1,10,11
 398 682 398 682 450.5 711.5 c 128,-1,12
 503 741 503 741 546.5 785 c 128,-1,13
 590 829 590 829 618.5 888.5 c 128,-1,14
 647 948 647 948 647 1024 c 0,15,16
 647 1167 647 1167 571 1237 c 128,-1,17
 495 1307 495 1307 354 1307 c 1,18,-1
 270 1098 l 1,19,20
 261 1097 261 1097 254 1097 c 1,21,22
 248 1096 248 1096 243 1096 c 2,23,-1
 236 1096 l 2,24,25
 208 1096 208 1096 183.5 1102 c 128,-1,26
 159 1108 159 1108 141 1121.5 c 128,-1,27
 123 1135 123 1135 112.5 1156 c 128,-1,28
 102 1177 102 1177 102 1206 c 0,29,30
 102 1242 102 1242 121.5 1278 c 128,-1,31
 141 1314 141 1314 181.5 1342.5 c 128,-1,32
 222 1371 222 1371 283 1389 c 128,-1,33
 344 1407 344 1407 428 1407 c 0,34,35
 519 1407 519 1407 597 1381 c 128,-1,36
 675 1355 675 1355 732 1307.5 c 128,-1,37
 789 1260 789 1260 821.5 1192 c 128,-1,38
 854 1124 854 1124 854 1040 c 0,0,1
537 100 m 256,39,40
 537 74 537 74 527 51.5 c 128,-1,41
 517 29 517 29 499.5 12 c 128,-1,42
 482 -5 482 -5 459 -15 c 128,-1,43
 436 -25 436 -25 410 -25 c 256,44,45
 384 -25 384 -25 361 -15 c 128,-1,46
 338 -5 338 -5 321 12.5 c 128,-1,47
 304 30 304 30 294.5 53 c 128,-1,48
 285 76 285 76 285 102 c 256,49,50
 285 128 285 128 294.5 151 c 128,-1,51
 304 174 304 174 321 191 c 128,-1,52
 338 208 338 208 361 217.5 c 128,-1,53
 384 227 384 227 410 227 c 0,54,55
 437 227 437 227 460 217 c 128,-1,56
 483 207 483 207 500 189.5 c 128,-1,57
 517 172 517 172 527 149 c 128,-1,58
 537 126 537 126 537 100 c 256,39,40
EndSplineSet
EndChar

StartChar: at
Encoding: 64 64 35
Width: 1917
Flags: W
LayerCount: 2
Fore
SplineSet
1196 805 m 2,0,1
 1199 818 1199 818 1191 838 c 128,-1,2
 1183 858 1183 858 1166.5 876.5 c 128,-1,3
 1150 895 1150 895 1126.5 908.5 c 128,-1,4
 1103 922 1103 922 1075 922 c 0,5,6
 999 922 999 922 938 886.5 c 128,-1,7
 877 851 877 851 834 789.5 c 128,-1,8
 791 728 791 728 768 645.5 c 128,-1,9
 745 563 745 563 745 469 c 0,10,11
 745 358 745 358 786.5 303 c 128,-1,12
 828 248 828 248 905 248 c 0,13,14
 939 248 939 248 970 261.5 c 128,-1,15
 1001 275 1001 275 1027.5 295 c 128,-1,16
 1054 315 1054 315 1076 338 c 128,-1,17
 1098 361 1098 361 1114 381 c 1,18,-1
 1196 805 l 2,0,1
1769 764 m 0,19,20
 1769 660 1769 660 1746.5 571.5 c 128,-1,21
 1724 483 1724 483 1685.5 411 c 128,-1,22
 1647 339 1647 339 1596.5 283.5 c 128,-1,23
 1546 228 1546 228 1490.5 190.5 c 128,-1,24
 1435 153 1435 153 1378 134 c 128,-1,25
 1321 115 1321 115 1270 115 c 0,26,27
 1185 115 1185 115 1147.5 157.5 c 128,-1,28
 1110 200 1110 200 1110 285 c 1,29,30
 1030 204 1030 204 957.5 160.5 c 128,-1,31
 885 117 885 117 813 117 c 0,32,33
 757 117 757 117 710 140.5 c 128,-1,34
 663 164 663 164 629 207.5 c 128,-1,35
 595 251 595 251 576 312.5 c 128,-1,36
 557 374 557 374 557 451 c 0,37,38
 557 568 557 568 600.5 670 c 128,-1,39
 644 772 644 772 715.5 847 c 128,-1,40
 787 922 787 922 878.5 965 c 128,-1,41
 970 1008 970 1008 1067 1008 c 0,42,43
 1089 1008 1089 1008 1115 1004 c 128,-1,44
 1141 1000 1141 1000 1167.5 992.5 c 128,-1,45
 1194 985 1194 985 1219.5 974.5 c 128,-1,46
 1245 964 1245 964 1268 952 c 1,47,-1
 1305 999 l 1,48,-1
 1419 999 l 1,49,50
 1417 993 1417 993 1410 963.5 c 128,-1,51
 1403 934 1403 934 1393 890.5 c 128,-1,52
 1383 847 1383 847 1370.5 792.5 c 128,-1,53
 1358 738 1358 738 1346 683 c 0,54,55
 1316 553 1316 553 1280 391 c 1,56,57
 1271 356 1271 356 1271 326.5 c 128,-1,58
 1271 297 1271 297 1280 276 c 128,-1,59
 1289 255 1289 255 1308 243 c 128,-1,60
 1327 231 1327 231 1356 231 c 0,61,62
 1401 231 1401 231 1456 268 c 128,-1,63
 1511 305 1511 305 1558 374 c 128,-1,64
 1605 443 1605 443 1637 541.5 c 128,-1,65
 1669 640 1669 640 1669 762 c 0,66,67
 1669 906 1669 906 1620 1012 c 128,-1,68
 1571 1118 1571 1118 1490.5 1187.5 c 128,-1,69
 1410 1257 1410 1257 1307 1291 c 128,-1,70
 1204 1325 1204 1325 1096 1325 c 0,71,72
 979 1325 979 1325 874.5 1297.5 c 128,-1,73
 770 1270 770 1270 681.5 1219.5 c 128,-1,74
 593 1169 593 1169 521.5 1097 c 128,-1,75
 450 1025 450 1025 400.5 936 c 128,-1,76
 351 847 351 847 324 743.5 c 128,-1,77
 297 640 297 640 297 526 c 0,78,79
 297 370 297 370 345.5 235 c 128,-1,80
 394 100 394 100 486 1 c 128,-1,81
 578 -98 578 -98 711 -154.5 c 128,-1,82
 844 -211 844 -211 1014 -211 c 0,83,84
 1104 -211 1104 -211 1182 -197 c 128,-1,85
 1260 -183 1260 -183 1327 -161 c 128,-1,86
 1394 -139 1394 -139 1450.5 -112 c 128,-1,87
 1507 -85 1507 -85 1554 -59 c 1,88,-1
 1583 -133 l 1,89,90
 1514 -170 1514 -170 1442 -202.5 c 128,-1,91
 1370 -235 1370 -235 1293.5 -259.5 c 128,-1,92
 1217 -284 1217 -284 1135.5 -298.5 c 128,-1,93
 1054 -313 1054 -313 965 -313 c 0,94,95
 855 -313 855 -313 752 -288 c 128,-1,96
 649 -263 649 -263 558.5 -215.5 c 128,-1,97
 468 -168 468 -168 393 -98.5 c 128,-1,98
 318 -29 318 -29 264 60 c 128,-1,99
 210 149 210 149 180 257 c 128,-1,100
 150 365 150 365 150 489 c 0,101,102
 150 641 150 641 186.5 768.5 c 128,-1,103
 223 896 223 896 287 999 c 128,-1,104
 351 1102 351 1102 438.5 1180 c 128,-1,105
 526 1258 526 1258 628 1310 c 128,-1,106
 730 1362 730 1362 842.5 1388.5 c 128,-1,107
 955 1415 955 1415 1069 1415 c 0,108,109
 1221 1415 1221 1415 1349.5 1372.5 c 128,-1,110
 1478 1330 1478 1330 1571 1247.5 c 128,-1,111
 1664 1165 1664 1165 1716.5 1043.5 c 128,-1,112
 1769 922 1769 922 1769 764 c 0,19,20
EndSplineSet
EndChar

StartChar: A
Encoding: 65 65 36
Width: 1380
Flags: W
LayerCount: 2
Fore
SplineSet
643 1143 m 1,0,-1
 444 606 l 1,1,-1
 844 606 l 1,2,-1
 643 1143 l 1,0,-1
883 0 m 1,3,-1
 883 88 l 1,4,-1
 1001 98 l 2,5,6
 1011 98 1011 98 1018 111.5 c 128,-1,7
 1025 125 1025 125 1022 133 c 2,8,-1
 881 508 l 1,9,-1
 408 508 l 1,10,-1
 272 139 l 2,11,12
 270 133 270 133 272 126 c 128,-1,13
 274 119 274 119 279 112.5 c 128,-1,14
 284 106 284 106 290 102 c 128,-1,15
 296 98 296 98 301 98 c 2,16,-1
 422 88 l 1,17,-1
 422 0 l 1,18,-1
 10 0 l 1,19,-1
 10 88 l 1,20,-1
 129 113 l 1,21,-1
 606 1407 l 1,22,-1
 760 1407 l 1,23,-1
 1235 143 l 2,24,25
 1242 122 1242 122 1248.5 115 c 128,-1,26
 1255 108 1255 108 1278 104 c 2,27,-1
 1370 88 l 1,28,-1
 1370 0 l 1,29,-1
 883 0 l 1,3,-1
EndSplineSet
EndChar

StartChar: B
Encoding: 66 66 37
Width: 1239
Flags: W
LayerCount: 2
Fore
SplineSet
1159 406 m 0,0,1
 1159 323 1159 323 1135.5 260.5 c 128,-1,2
 1112 198 1112 198 1072 153 c 128,-1,3
 1032 108 1032 108 979.5 78.5 c 128,-1,4
 927 49 927 49 869.5 31.5 c 128,-1,5
 812 14 812 14 752.5 7 c 128,-1,6
 693 0 693 0 639 0 c 2,7,-1
 66 0 l 1,8,-1
 66 88 l 1,9,-1
 174 96 l 2,10,11
 196 98 196 98 206.5 112 c 128,-1,12
 217 126 217 126 217 141 c 2,13,-1
 217 1233 l 2,14,15
 217 1248 217 1248 206.5 1262 c 128,-1,16
 196 1276 196 1276 174 1278 c 2,17,-1
 66 1286 l 1,18,-1
 66 1374 l 1,19,-1
 614 1374 l 2,20,21
 736 1374 736 1374 823.5 1351.5 c 128,-1,22
 911 1329 911 1329 967 1286 c 128,-1,23
 1023 1243 1023 1243 1049 1182 c 128,-1,24
 1075 1121 1075 1121 1075 1044 c 256,25,26
 1075 967 1075 967 1046 913 c 128,-1,27
 1017 859 1017 859 973 822 c 128,-1,28
 929 785 929 785 877 763 c 128,-1,29
 825 741 825 741 780 729 c 1,30,31
 849 729 849 729 916.5 712.5 c 128,-1,32
 984 696 984 696 1038 658 c 128,-1,33
 1092 620 1092 620 1125.5 558 c 128,-1,34
 1159 496 1159 496 1159 406 c 0,0,1
936 389 m 0,35,36
 936 529 936 529 853 594 c 128,-1,37
 770 659 770 659 606 659 c 0,38,39
 581 659 581 659 550.5 657 c 128,-1,40
 520 655 520 655 493 653 c 128,-1,41
 466 651 466 651 446 649 c 128,-1,42
 426 647 426 647 422 647 c 1,43,-1
 422 106 l 1,44,45
 447 104 447 104 471 103 c 1,46,47
 491 101 491 101 512.5 100.5 c 128,-1,48
 534 100 534 100 549 100 c 0,49,50
 657 100 657 100 730.5 118 c 128,-1,51
 804 136 804 136 850 172 c 128,-1,52
 896 208 896 208 916 262 c 128,-1,53
 936 316 936 316 936 389 c 0,35,36
854 1030 m 0,54,55
 854 1151 854 1151 776 1215.5 c 128,-1,56
 698 1280 698 1280 539 1280 c 0,57,58
 523 1280 523 1280 504.5 1279 c 128,-1,59
 486 1278 486 1278 469.5 1277 c 128,-1,60
 453 1276 453 1276 440 1275 c 128,-1,61
 427 1274 427 1274 422 1274 c 1,62,-1
 422 756 l 1,63,64
 436 755 436 755 450 755 c 1,65,66
 462 754 462 754 474 754 c 2,67,-1
 496 754 l 2,68,69
 596 754 596 754 664.5 772.5 c 128,-1,70
 733 791 733 791 775 826 c 128,-1,71
 817 861 817 861 835.5 912.5 c 128,-1,72
 854 964 854 964 854 1030 c 0,54,55
EndSplineSet
EndChar

StartChar: C
Encoding: 67 67 38
Width: 1284
Flags: W
LayerCount: 2
Fore
SplineSet
1204 47 m 1,0,1
 1200 45 1200 45 1165 32.5 c 128,-1,2
 1130 20 1130 20 1074 5.5 c 128,-1,3
 1018 -9 1018 -9 945.5 -21 c 128,-1,4
 873 -33 873 -33 795 -33 c 0,5,6
 680 -33 680 -33 582.5 -5.5 c 128,-1,7
 485 22 485 22 405.5 71 c 128,-1,8
 326 120 326 120 265.5 188 c 128,-1,9
 205 256 205 256 163.5 336 c 128,-1,10
 122 416 122 416 101 506 c 128,-1,11
 80 596 80 596 80 690 c 0,12,13
 80 849 80 849 132 981 c 128,-1,14
 184 1113 184 1113 278 1207.5 c 128,-1,15
 372 1302 372 1302 504 1354.5 c 128,-1,16
 636 1407 636 1407 797 1407 c 0,17,18
 847 1407 847 1407 893.5 1401.5 c 128,-1,19
 940 1396 940 1396 988 1386 c 128,-1,20
 1036 1376 1036 1376 1089 1361 c 128,-1,21
 1142 1346 1142 1346 1204 1327 c 1,22,-1
 1204 1006 l 1,23,-1
 1081 1006 l 1,24,-1
 1051 1192 l 2,25,26
 1049 1206 1049 1206 1037 1220 c 128,-1,27
 1025 1234 1025 1234 1016 1239 c 1,28,29
 1004 1244 1004 1244 984.5 1253 c 128,-1,30
 965 1262 965 1262 938 1270.5 c 128,-1,31
 911 1279 911 1279 878 1285.5 c 128,-1,32
 845 1292 845 1292 807 1292 c 0,33,34
 702 1292 702 1292 612 1253 c 128,-1,35
 522 1214 522 1214 456 1138 c 128,-1,36
 390 1062 390 1062 352.5 949.5 c 128,-1,37
 315 837 315 837 315 690 c 0,38,39
 315 547 315 547 350.5 434 c 128,-1,40
 386 321 386 321 453 242 c 128,-1,41
 520 163 520 163 616 121.5 c 128,-1,42
 712 80 712 80 834 80 c 0,43,44
 870 80 870 80 899.5 85 c 128,-1,45
 929 90 929 90 951 96.5 c 128,-1,46
 973 103 973 103 985 108.5 c 128,-1,47
 997 114 997 114 999 115 c 0,48,49
 1015 121 1015 121 1025 132 c 128,-1,50
 1035 143 1035 143 1038 156 c 2,51,-1
 1085 379 l 1,52,-1
 1204 379 l 1,53,-1
 1204 47 l 1,0,1
EndSplineSet
EndChar

StartChar: D
Encoding: 68 68 39
Width: 1425
Flags: W
LayerCount: 2
Fore
SplineSet
1114 686 m 0,0,1
 1114 847 1114 847 1076.5 959.5 c 128,-1,2
 1039 1072 1039 1072 969.5 1142.5 c 128,-1,3
 900 1213 900 1213 801.5 1244.5 c 128,-1,4
 703 1276 703 1276 582 1276 c 2,5,-1
 426 1276 l 1,6,-1
 426 98 l 1,7,-1
 592 100 l 2,8,9
 710 101 710 101 806.5 133.5 c 128,-1,10
 903 166 903 166 971 236 c 128,-1,11
 1039 306 1039 306 1076.5 417 c 128,-1,12
 1114 528 1114 528 1114 686 c 0,0,1
1346 690 m 0,13,14
 1346 600 1346 600 1329 514.5 c 128,-1,15
 1312 429 1312 429 1276 352 c 128,-1,16
 1240 275 1240 275 1183.5 210.5 c 128,-1,17
 1127 146 1127 146 1048 99 c 128,-1,18
 969 52 969 52 866.5 26 c 128,-1,19
 764 0 764 0 635 0 c 2,20,-1
 66 0 l 1,21,-1
 66 88 l 1,22,-1
 174 96 l 2,23,24
 196 98 196 98 207.5 112 c 128,-1,25
 219 126 219 126 219 141 c 2,26,-1
 219 1233 l 2,27,28
 219 1248 219 1248 207.5 1262 c 128,-1,29
 196 1276 196 1276 174 1278 c 2,30,-1
 66 1286 l 1,31,-1
 66 1374 l 1,32,-1
 594 1374 l 2,33,34
 755 1374 755 1374 893 1333.5 c 128,-1,35
 1031 1293 1031 1293 1131.5 1209 c 128,-1,36
 1232 1125 1232 1125 1289 996 c 128,-1,37
 1346 867 1346 867 1346 690 c 0,13,14
EndSplineSet
EndChar

StartChar: E
Encoding: 69 69 40
Width: 1194
Flags: W
LayerCount: 2
Fore
SplineSet
66 0 m 1,0,-1
 66 88 l 1,1,-1
 172 96 l 2,2,3
 194 98 194 98 205.5 112 c 128,-1,4
 217 126 217 126 217 141 c 2,5,-1
 217 1233 l 2,6,7
 217 1248 217 1248 205.5 1262 c 128,-1,8
 194 1276 194 1276 172 1278 c 2,9,-1
 66 1286 l 1,10,-1
 66 1374 l 1,11,-1
 1061 1374 l 1,12,-1
 1061 1069 l 1,13,-1
 938 1069 l 1,14,-1
 907 1237 l 2,15,16
 905 1252 905 1252 894.5 1264 c 128,-1,17
 884 1276 884 1276 870 1276 c 2,18,-1
 426 1276 l 1,19,-1
 426 766 l 1,20,-1
 733 766 l 2,21,22
 747 766 747 766 758.5 778 c 128,-1,23
 770 790 770 790 770 801 c 1,24,-1
 791 942 l 1,25,-1
 895 942 l 1,26,-1
 895 485 l 1,27,-1
 791 485 l 1,28,-1
 770 627 l 1,29,30
 770 638 770 638 758 651 c 128,-1,31
 746 664 746 664 733 664 c 2,32,-1
 426 664 l 1,33,-1
 426 100 l 1,34,-1
 944 100 l 2,35,36
 957 100 957 100 968 114 c 128,-1,37
 979 128 979 128 981 139 c 2,38,-1
 1018 342 l 1,39,-1
 1128 342 l 1,40,-1
 1128 0 l 1,41,-1
 66 0 l 1,0,-1
EndSplineSet
EndChar

StartChar: F
Encoding: 70 70 41
Width: 1108
Flags: W
LayerCount: 2
Fore
SplineSet
926 1049 m 1,0,-1
 897 1237 l 2,1,2
 894 1252 894 1252 885 1263 c 128,-1,3
 876 1274 876 1274 862 1274 c 2,4,-1
 426 1274 l 1,5,-1
 426 741 l 1,6,-1
 739 741 l 2,7,8
 753 741 753 741 763.5 754 c 128,-1,9
 774 767 774 767 776 778 c 2,10,-1
 795 922 l 1,11,-1
 897 922 l 1,12,-1
 897 461 l 1,13,-1
 795 461 l 1,14,-1
 776 604 l 2,15,16
 774 615 774 615 763 628 c 128,-1,17
 752 641 752 641 739 641 c 2,18,-1
 426 641 l 1,19,-1
 426 141 l 2,20,21
 426 126 426 126 436.5 112 c 128,-1,22
 447 98 447 98 469 96 c 2,23,-1
 606 88 l 1,24,-1
 606 0 l 1,25,-1
 68 0 l 1,26,-1
 68 88 l 1,27,-1
 176 96 l 2,28,29
 198 98 198 98 208.5 112 c 128,-1,30
 219 126 219 126 219 141 c 2,31,-1
 219 1233 l 2,32,33
 219 1248 219 1248 208.5 1262 c 128,-1,34
 198 1276 198 1276 176 1278 c 2,35,-1
 51 1286 l 1,36,-1
 51 1374 l 1,37,-1
 1047 1374 l 1,38,-1
 1047 1049 l 1,39,-1
 926 1049 l 1,0,-1
EndSplineSet
EndChar

StartChar: G
Encoding: 71 71 42
Width: 1423
Flags: W
LayerCount: 2
Fore
SplineSet
1268 565 m 2,0,1
 1246 563 1246 563 1235.5 550.5 c 128,-1,2
 1225 538 1225 538 1225 522 c 2,3,-1
 1225 49 l 1,4,5
 1163 26 1163 26 1093 8 c 0,6,7
 1033 -8 1033 -8 955.5 -20.5 c 128,-1,8
 878 -33 878 -33 795 -33 c 0,9,10
 681 -33 681 -33 583.5 -6 c 128,-1,11
 486 21 486 21 406.5 70 c 128,-1,12
 327 119 327 119 266 186.5 c 128,-1,13
 205 254 205 254 163.5 334 c 128,-1,14
 122 414 122 414 101 504.5 c 128,-1,15
 80 595 80 595 80 690 c 0,16,17
 80 851 80 851 131 983.5 c 128,-1,18
 182 1116 182 1116 278 1210 c 128,-1,19
 374 1304 374 1304 511.5 1355.5 c 128,-1,20
 649 1407 649 1407 821 1407 c 0,21,22
 879 1407 879 1407 931.5 1400.5 c 128,-1,23
 984 1394 984 1394 1033 1384 c 128,-1,24
 1082 1374 1082 1374 1129 1361.5 c 128,-1,25
 1176 1349 1176 1349 1223 1337 c 1,26,-1
 1223 1006 l 1,27,-1
 1100 1006 l 1,28,-1
 1067 1190 l 2,29,30
 1064 1208 1064 1208 1052 1220.5 c 128,-1,31
 1040 1233 1040 1233 1026 1239 c 0,32,33
 1011 1245 1011 1245 989.5 1254 c 128,-1,34
 968 1263 968 1263 941 1271.5 c 128,-1,35
 914 1280 914 1280 881.5 1286 c 128,-1,36
 849 1292 849 1292 813 1292 c 0,37,38
 702 1292 702 1292 610 1253 c 128,-1,39
 518 1214 518 1214 452 1139 c 128,-1,40
 386 1064 386 1064 349.5 953.5 c 128,-1,41
 313 843 313 843 313 700 c 0,42,43
 313 553 313 553 350 438 c 128,-1,44
 387 323 387 323 455.5 244 c 128,-1,45
 524 165 524 165 621 123.5 c 128,-1,46
 718 82 718 82 838 82 c 0,47,48
 872 82 872 82 903 87 c 128,-1,49
 934 92 934 92 958 97.5 c 128,-1,50
 982 103 982 103 998 108 c 128,-1,51
 1014 113 1014 113 1018 113 c 1,52,-1
 1018 522 l 2,53,54
 1018 538 1018 538 1007.5 550.5 c 128,-1,55
 997 563 997 563 975 565 c 2,56,-1
 838 575 l 1,57,-1
 838 664 l 1,58,-1
 1372 664 l 1,59,-1
 1372 575 l 1,60,-1
 1268 565 l 2,0,1
EndSplineSet
EndChar

StartChar: H
Encoding: 72 72 43
Width: 1522
Flags: W
LayerCount: 2
Fore
SplineSet
938 0 m 1,0,-1
 938 88 l 1,1,-1
 1055 96 l 2,2,3
 1076 98 1076 98 1087 112 c 128,-1,4
 1098 126 1098 126 1098 141 c 2,5,-1
 1098 670 l 1,6,-1
 424 670 l 1,7,-1
 424 141 l 2,8,9
 424 126 424 126 434.5 112 c 128,-1,10
 445 98 445 98 467 96 c 2,11,-1
 584 88 l 1,12,-1
 584 0 l 1,13,-1
 66 0 l 1,14,-1
 66 88 l 1,15,-1
 172 96 l 2,16,17
 194 98 194 98 205.5 112 c 128,-1,18
 217 126 217 126 217 141 c 2,19,-1
 217 1233 l 2,20,21
 217 1248 217 1248 205.5 1261 c 128,-1,22
 194 1274 194 1274 172 1276 c 2,23,-1
 66 1284 l 1,24,-1
 66 1374 l 1,25,-1
 584 1374 l 1,26,-1
 584 1284 l 1,27,-1
 467 1276 l 2,28,29
 445 1274 445 1274 434.5 1261 c 128,-1,30
 424 1248 424 1248 424 1233 c 2,31,-1
 424 772 l 1,32,-1
 1098 772 l 1,33,-1
 1098 1233 l 2,34,35
 1098 1248 1098 1248 1087 1261 c 128,-1,36
 1076 1274 1076 1274 1055 1276 c 2,37,-1
 938 1284 l 1,38,-1
 938 1374 l 1,39,-1
 1456 1374 l 1,40,-1
 1456 1284 l 1,41,-1
 1350 1276 l 2,42,43
 1328 1274 1328 1274 1316.5 1261 c 128,-1,44
 1305 1248 1305 1248 1305 1233 c 2,45,-1
 1305 141 l 2,46,47
 1305 126 1305 126 1316.5 112 c 128,-1,48
 1328 98 1328 98 1350 96 c 2,49,-1
 1456 88 l 1,50,-1
 1456 0 l 1,51,-1
 938 0 l 1,0,-1
EndSplineSet
EndChar

StartChar: I
Encoding: 73 73 44
Width: 676
Flags: W
LayerCount: 2
Fore
SplineSet
68 0 m 1,0,-1
 68 88 l 1,1,-1
 190 96 l 2,2,3
 212 98 212 98 222.5 112 c 128,-1,4
 233 126 233 126 233 141 c 2,5,-1
 233 1233 l 2,6,7
 233 1248 233 1248 222.5 1261 c 128,-1,8
 212 1274 212 1274 190 1276 c 2,9,-1
 68 1284 l 1,10,-1
 68 1374 l 1,11,-1
 608 1374 l 1,12,-1
 608 1284 l 1,13,-1
 483 1276 l 2,14,15
 462 1274 462 1274 451 1261 c 128,-1,16
 440 1248 440 1248 440 1233 c 2,17,-1
 440 141 l 2,18,19
 440 126 440 126 451 112 c 128,-1,20
 462 98 462 98 483 96 c 2,21,-1
 608 88 l 1,22,-1
 608 0 l 1,23,-1
 68 0 l 1,0,-1
EndSplineSet
EndChar

StartChar: J
Encoding: 74 74 45
Width: 993
Flags: W
LayerCount: 2
Fore
SplineSet
821 1278 m 2,0,1
 800 1276 800 1276 789 1262 c 128,-1,2
 778 1248 778 1248 778 1233 c 2,3,-1
 778 518 l 2,4,5
 778 390 778 390 754 288 c 128,-1,6
 730 186 730 186 677 115 c 128,-1,7
 624 44 624 44 538 5.5 c 128,-1,8
 452 -33 452 -33 328 -33 c 0,9,10
 278 -33 278 -33 230 -24.5 c 128,-1,11
 182 -16 182 -16 144 -5.5 c 128,-1,12
 106 5 106 5 80.5 14 c 128,-1,13
 55 23 55 23 51 25 c 1,14,-1
 51 375 l 1,15,-1
 174 375 l 1,16,-1
 219 125 l 2,17,18
 222 110 222 110 231.5 99.5 c 128,-1,19
 241 89 241 89 254 83 c 128,-1,20
 267 77 267 77 282.5 74.5 c 128,-1,21
 298 72 298 72 313 72 c 0,22,23
 383 72 383 72 432 99 c 128,-1,24
 481 126 481 126 512 180 c 128,-1,25
 543 234 543 234 557 315 c 128,-1,26
 571 396 571 396 571 504 c 2,27,-1
 571 1233 l 2,28,29
 571 1248 571 1248 560.5 1262 c 128,-1,30
 550 1276 550 1276 528 1278 c 2,31,-1
 399 1286 l 1,32,-1
 399 1374 l 1,33,-1
 940 1374 l 1,34,-1
 940 1286 l 1,35,-1
 821 1278 l 2,0,1
EndSplineSet
EndChar

StartChar: K
Encoding: 75 75 46
Width: 1307
Flags: W
LayerCount: 2
Fore
SplineSet
948 0 m 1,0,-1
 948 63 l 1,1,-1
 567 610 l 1,2,-1
 424 610 l 1,3,-1
 424 141 l 2,4,5
 424 126 424 126 435.5 112 c 128,-1,6
 447 98 447 98 469 96 c 2,7,-1
 586 88 l 1,8,-1
 586 0 l 1,9,-1
 66 0 l 1,10,-1
 66 88 l 1,11,-1
 174 96 l 2,12,13
 196 98 196 98 206.5 112 c 128,-1,14
 217 126 217 126 217 141 c 2,15,-1
 217 1233 l 2,16,17
 217 1248 217 1248 206.5 1262 c 128,-1,18
 196 1276 196 1276 174 1278 c 2,19,-1
 66 1286 l 1,20,-1
 66 1374 l 1,21,-1
 586 1374 l 1,22,-1
 586 1286 l 1,23,-1
 469 1278 l 2,24,25
 447 1276 447 1276 435.5 1262 c 128,-1,26
 424 1248 424 1248 424 1233 c 2,27,-1
 424 696 l 1,28,-1
 498 696 l 1,29,-1
 944 1241 l 2,30,31
 951 1250 951 1250 944.5 1262 c 128,-1,32
 938 1274 938 1274 928 1276 c 1,33,-1
 823 1286 l 1,34,-1
 823 1374 l 1,35,-1
 1257 1374 l 1,36,-1
 1257 1286 l 1,37,38
 1221 1283 1221 1283 1192 1279 c 0,39,40
 1167 1276 1167 1276 1145 1273.5 c 128,-1,41
 1123 1271 1123 1271 1118 1270 c 1,42,-1
 700 770 l 1,43,-1
 1159 98 l 1,44,-1
 1307 88 l 1,45,-1
 1307 0 l 1,46,-1
 948 0 l 1,0,-1
EndSplineSet
EndChar

StartChar: L
Encoding: 76 76 47
Width: 1087
Flags: W
LayerCount: 2
Fore
SplineSet
55 0 m 1,0,-1
 55 88 l 1,1,-1
 174 96 l 2,2,3
 196 98 196 98 206.5 112 c 128,-1,4
 217 126 217 126 217 141 c 2,5,-1
 217 1233 l 2,6,7
 217 1248 217 1248 206.5 1262 c 128,-1,8
 196 1276 196 1276 174 1278 c 2,9,-1
 55 1286 l 1,10,-1
 55 1374 l 1,11,-1
 578 1374 l 1,12,-1
 578 1286 l 1,13,-1
 469 1278 l 2,14,15
 447 1276 447 1276 435.5 1262 c 128,-1,16
 424 1248 424 1248 424 1233 c 2,17,-1
 424 100 l 1,18,-1
 854 100 l 2,19,20
 868 100 868 100 882.5 110.5 c 128,-1,21
 897 121 897 121 899 135 c 2,22,-1
 932 381 l 1,23,-1
 1051 381 l 1,24,-1
 1051 0 l 1,25,-1
 55 0 l 1,0,-1
EndSplineSet
EndChar

StartChar: M
Encoding: 77 77 48
Width: 1794
Flags: W
LayerCount: 2
Fore
SplineSet
1214 0 m 1,0,-1
 1214 88 l 1,1,-1
 1323 96 l 2,2,3
 1345 98 1345 98 1356.5 112 c 128,-1,4
 1368 126 1368 126 1368 141 c 2,5,-1
 1368 1270 l 1,6,-1
 897 0 l 1,7,-1
 795 0 l 1,8,-1
 340 1251 l 1,9,-1
 340 141 l 2,10,11
 340 126 340 126 351.5 112 c 128,-1,12
 363 98 363 98 385 96 c 2,13,-1
 502 88 l 1,14,-1
 502 0 l 1,15,-1
 59 0 l 1,16,-1
 59 88 l 1,17,-1
 176 96 l 2,18,19
 198 98 198 98 208.5 112 c 128,-1,20
 219 126 219 126 219 141 c 2,21,-1
 219 1233 l 2,22,23
 219 1248 219 1248 208.5 1262 c 128,-1,24
 198 1276 198 1276 176 1278 c 2,25,-1
 59 1286 l 1,26,-1
 59 1374 l 1,27,-1
 518 1374 l 1,28,-1
 518 1319 l 1,29,-1
 889 313 l 1,30,-1
 1260 1313 l 1,31,-1
 1260 1374 l 1,32,-1
 1731 1374 l 1,33,-1
 1731 1286 l 1,34,-1
 1620 1278 l 2,35,36
 1598 1276 1598 1276 1586.5 1262 c 128,-1,37
 1575 1248 1575 1248 1575 1233 c 2,38,-1
 1575 141 l 2,39,40
 1575 126 1575 126 1586.5 112 c 128,-1,41
 1598 98 1598 98 1620 96 c 2,42,-1
 1731 88 l 1,43,-1
 1731 0 l 1,44,-1
 1214 0 l 1,0,-1
EndSplineSet
EndChar

StartChar: N
Encoding: 78 78 49
Width: 1477
Flags: W
LayerCount: 2
Fore
SplineSet
1303 1278 m 2,0,1
 1281 1276 1281 1276 1270.5 1262 c 128,-1,2
 1260 1248 1260 1248 1260 1233 c 2,3,-1
 1260 0 l 1,4,-1
 1100 0 l 1,5,-1
 338 1147 l 1,6,-1
 338 141 l 2,7,8
 338 126 338 126 348.5 112 c 128,-1,9
 359 98 359 98 381 96 c 2,10,-1
 498 88 l 1,11,-1
 498 0 l 1,12,-1
 55 0 l 1,13,-1
 55 88 l 1,14,-1
 172 96 l 2,15,16
 194 98 194 98 205.5 112 c 128,-1,17
 217 126 217 126 217 141 c 2,18,-1
 217 1233 l 2,19,20
 217 1248 217 1248 205.5 1262 c 128,-1,21
 194 1276 194 1276 172 1278 c 2,22,-1
 51 1286 l 1,23,-1
 51 1374 l 1,24,-1
 457 1374 l 1,25,-1
 457 1323 l 1,26,-1
 1139 293 l 1,27,-1
 1139 1233 l 2,28,29
 1139 1248 1139 1248 1128 1262 c 128,-1,30
 1117 1276 1117 1276 1096 1278 c 2,31,-1
 979 1286 l 1,32,-1
 979 1374 l 1,33,-1
 1417 1374 l 1,34,-1
 1417 1286 l 1,35,-1
 1303 1278 l 2,0,1
EndSplineSet
EndChar

StartChar: O
Encoding: 79 79 50
Width: 1497
Flags: W
LayerCount: 2
Fore
SplineSet
1180 684 m 0,0,1
 1180 809 1180 809 1153 919.5 c 128,-1,2
 1126 1030 1126 1030 1072 1112.5 c 128,-1,3
 1018 1195 1018 1195 937.5 1242.5 c 128,-1,4
 857 1290 857 1290 750 1290 c 0,5,6
 639 1290 639 1290 557 1242 c 128,-1,7
 475 1194 475 1194 421 1111.5 c 128,-1,8
 367 1029 367 1029 341 919.5 c 128,-1,9
 315 810 315 810 315 688 c 0,10,11
 315 565 315 565 341.5 454.5 c 128,-1,12
 368 344 368 344 421.5 261 c 128,-1,13
 475 178 475 178 555.5 129 c 128,-1,14
 636 80 636 80 745 80 c 0,15,16
 856 80 856 80 937.5 129 c 128,-1,17
 1019 178 1019 178 1073 260.5 c 128,-1,18
 1127 343 1127 343 1153.5 452.5 c 128,-1,19
 1180 562 1180 562 1180 684 c 0,0,1
1417 686 m 256,20,21
 1417 537 1417 537 1369 406 c 128,-1,22
 1321 275 1321 275 1233.5 177.5 c 128,-1,23
 1146 80 1146 80 1023 23.5 c 128,-1,24
 900 -33 900 -33 750 -33 c 0,25,26
 599 -33 599 -33 475.5 21.5 c 128,-1,27
 352 76 352 76 264 173 c 128,-1,28
 176 270 176 270 128 401.5 c 128,-1,29
 80 533 80 533 80 688 c 0,30,31
 80 838 80 838 127 969 c 128,-1,32
 174 1100 174 1100 261 1197.5 c 128,-1,33
 348 1295 348 1295 471.5 1351 c 128,-1,34
 595 1407 595 1407 748 1407 c 0,35,36
 900 1407 900 1407 1023.5 1350 c 128,-1,37
 1147 1293 1147 1293 1234.5 1195 c 128,-1,38
 1322 1097 1322 1097 1369.5 966 c 128,-1,39
 1417 835 1417 835 1417 686 c 256,20,21
EndSplineSet
EndChar

StartChar: P
Encoding: 80 80 51
Width: 1186
Flags: W
LayerCount: 2
Fore
SplineSet
893 958 m 0,0,1
 893 1033 893 1033 873 1091.5 c 128,-1,2
 853 1150 853 1150 809.5 1190.5 c 128,-1,3
 766 1231 766 1231 697 1252.5 c 128,-1,4
 628 1274 628 1274 530 1274 c 0,5,6
 516 1274 516 1274 498 1273.5 c 128,-1,7
 480 1273 480 1273 464 1273 c 0,8,9
 446 1272 446 1272 426 1272 c 1,10,-1
 426 627 l 1,11,12
 428 627 428 627 441 625.5 c 128,-1,13
 454 624 454 624 471 621.5 c 128,-1,14
 488 619 488 619 507 617.5 c 128,-1,15
 526 616 526 616 541 616 c 0,16,17
 622 615 622 615 687 635 c 128,-1,18
 752 655 752 655 797.5 697 c 128,-1,19
 843 739 843 739 868 804 c 128,-1,20
 893 869 893 869 893 958 c 0,0,1
1106 961 m 0,21,22
 1106 848 1106 848 1064 763.5 c 128,-1,23
 1022 679 1022 679 949.5 623.5 c 128,-1,24
 877 568 877 568 779.5 540.5 c 128,-1,25
 682 513 682 513 571 514 c 0,26,27
 551 514 551 514 527.5 515 c 128,-1,28
 504 516 504 516 482.5 517.5 c 128,-1,29
 461 519 461 519 445.5 520 c 128,-1,30
 430 521 430 521 426 522 c 1,31,-1
 426 141 l 2,32,33
 426 126 426 126 436.5 112 c 128,-1,34
 447 98 447 98 469 96 c 2,35,-1
 604 88 l 1,36,-1
 604 0 l 1,37,-1
 66 0 l 1,38,-1
 66 88 l 1,39,-1
 174 96 l 2,40,41
 196 98 196 98 207.5 112 c 128,-1,42
 219 126 219 126 219 141 c 2,43,-1
 219 1233 l 2,44,45
 219 1248 219 1248 207.5 1262 c 128,-1,46
 196 1276 196 1276 174 1278 c 2,47,-1
 51 1286 l 1,48,-1
 51 1374 l 1,49,-1
 541 1374 l 2,50,51
 686 1374 686 1374 792.5 1352 c 128,-1,52
 899 1330 899 1330 968.5 1281 c 128,-1,53
 1038 1232 1038 1232 1072 1153.5 c 128,-1,54
 1106 1075 1106 1075 1106 961 c 0,21,22
EndSplineSet
EndChar

StartChar: Q
Encoding: 81 81 52
Width: 1513
Flags: W
LayerCount: 2
Fore
SplineSet
1192 686 m 0,0,1
 1192 807 1192 807 1166 916.5 c 128,-1,2
 1140 1026 1140 1026 1086.5 1109.5 c 128,-1,3
 1033 1193 1033 1193 951 1242.5 c 128,-1,4
 869 1292 869 1292 756 1292 c 0,5,6
 644 1292 644 1292 561.5 1244 c 128,-1,7
 479 1196 479 1196 425 1113.5 c 128,-1,8
 371 1031 371 1031 345 921.5 c 128,-1,9
 319 812 319 812 319 690 c 0,10,11
 319 570 319 570 346 459.5 c 128,-1,12
 373 349 373 349 427.5 264.5 c 128,-1,13
 482 180 482 180 564 130 c 128,-1,14
 646 80 646 80 756 80 c 0,15,16
 867 80 867 80 949 129.5 c 128,-1,17
 1031 179 1031 179 1085 262.5 c 128,-1,18
 1139 346 1139 346 1165.5 456 c 128,-1,19
 1192 566 1192 566 1192 686 c 0,0,1
1434 686 m 0,20,21
 1434 548 1434 548 1395.5 428 c 128,-1,22
 1357 308 1357 308 1284 215 c 128,-1,23
 1211 122 1211 122 1106 60.5 c 128,-1,24
 1001 -1 1001 -1 868 -23 c 1,25,26
 870 -138 870 -138 939.5 -204 c 128,-1,27
 1009 -270 1009 -270 1151 -270 c 0,28,29
 1188 -270 1188 -270 1221 -267 c 128,-1,30
 1254 -264 1254 -264 1280 -260.5 c 128,-1,31
 1306 -257 1306 -257 1323.5 -253.5 c 128,-1,32
 1341 -250 1341 -250 1348 -248 c 1,33,-1
 1348 -336 l 1,34,35
 1337 -338 1337 -338 1308.5 -344 c 128,-1,36
 1280 -350 1280 -350 1239 -356 c 128,-1,37
 1198 -362 1198 -362 1148 -366.5 c 128,-1,38
 1098 -371 1098 -371 1044 -371 c 0,39,40
 936 -371 936 -371 861 -347 c 128,-1,41
 786 -323 786 -323 738.5 -278 c 128,-1,42
 691 -233 691 -233 670 -169.5 c 128,-1,43
 649 -106 649 -106 649 -27 c 1,44,45
 526 -9 526 -9 422 48 c 128,-1,46
 318 105 318 105 242 196.5 c 128,-1,47
 166 288 166 288 123 412 c 128,-1,48
 80 536 80 536 80 686 c 0,49,50
 80 786 80 786 101.5 878.5 c 128,-1,51
 123 971 123 971 163.5 1051 c 128,-1,52
 204 1131 204 1131 263 1196.5 c 128,-1,53
 322 1262 322 1262 397 1309 c 128,-1,54
 472 1356 472 1356 562 1381.5 c 128,-1,55
 652 1407 652 1407 754 1407 c 0,56,57
 910 1407 910 1407 1035.5 1351 c 128,-1,58
 1161 1295 1161 1295 1249.5 1198 c 128,-1,59
 1338 1101 1338 1101 1386 969 c 128,-1,60
 1434 837 1434 837 1434 686 c 0,20,21
EndSplineSet
EndChar

StartChar: R
Encoding: 82 82 53
Width: 1329
Flags: W
LayerCount: 2
Fore
SplineSet
879 1001 m 0,0,1
 879 1067 879 1067 859 1117.5 c 128,-1,2
 839 1168 839 1168 795.5 1203 c 128,-1,3
 752 1238 752 1238 683.5 1256 c 128,-1,4
 615 1274 615 1274 518 1274 c 2,5,-1
 424 1274 l 1,6,-1
 424 713 l 1,7,8
 426 713 426 713 438 712.5 c 128,-1,9
 450 712 450 712 465.5 712 c 128,-1,10
 481 712 481 712 497.5 711.5 c 128,-1,11
 514 711 514 711 526 711 c 0,12,13
 611 711 611 711 677 725.5 c 128,-1,14
 743 740 743 740 788 774 c 128,-1,15
 833 808 833 808 856 863.5 c 128,-1,16
 879 919 879 919 879 1001 c 0,0,1
1329 -6 m 1,17,18
 1322 -7 1322 -7 1309 -11 c 128,-1,19
 1296 -15 1296 -15 1278 -20 c 128,-1,20
 1260 -25 1260 -25 1238.5 -29 c 128,-1,21
 1217 -33 1217 -33 1194 -33 c 0,22,23
 1102 -33 1102 -33 1045 -5.5 c 128,-1,24
 988 22 988 22 952.5 67.5 c 128,-1,25
 917 113 917 113 897 171 c 128,-1,26
 877 229 877 229 860 289.5 c 128,-1,27
 843 350 843 350 822.5 408 c 128,-1,28
 802 466 802 466 765 511.5 c 128,-1,29
 728 557 728 557 669 584.5 c 128,-1,30
 610 612 610 612 516 612 c 0,31,32
 500 612 500 612 484 611.5 c 128,-1,33
 468 611 468 611 455.5 610 c 128,-1,34
 443 609 443 609 434 608.5 c 128,-1,35
 425 608 425 608 424 608 c 1,36,-1
 424 141 l 2,37,38
 424 126 424 126 434.5 112 c 128,-1,39
 445 98 445 98 467 96 c 2,40,-1
 575 88 l 1,41,-1
 575 0 l 1,42,-1
 66 0 l 1,43,-1
 66 88 l 1,44,-1
 172 96 l 2,45,46
 194 98 194 98 205.5 112 c 128,-1,47
 217 126 217 126 217 141 c 2,48,-1
 217 1233 l 2,49,50
 217 1248 217 1248 205.5 1262 c 128,-1,51
 194 1276 194 1276 172 1278 c 2,52,-1
 66 1286 l 1,53,-1
 66 1374 l 1,54,-1
 600 1374 l 2,55,56
 717 1374 717 1374 810 1355 c 128,-1,57
 903 1336 903 1336 968 1293 c 128,-1,58
 1033 1250 1033 1250 1067.5 1180.5 c 128,-1,59
 1102 1111 1102 1111 1102 1010 c 0,60,61
 1102 929 1102 929 1074 871 c 128,-1,62
 1046 813 1046 813 999.5 773 c 128,-1,63
 953 733 953 733 892 708 c 128,-1,64
 831 683 831 683 766 668 c 1,65,66
 849 648 849 648 899 612.5 c 128,-1,67
 949 577 949 577 978 532 c 128,-1,68
 1007 487 1007 487 1021 436.5 c 128,-1,69
 1035 386 1035 386 1046 336.5 c 128,-1,70
 1057 287 1057 287 1071 242 c 128,-1,71
 1085 197 1085 197 1114.5 162 c 128,-1,72
 1144 127 1144 127 1194.5 106.5 c 128,-1,73
 1245 86 1245 86 1329 86 c 1,74,-1
 1329 -6 l 1,17,18
EndSplineSet
EndChar

StartChar: S
Encoding: 83 83 54
Width: 1067
Flags: W
LayerCount: 2
Fore
SplineSet
987 385 m 0,0,1
 987 307 987 307 956.5 232 c 128,-1,2
 926 157 926 157 860 98 c 128,-1,3
 794 39 794 39 691 3 c 128,-1,4
 588 -33 588 -33 444 -33 c 0,5,6
 360 -33 360 -33 293.5 -21 c 128,-1,7
 227 -9 227 -9 179 5 c 0,8,9
 124 22 124 22 80 43 c 1,10,-1
 80 406 l 1,11,-1
 209 406 l 1,12,-1
 236 174 l 2,13,14
 238 162 238 162 248.5 148 c 128,-1,15
 259 134 259 134 270 129 c 2,16,-1
 287 120 l 2,17,18
 302 113 302 113 328 104.5 c 128,-1,19
 354 96 354 96 391.5 89 c 128,-1,20
 429 82 429 82 477 82 c 0,21,22
 542 82 542 82 597.5 98.5 c 128,-1,23
 653 115 653 115 693 146 c 128,-1,24
 733 177 733 177 755.5 222 c 128,-1,25
 778 267 778 267 778 324 c 0,26,27
 778 386 778 386 742.5 432.5 c 128,-1,28
 707 479 707 479 653.5 515.5 c 128,-1,29
 600 552 600 552 537 581 c 128,-1,30
 474 610 474 610 418 637 c 0,31,32
 355 667 355 667 297.5 699 c 128,-1,33
 240 731 240 731 196.5 773 c 128,-1,34
 153 815 153 815 127.5 871.5 c 128,-1,35
 102 928 102 928 102 1006 c 0,36,37
 102 1097 102 1097 138 1171 c 128,-1,38
 174 1245 174 1245 237.5 1297.5 c 128,-1,39
 301 1350 301 1350 387.5 1378.5 c 128,-1,40
 474 1407 474 1407 575 1407 c 0,41,42
 633 1407 633 1407 684.5 1400 c 128,-1,43
 736 1393 736 1393 780.5 1382.5 c 128,-1,44
 825 1372 825 1372 863.5 1360 c 128,-1,45
 902 1348 902 1348 936 1337 c 1,46,-1
 936 1018 l 1,47,-1
 819 1018 l 1,48,-1
 788 1214 l 2,49,50
 786 1224 786 1224 776.5 1234 c 128,-1,51
 767 1244 767 1244 758 1249 c 0,52,53
 756 1250 756 1250 745 1258 c 128,-1,54
 734 1266 734 1266 712.5 1274 c 128,-1,55
 691 1282 691 1282 657.5 1289 c 128,-1,56
 624 1296 624 1296 578 1296 c 0,57,58
 516 1296 516 1296 467 1278 c 128,-1,59
 418 1260 418 1260 384 1227.5 c 128,-1,60
 350 1195 350 1195 331.5 1151 c 128,-1,61
 313 1107 313 1107 313 1055 c 0,62,63
 313 1008 313 1008 331.5 969.5 c 128,-1,64
 350 931 350 931 386.5 898.5 c 128,-1,65
 423 866 423 866 476 838 c 128,-1,66
 529 810 529 810 598 784 c 0,67,68
 691 749 691 749 763.5 711 c 128,-1,69
 836 673 836 673 885.5 626 c 128,-1,70
 935 579 935 579 961 520.5 c 128,-1,71
 987 462 987 462 987 385 c 0,0,1
EndSplineSet
EndChar

StartChar: T
Encoding: 84 84 55
Width: 1227
Flags: W
LayerCount: 2
Fore
SplineSet
1073 1047 m 1,0,-1
 1044 1239 l 2,1,2
 1041 1255 1041 1255 1032.5 1264.5 c 128,-1,3
 1024 1274 1024 1274 1010 1274 c 2,4,-1
 717 1274 l 1,5,-1
 717 141 l 2,6,7
 717 126 717 126 727.5 112 c 128,-1,8
 738 98 738 98 760 96 c 2,9,-1
 891 88 l 1,10,-1
 891 0 l 1,11,-1
 336 0 l 1,12,-1
 336 88 l 1,13,-1
 467 96 l 2,14,15
 489 98 489 98 499.5 112 c 128,-1,16
 510 126 510 126 510 141 c 2,17,-1
 510 1274 l 1,18,-1
 215 1274 l 2,19,20
 201 1274 201 1274 191.5 1264.5 c 128,-1,21
 182 1255 182 1255 180 1239 c 2,22,-1
 152 1047 l 1,23,-1
 33 1047 l 1,24,-1
 33 1374 l 1,25,-1
 1194 1374 l 1,26,-1
 1194 1047 l 1,27,-1
 1073 1047 l 1,0,-1
EndSplineSet
EndChar

StartChar: U
Encoding: 85 85 56
Width: 1458
Flags: W
LayerCount: 2
Fore
SplineSet
1284 1278 m 2,0,1
 1262 1276 1262 1276 1251.5 1262 c 128,-1,2
 1241 1248 1241 1248 1241 1233 c 2,3,-1
 1241 455 l 2,4,5
 1241 329 1241 329 1207 237 c 128,-1,6
 1173 145 1173 145 1106.5 85 c 128,-1,7
 1040 25 1040 25 941.5 -4 c 128,-1,8
 843 -33 843 -33 715 -33 c 0,9,10
 461 -33 461 -33 338 90 c 128,-1,11
 215 213 215 213 215 455 c 2,12,-1
 215 1233 l 2,13,14
 215 1248 215 1248 204.5 1262 c 128,-1,15
 194 1276 194 1276 172 1278 c 2,16,-1
 63 1286 l 1,17,-1
 63 1374 l 1,18,-1
 584 1374 l 1,19,-1
 584 1286 l 1,20,-1
 467 1278 l 2,21,22
 445 1276 445 1276 434.5 1262 c 128,-1,23
 424 1248 424 1248 424 1233 c 2,24,-1
 424 508 l 2,25,26
 424 418 424 418 438 343.5 c 128,-1,27
 452 269 452 269 490 216 c 128,-1,28
 528 163 528 163 595.5 133.5 c 128,-1,29
 663 104 663 104 770 104 c 0,30,31
 876 104 876 104 944 135 c 128,-1,32
 1012 166 1012 166 1051 220.5 c 128,-1,33
 1090 275 1090 275 1105 349 c 128,-1,34
 1120 423 1120 423 1120 508 c 2,35,-1
 1120 1233 l 2,36,37
 1120 1248 1120 1248 1108.5 1262 c 128,-1,38
 1097 1276 1097 1276 1075 1278 c 2,39,-1
 958 1286 l 1,40,-1
 958 1374 l 1,41,-1
 1403 1374 l 1,42,-1
 1403 1286 l 1,43,-1
 1284 1278 l 2,0,1
EndSplineSet
EndChar

StartChar: V
Encoding: 86 86 57
Width: 1364
Flags: W
LayerCount: 2
Fore
SplineSet
1225 1264 m 1,0,-1
 766 -33 l 1,1,-1
 610 -33 l 1,2,-1
 141 1266 l 1,3,-1
 20 1286 l 1,4,-1
 20 1374 l 1,5,-1
 510 1374 l 1,6,-1
 510 1286 l 1,7,-1
 389 1276 l 1,8,9
 378 1274 378 1274 373 1261 c 128,-1,10
 368 1248 368 1248 371 1239 c 2,11,-1
 731 227 l 1,12,-1
 1077 1235 l 2,13,14
 1081 1247 1081 1247 1071.5 1260.5 c 128,-1,15
 1062 1274 1062 1274 1049 1276 c 2,16,-1
 936 1286 l 1,17,-1
 936 1374 l 1,18,-1
 1343 1374 l 1,19,-1
 1343 1286 l 1,20,-1
 1225 1264 l 1,0,-1
EndSplineSet
EndChar

StartChar: W
Encoding: 87 87 58
Width: 1907
Flags: W
LayerCount: 2
Fore
SplineSet
1761 1262 m 1,0,-1
 1448 -33 l 1,1,-1
 1298 -33 l 1,2,-1
 956 1102 l 1,3,-1
 621 -33 l 1,4,-1
 473 -33 l 1,5,-1
 139 1262 l 1,6,-1
 20 1286 l 1,7,-1
 20 1374 l 1,8,-1
 489 1374 l 1,9,-1
 489 1286 l 1,10,-1
 367 1274 l 2,11,12
 353 1272 353 1272 348 1259.5 c 128,-1,13
 343 1247 343 1247 346 1233 c 2,14,-1
 590 309 l 1,15,-1
 911 1374 l 1,16,-1
 1069 1374 l 1,17,-1
 1399 276 l 1,18,-1
 1626 1233 l 2,19,20
 1629 1247 1629 1247 1621 1259.5 c 128,-1,21
 1613 1272 1613 1272 1597 1274 c 2,22,-1
 1468 1286 l 1,23,-1
 1468 1374 l 1,24,-1
 1886 1374 l 1,25,-1
 1886 1286 l 1,26,-1
 1761 1262 l 1,0,-1
EndSplineSet
EndChar

StartChar: X
Encoding: 88 88 59
Width: 1298
Flags: W
LayerCount: 2
Fore
SplineSet
752 0 m 1,0,-1
 752 88 l 1,1,-1
 870 100 l 2,2,3
 886 102 886 102 895 115 c 128,-1,4
 904 128 904 128 895 143 c 2,5,-1
 623 571 l 1,6,-1
 307 137 l 2,7,8
 299 126 299 126 303 113 c 128,-1,9
 307 100 307 100 332 98 c 2,10,-1
 455 88 l 1,11,-1
 455 0 l 1,12,-1
 20 0 l 1,13,-1
 20 88 l 1,14,-1
 143 113 l 1,15,-1
 555 678 l 1,16,-1
 182 1262 l 1,17,-1
 47 1286 l 1,18,-1
 47 1374 l 1,19,-1
 561 1374 l 1,20,-1
 561 1286 l 1,21,-1
 457 1276 l 2,22,23
 432 1274 432 1274 428 1260.5 c 128,-1,24
 424 1247 424 1247 432 1235 c 2,25,-1
 682 850 l 1,26,-1
 958 1229 l 2,27,28
 969 1244 969 1244 960 1257 c 128,-1,29
 951 1270 951 1270 936 1272 c 2,30,-1
 831 1286 l 1,31,-1
 831 1374 l 1,32,-1
 1260 1374 l 1,33,-1
 1260 1286 l 1,34,-1
 1128 1266 l 1,35,-1
 748 743 l 1,36,-1
 1151 113 l 1,37,-1
 1278 88 l 1,38,-1
 1278 0 l 1,39,-1
 752 0 l 1,0,-1
EndSplineSet
EndChar

StartChar: Y
Encoding: 89 89 60
Width: 1282
Flags: W
LayerCount: 2
Fore
SplineSet
1151 1266 m 1,0,-1
 739 584 l 1,1,-1
 739 141 l 2,2,3
 739 126 739 126 750 112 c 128,-1,4
 761 98 761 98 782 96 c 2,5,-1
 913 88 l 1,6,-1
 913 0 l 1,7,-1
 360 0 l 1,8,-1
 360 88 l 1,9,-1
 487 96 l 2,10,11
 509 98 509 98 520.5 112 c 128,-1,12
 532 126 532 126 532 141 c 2,13,-1
 532 553 l 1,14,-1
 139 1262 l 1,15,-1
 20 1286 l 1,16,-1
 20 1374 l 1,17,-1
 506 1374 l 1,18,-1
 506 1286 l 1,19,-1
 403 1276 l 2,20,21
 379 1273 379 1273 376 1260 c 128,-1,22
 373 1247 373 1247 379 1235 c 2,23,-1
 668 700 l 1,24,-1
 985 1229 l 2,25,26
 994 1244 994 1244 985 1257 c 128,-1,27
 976 1270 976 1270 961 1272 c 2,28,-1
 846 1286 l 1,29,-1
 846 1374 l 1,30,-1
 1262 1374 l 1,31,-1
 1262 1286 l 1,32,-1
 1151 1266 l 1,0,-1
EndSplineSet
EndChar

StartChar: Z
Encoding: 90 90 61
Width: 1178
Flags: W
LayerCount: 2
Fore
SplineSet
80 0 m 1,0,-1
 80 90 l 1,1,-1
 842 1272 l 1,2,-1
 309 1272 l 2,3,4
 295 1272 295 1272 286.5 1262 c 128,-1,5
 278 1252 278 1252 274 1237 c 1,6,-1
 244 1047 l 1,7,-1
 123 1047 l 1,8,-1
 123 1374 l 1,9,-1
 1087 1374 l 1,10,-1
 1087 1280 l 1,11,-1
 324 104 l 1,12,-1
 907 104 l 2,13,14
 921 104 921 104 930 115 c 128,-1,15
 939 126 939 126 942 141 c 2,16,-1
 977 379 l 1,17,-1
 1098 379 l 1,18,-1
 1098 0 l 1,19,-1
 80 0 l 1,0,-1
EndSplineSet
EndChar

StartChar: bracketleft
Encoding: 91 91 62
Width: 866
Flags: W
LayerCount: 2
Fore
SplineSet
279 -270 m 1,0,-1
 279 1450 l 1,1,-1
 776 1450 l 1,2,-1
 776 1358 l 1,3,-1
 457 1358 l 1,4,-1
 457 -176 l 1,5,-1
 776 -176 l 1,6,-1
 776 -270 l 1,7,-1
 279 -270 l 1,0,-1
EndSplineSet
EndChar

StartChar: backslash
Encoding: 92 92 63
Width: 1001
Flags: W
LayerCount: 2
Fore
SplineSet
870 -190 m 1,0,-1
 0 1374 l 1,1,-1
 131 1374 l 1,2,-1
 1001 -190 l 1,3,-1
 870 -190 l 1,0,-1
EndSplineSet
EndChar

StartChar: bracketright
Encoding: 93 93 64
Width: 866
Flags: W
LayerCount: 2
Fore
SplineSet
90 -270 m 1,0,-1
 90 -176 l 1,1,-1
 412 -176 l 1,2,-1
 412 1358 l 1,3,-1
 90 1358 l 1,4,-1
 90 1450 l 1,5,-1
 590 1450 l 1,6,-1
 590 -270 l 1,7,-1
 90 -270 l 1,0,-1
EndSplineSet
EndChar

StartChar: asciicircum
Encoding: 94 94 65
Width: 670
Flags: W
LayerCount: 2
Fore
SplineSet
547 1128 m 1,0,-1
 336 1331 l 1,1,-1
 123 1128 l 1,2,-1
 0 1128 l 1,3,-1
 258 1475 l 1,4,-1
 412 1475 l 1,5,-1
 670 1128 l 1,6,-1
 547 1128 l 1,0,-1
EndSplineSet
EndChar

StartChar: underscore
Encoding: 95 95 66
Width: 686
Flags: W
LayerCount: 2
Fore
SplineSet
0 -305 m 1,0,-1
 0 -175 l 1,1,-1
 686 -175 l 1,2,-1
 686 -305 l 1,3,-1
 0 -305 l 1,0,-1
EndSplineSet
EndChar

StartChar: grave
Encoding: 96 96 67
Width: 717
Flags: W
LayerCount: 2
Fore
SplineSet
358 1128 m 1,0,-1
 47 1327 l 2,1,2
 25 1341 25 1341 12.5 1361 c 128,-1,3
 0 1381 0 1381 0 1409 c 0,4,5
 0 1425 0 1425 5 1441.5 c 128,-1,6
 10 1458 10 1458 21 1471 c 128,-1,7
 32 1484 32 1484 50 1492.5 c 128,-1,8
 68 1501 68 1501 94 1501 c 0,9,10
 116 1501 116 1501 131 1497.5 c 128,-1,11
 146 1494 146 1494 158 1487 c 128,-1,12
 170 1480 170 1480 180 1469.5 c 128,-1,13
 190 1459 190 1459 201 1446 c 2,14,-1
 475 1128 l 1,15,-1
 358 1128 l 1,0,-1
EndSplineSet
EndChar

StartChar: a
Encoding: 97 97 68
Width: 1042
Flags: W
LayerCount: 2
Fore
SplineSet
678 547 m 1,0,1
 540 512 540 512 459 478 c 128,-1,2
 378 444 378 444 336.5 409.5 c 128,-1,3
 295 375 295 375 283.5 339.5 c 128,-1,4
 272 304 272 304 272 266 c 0,5,6
 272 234 272 234 282.5 203.5 c 128,-1,7
 293 173 293 173 312.5 149 c 128,-1,8
 332 125 332 125 360.5 110.5 c 128,-1,9
 389 96 389 96 426 96 c 0,10,11
 467 96 467 96 511.5 111 c 128,-1,12
 556 126 556 126 593 144 c 0,13,14
 636 165 636 165 678 193 c 1,15,-1
 678 547 l 1,0,1
705 0 m 1,16,-1
 678 121 l 1,17,18
 624 80 624 80 567 48 c 0,19,20
 542 34 542 34 514 21 c 128,-1,21
 486 8 486 8 456.5 -2.5 c 128,-1,22
 427 -13 427 -13 396.5 -19 c 128,-1,23
 366 -25 366 -25 336 -25 c 0,24,25
 280 -25 280 -25 231.5 -6 c 128,-1,26
 183 13 183 13 147 49 c 128,-1,27
 111 85 111 85 90.5 136 c 128,-1,28
 70 187 70 187 70 252 c 0,29,30
 70 290 70 290 77.5 324 c 128,-1,31
 85 358 85 358 108 390 c 128,-1,32
 131 422 131 422 172.5 451.5 c 128,-1,33
 214 481 214 481 281.5 510 c 128,-1,34
 349 539 349 539 446.5 567.5 c 128,-1,35
 544 596 544 596 678 625 c 1,36,-1
 678 713 l 2,37,38
 678 816 678 816 632 865.5 c 128,-1,39
 586 915 586 915 487 915 c 0,40,41
 433 915 433 915 395 905 c 128,-1,42
 357 895 357 895 342 889 c 1,43,-1
 342 711 l 1,44,-1
 193 711 l 2,45,46
 179 711 179 711 165.5 713 c 128,-1,47
 152 715 152 715 141 721.5 c 128,-1,48
 130 728 130 728 123.5 739.5 c 128,-1,49
 117 751 117 751 117 770 c 0,50,51
 117 833 117 833 155 878.5 c 128,-1,52
 193 924 193 924 254 954 c 128,-1,53
 315 984 315 984 391 998 c 128,-1,54
 467 1012 467 1012 543 1012 c 0,55,56
 638 1012 638 1012 700.5 989 c 128,-1,57
 763 966 763 966 799.5 925 c 128,-1,58
 836 884 836 884 851 828 c 128,-1,59
 866 772 866 772 866 705 c 2,60,-1
 866 131 l 2,61,62
 866 112 866 112 878.5 100 c 128,-1,63
 891 88 891 88 909 86 c 2,64,-1
 1008 80 l 1,65,-1
 1008 0 l 1,66,-1
 705 0 l 1,16,-1
EndSplineSet
EndChar

StartChar: b
Encoding: 98 98 69
Width: 1137
Flags: W
LayerCount: 2
Fore
SplineSet
1067 541 m 0,0,1
 1067 425 1067 425 1033 326.5 c 128,-1,2
 999 228 999 228 927.5 155 c 128,-1,3
 856 82 856 82 744.5 41 c 128,-1,4
 633 0 633 0 479 0 c 2,5,-1
 184 0 l 1,6,-1
 184 1362 l 1,7,-1
 29 1362 l 1,8,-1
 29 1430 l 1,9,-1
 293 1509 l 1,10,-1
 375 1509 l 1,11,-1
 375 936 l 1,12,13
 393 944 393 944 422 957 c 128,-1,14
 451 970 451 970 488.5 982 c 128,-1,15
 526 994 526 994 569 1003 c 128,-1,16
 612 1012 612 1012 657 1012 c 0,17,18
 758 1012 758 1012 834.5 974 c 128,-1,19
 911 936 911 936 963 871 c 128,-1,20
 1015 806 1015 806 1041 720.5 c 128,-1,21
 1067 635 1067 635 1067 541 c 0,0,1
858 500 m 0,22,23
 858 693 858 693 775.5 792 c 128,-1,24
 693 891 693 891 545 891 c 0,25,26
 528 891 528 891 505 888 c 128,-1,27
 482 885 482 885 458.5 880 c 128,-1,28
 435 875 435 875 412.5 869 c 128,-1,29
 390 863 390 863 375 858 c 1,30,-1
 375 98 l 1,31,32
 392 97 392 97 410 97 c 1,33,34
 425 96 425 96 442 96 c 2,35,-1
 475 96 l 2,36,37
 566 96 566 96 637 117 c 128,-1,38
 708 138 708 138 757 186 c 128,-1,39
 806 234 806 234 832 311 c 128,-1,40
 858 388 858 388 858 500 c 0,22,23
EndSplineSet
EndChar

StartChar: c
Encoding: 99 99 70
Width: 954
Flags: W
LayerCount: 2
Fore
SplineSet
885 76 m 1,0,1
 850 58 850 58 811.5 39.5 c 128,-1,2
 773 21 773 21 729.5 7 c 128,-1,3
 686 -7 686 -7 638.5 -16 c 128,-1,4
 591 -25 591 -25 539 -25 c 0,5,6
 431 -25 431 -25 344.5 13.5 c 128,-1,7
 258 52 258 52 197 120.5 c 128,-1,8
 136 189 136 189 103 283 c 128,-1,9
 70 377 70 377 70 487 c 0,10,11
 70 616 70 616 110 714 c 128,-1,12
 150 812 150 812 218 878.5 c 128,-1,13
 286 945 286 945 375.5 978.5 c 128,-1,14
 465 1012 465 1012 563 1012 c 0,15,16
 630 1012 630 1012 688.5 998.5 c 128,-1,17
 747 985 747 985 789.5 959 c 128,-1,18
 832 933 832 933 856.5 895 c 128,-1,19
 881 857 881 857 881 807 c 0,20,21
 881 777 881 777 870.5 754.5 c 128,-1,22
 860 732 860 732 843 716.5 c 128,-1,23
 826 701 826 701 804.5 693.5 c 128,-1,24
 783 686 783 686 760 686 c 0,25,26
 726 686 726 686 701 697.5 c 128,-1,27
 676 709 676 709 657 721 c 1,28,-1
 657 899 l 1,29,30
 636 911 636 911 613.5 918.5 c 128,-1,31
 591 926 591 926 571 926 c 0,32,33
 503 926 503 926 448.5 895 c 128,-1,34
 394 864 394 864 356.5 809 c 128,-1,35
 319 754 319 754 299 678.5 c 128,-1,36
 279 603 279 603 279 514 c 0,37,38
 279 429 279 429 300.5 354 c 128,-1,39
 322 279 322 279 364.5 223.5 c 128,-1,40
 407 168 407 168 470.5 136 c 128,-1,41
 534 104 534 104 618 104 c 0,42,43
 690 104 690 104 754.5 126.5 c 128,-1,44
 819 149 819 149 885 193 c 1,45,-1
 885 76 l 1,0,1
EndSplineSet
EndChar

StartChar: d
Encoding: 100 100 71
Width: 1155
Flags: W
LayerCount: 2
Fore
SplineSet
780 883 m 1,0,1
 767 887 767 887 746.5 892.5 c 128,-1,2
 726 898 726 898 702.5 902.5 c 128,-1,3
 679 907 679 907 653.5 910 c 128,-1,4
 628 913 628 913 606 913 c 0,5,6
 530 913 530 913 468 883.5 c 128,-1,7
 406 854 406 854 362.5 800.5 c 128,-1,8
 319 747 319 747 295.5 671 c 128,-1,9
 272 595 272 595 272 502 c 0,10,11
 272 418 272 418 292 347.5 c 128,-1,12
 312 277 312 277 350 225 c 128,-1,13
 388 173 388 173 443 144 c 128,-1,14
 498 115 498 115 569 115 c 0,15,16
 600 115 600 115 629 121.5 c 128,-1,17
 658 128 658 128 685 138.5 c 128,-1,18
 712 149 712 149 736 161.5 c 128,-1,19
 760 174 760 174 780 186 c 1,20,-1
 780 883 l 1,0,1
780 0 m 1,21,-1
 780 109 l 1,22,23
 745 82 745 82 707.5 57.5 c 128,-1,24
 670 33 670 33 630.5 15 c 128,-1,25
 591 -3 591 -3 549.5 -14 c 128,-1,26
 508 -25 508 -25 463 -25 c 0,27,28
 360 -25 360 -25 285.5 19.5 c 128,-1,29
 211 64 211 64 163 134.5 c 128,-1,30
 115 205 115 205 92.5 292.5 c 128,-1,31
 70 380 70 380 70 467 c 0,32,33
 70 571 70 571 102 669.5 c 128,-1,34
 134 768 134 768 199 844 c 128,-1,35
 264 920 264 920 362 966 c 128,-1,36
 460 1012 460 1012 592 1012 c 0,37,38
 616 1012 616 1012 644 1009 c 128,-1,39
 672 1006 672 1006 698.5 1002.5 c 128,-1,40
 725 999 725 999 746.5 994.5 c 128,-1,41
 768 990 768 990 780 987 c 1,42,-1
 780 1362 l 1,43,-1
 625 1362 l 1,44,-1
 625 1430 l 1,45,-1
 889 1509 l 1,46,-1
 971 1509 l 1,47,-1
 971 131 l 2,48,49
 971 112 971 112 983 100 c 128,-1,50
 995 88 995 88 1014 86 c 2,51,-1
 1102 80 l 1,52,-1
 1102 0 l 1,53,-1
 780 0 l 1,21,-1
EndSplineSet
EndChar

StartChar: e
Encoding: 101 101 72
Width: 1004
Flags: W
LayerCount: 2
Fore
SplineSet
934 102 m 1,0,1
 891 75 891 75 844.5 52 c 128,-1,2
 798 29 798 29 748.5 12 c 128,-1,3
 699 -5 699 -5 648 -15 c 128,-1,4
 597 -25 597 -25 545 -25 c 0,5,6
 452 -25 452 -25 366 6.5 c 128,-1,7
 280 38 280 38 214.5 101 c 128,-1,8
 149 164 149 164 109.5 259.5 c 128,-1,9
 70 355 70 355 70 483 c 0,10,11
 70 603 70 603 106 700.5 c 128,-1,12
 142 798 142 798 206 867.5 c 128,-1,13
 270 937 270 937 358 974.5 c 128,-1,14
 446 1012 446 1012 551 1012 c 0,15,16
 646 1012 646 1012 718 980.5 c 128,-1,17
 790 949 790 949 838 893.5 c 128,-1,18
 886 838 886 838 910 760.5 c 128,-1,19
 934 683 934 683 934 592 c 2,20,-1
 934 565 l 2,21,22
 934 549 934 549 932 535 c 1,23,-1
 268 535 l 1,24,25
 268 457 268 457 284.5 379 c 128,-1,26
 301 301 301 301 340 239 c 128,-1,27
 379 177 379 177 445 138.5 c 128,-1,28
 511 100 511 100 610 100 c 0,29,30
 654 100 654 100 697 111.5 c 128,-1,31
 740 123 740 123 781.5 141 c 128,-1,32
 823 159 823 159 861 181.5 c 128,-1,33
 899 204 899 204 934 227 c 1,34,-1
 934 102 l 1,0,1
729 672 m 2,35,36
 729 723 729 723 717 766.5 c 128,-1,37
 705 810 705 810 680.5 842 c 128,-1,38
 656 874 656 874 618.5 892.5 c 128,-1,39
 581 911 581 911 530 911 c 256,40,41
 479 911 479 911 435 891.5 c 128,-1,42
 391 872 391 872 357.5 835 c 128,-1,43
 324 798 324 798 303.5 745.5 c 128,-1,44
 283 693 283 693 279 627 c 1,45,-1
 729 627 l 1,46,-1
 729 672 l 2,35,36
EndSplineSet
EndChar

StartChar: f
Encoding: 102 102 73
Width: 668
Flags: W
LayerCount: 2
Fore
SplineSet
797 1386 m 0,0,1
 797 1355 797 1355 784.5 1334.5 c 128,-1,2
 772 1314 772 1314 755.5 1301.5 c 128,-1,3
 739 1289 739 1289 723.5 1283 c 128,-1,4
 708 1277 708 1277 702 1276 c 1,5,6
 700 1278 700 1278 685.5 1288.5 c 128,-1,7
 671 1299 671 1299 650.5 1313.5 c 128,-1,8
 630 1328 630 1328 606.5 1344 c 128,-1,9
 583 1360 583 1360 563 1374.5 c 128,-1,10
 543 1389 543 1389 529 1398.5 c 128,-1,11
 515 1408 515 1408 514 1409 c 1,12,13
 492 1397 492 1397 470.5 1375 c 128,-1,14
 449 1353 449 1353 431.5 1316 c 128,-1,15
 414 1279 414 1279 403.5 1226.5 c 128,-1,16
 393 1174 393 1174 393 1102 c 2,17,-1
 393 971 l 1,18,-1
 647 971 l 1,19,-1
 647 866 l 1,20,-1
 393 866 l 1,21,-1
 393 131 l 2,22,23
 393 112 393 112 405.5 100 c 128,-1,24
 418 88 418 88 436 86 c 1,25,-1
 557 80 l 1,26,-1
 557 0 l 1,27,-1
 59 0 l 1,28,-1
 59 80 l 1,29,-1
 160 86 l 2,30,31
 178 88 178 88 190.5 100 c 128,-1,32
 203 112 203 112 203 131 c 2,33,-1
 203 866 l 1,34,-1
 72 866 l 1,35,-1
 72 938 l 1,36,-1
 203 975 l 1,37,38
 203 1026 203 1026 206.5 1066.5 c 128,-1,39
 210 1107 210 1107 218.5 1142.5 c 128,-1,40
 227 1178 227 1178 240 1211.5 c 128,-1,41
 253 1245 253 1245 272 1282 c 0,42,43
 302 1340 302 1340 341.5 1382.5 c 128,-1,44
 381 1425 381 1425 426.5 1453 c 128,-1,45
 472 1481 472 1481 521.5 1495 c 128,-1,46
 571 1509 571 1509 621 1509 c 0,47,48
 664 1509 664 1509 697 1499 c 128,-1,49
 730 1489 730 1489 752.5 1472 c 128,-1,50
 775 1455 775 1455 786 1433 c 128,-1,51
 797 1411 797 1411 797 1386 c 0,0,1
EndSplineSet
EndChar

StartChar: g
Encoding: 103 103 74
Width: 1075
Flags: W
LayerCount: 2
Fore
SplineSet
811 -137 m 0,0,1
 811 -95 811 -95 790 -65.5 c 128,-1,2
 769 -36 769 -36 734.5 -17 c 128,-1,3
 700 2 700 2 656.5 13.5 c 128,-1,4
 613 25 613 25 568.5 32.5 c 128,-1,5
 524 40 524 40 482.5 44.5 c 128,-1,6
 441 49 441 49 410 55 c 1,7,8
 365 39 365 39 335 16.5 c 128,-1,9
 305 -6 305 -6 287 -32 c 128,-1,10
 269 -58 269 -58 261.5 -85 c 128,-1,11
 254 -112 254 -112 254 -137 c 0,12,13
 254 -174 254 -174 270 -216 c 128,-1,14
 286 -258 286 -258 319 -293 c 128,-1,15
 352 -328 352 -328 402.5 -351.5 c 128,-1,16
 453 -375 453 -375 522 -375 c 0,17,18
 595 -375 595 -375 649.5 -351.5 c 128,-1,19
 704 -328 704 -328 740 -293 c 128,-1,20
 776 -258 776 -258 793.5 -216 c 128,-1,21
 811 -174 811 -174 811 -137 c 0,0,1
696 678 m 0,22,23
 696 726 696 726 683.5 771.5 c 128,-1,24
 671 817 671 817 647 851.5 c 128,-1,25
 623 886 623 886 587.5 907 c 128,-1,26
 552 928 552 928 506 928 c 0,27,28
 463 928 463 928 427 911 c 128,-1,29
 391 894 391 894 365.5 861.5 c 128,-1,30
 340 829 340 829 325.5 782 c 128,-1,31
 311 735 311 735 311 676 c 0,32,33
 311 625 311 625 323.5 579.5 c 128,-1,34
 336 534 336 534 360.5 500 c 128,-1,35
 385 466 385 466 421.5 446 c 128,-1,36
 458 426 458 426 506 426 c 0,37,38
 552 426 552 426 587.5 446 c 128,-1,39
 623 466 623 466 647 500 c 128,-1,40
 671 534 671 534 683.5 580 c 128,-1,41
 696 626 696 626 696 678 c 0,22,23
836 850 m 1,42,43
 859 813 859 813 875 769.5 c 128,-1,44
 891 726 891 726 891 666 c 0,45,46
 891 585 891 585 854 522 c 128,-1,47
 817 459 817 459 755.5 417 c 128,-1,48
 694 375 694 375 614.5 355.5 c 128,-1,49
 535 336 535 336 449 342 c 1,50,51
 437 322 437 322 432.5 299 c 128,-1,52
 428 276 428 276 427.5 256 c 128,-1,53
 427 236 427 236 429 221.5 c 128,-1,54
 431 207 431 207 432 205 c 1,55,56
 478 200 478 200 537 194 c 128,-1,57
 596 188 596 188 657.5 176.5 c 128,-1,58
 719 165 719 165 778.5 146 c 128,-1,59
 838 127 838 127 884 96.5 c 128,-1,60
 930 66 930 66 958.5 22.5 c 128,-1,61
 987 -21 987 -21 987 -82 c 0,62,63
 987 -155 987 -155 945.5 -224.5 c 128,-1,64
 904 -294 904 -294 832 -348.5 c 128,-1,65
 760 -403 760 -403 663 -436 c 128,-1,66
 566 -469 566 -469 455 -469 c 0,67,68
 363 -469 363 -469 291.5 -447 c 128,-1,69
 220 -425 220 -425 171 -386 c 128,-1,70
 122 -347 122 -347 96 -293.5 c 128,-1,71
 70 -240 70 -240 70 -178 c 0,72,73
 70 -133 70 -133 83 -92.5 c 128,-1,74
 96 -52 96 -52 123 -19.5 c 128,-1,75
 150 13 150 13 190.5 36.5 c 128,-1,76
 231 60 231 60 287 70 c 1,77,78
 281 86 281 86 277 96.5 c 128,-1,79
 273 107 273 107 270.5 116.5 c 128,-1,80
 268 126 268 126 267 136.5 c 128,-1,81
 266 147 266 147 266 164 c 0,82,83
 266 204 266 204 290.5 252.5 c 128,-1,84
 315 301 315 301 369 356 c 1,85,86
 318 368 318 368 272 394 c 128,-1,87
 226 420 226 420 191 459.5 c 128,-1,88
 156 499 156 499 135.5 550.5 c 128,-1,89
 115 602 115 602 115 664 c 0,90,91
 115 745 115 745 145 809.5 c 128,-1,92
 175 874 175 874 229 919 c 128,-1,93
 283 964 283 964 358.5 988 c 128,-1,94
 434 1012 434 1012 526 1012 c 0,95,96
 562 1012 562 1012 596.5 1006 c 128,-1,97
 631 1000 631 1000 661.5 990.5 c 128,-1,98
 692 981 692 981 718 970 c 128,-1,99
 744 959 744 959 764 950 c 1,100,-1
 1040 950 l 1,101,-1
 1040 850 l 1,102,-1
 836 850 l 1,42,43
EndSplineSet
EndChar

StartChar: h
Encoding: 104 104 75
Width: 1176
Flags: W
LayerCount: 2
Fore
SplineSet
672 0 m 1,0,-1
 672 80 l 1,1,-1
 756 86 l 2,2,3
 774 88 774 88 787.5 100 c 128,-1,4
 801 112 801 112 801 131 c 2,5,-1
 801 659 l 2,6,7
 801 703 801 703 791.5 740 c 128,-1,8
 782 777 782 777 758.5 804 c 128,-1,9
 735 831 735 831 696 846.5 c 128,-1,10
 657 862 657 862 598 862 c 0,11,12
 571 862 571 862 541 857.5 c 128,-1,13
 511 853 511 853 481.5 845 c 128,-1,14
 452 837 452 837 424.5 826 c 128,-1,15
 397 815 397 815 375 803 c 1,16,-1
 375 131 l 2,17,18
 375 112 375 112 386 100 c 128,-1,19
 397 88 397 88 416 86 c 2,20,-1
 504 80 l 1,21,-1
 504 0 l 1,22,-1
 43 0 l 1,23,-1
 43 80 l 1,24,-1
 141 86 l 2,25,26
 160 88 160 88 172 100 c 128,-1,27
 184 112 184 112 184 131 c 2,28,-1
 184 1362 l 1,29,-1
 31 1362 l 1,30,-1
 31 1430 l 1,31,-1
 293 1509 l 1,32,-1
 375 1509 l 1,33,-1
 375 885 l 1,34,35
 403 902 403 902 444 924 c 128,-1,36
 485 946 485 946 531.5 965.5 c 128,-1,37
 578 985 578 985 625.5 998.5 c 128,-1,38
 673 1012 673 1012 713 1012 c 0,39,40
 772 1012 772 1012 822.5 993 c 128,-1,41
 873 974 873 974 910.5 936 c 128,-1,42
 948 898 948 898 969.5 839.5 c 128,-1,43
 991 781 991 781 991 702 c 2,44,-1
 991 131 l 2,45,46
 991 112 991 112 1004.5 100 c 128,-1,47
 1018 88 1018 88 1036 86 c 2,48,-1
 1128 80 l 1,49,-1
 1128 0 l 1,50,-1
 672 0 l 1,0,-1
EndSplineSet
EndChar

StartChar: i
Encoding: 105 105 76
Width: 621
Flags: W
LayerCount: 2
Fore
SplineSet
70 0 m 1,0,-1
 70 80 l 1,1,-1
 170 86 l 2,2,3
 189 88 189 88 201 100 c 128,-1,4
 213 112 213 112 213 131 c 2,5,-1
 213 862 l 1,6,-1
 72 862 l 1,7,-1
 72 934 l 1,8,-1
 322 1012 l 1,9,-1
 403 1012 l 1,10,-1
 403 131 l 2,11,12
 403 112 403 112 415.5 100 c 128,-1,13
 428 88 428 88 446 86 c 2,14,-1
 551 80 l 1,15,-1
 551 0 l 1,16,-1
 70 0 l 1,0,-1
446 1325 m 256,17,18
 446 1299 446 1299 436.5 1275.5 c 128,-1,19
 427 1252 427 1252 410 1235 c 128,-1,20
 393 1218 393 1218 370.5 1208 c 128,-1,21
 348 1198 348 1198 322 1198 c 256,22,23
 296 1198 296 1198 272.5 1208 c 128,-1,24
 249 1218 249 1218 232 1235 c 128,-1,25
 215 1252 215 1252 205 1275.5 c 128,-1,26
 195 1299 195 1299 195 1325 c 256,27,28
 195 1351 195 1351 205 1374 c 128,-1,29
 215 1397 215 1397 232 1414 c 128,-1,30
 249 1431 249 1431 272.5 1440.5 c 128,-1,31
 296 1450 296 1450 322 1450 c 256,32,33
 348 1450 348 1450 370.5 1440.5 c 128,-1,34
 393 1431 393 1431 410 1414 c 128,-1,35
 427 1397 427 1397 436.5 1374 c 128,-1,36
 446 1351 446 1351 446 1325 c 256,17,18
EndSplineSet
EndChar

StartChar: j
Encoding: 106 106 77
Width: 598
Flags: W
LayerCount: 2
Fore
SplineSet
414 131 m 2,0,1
 414 85 414 85 411 30.5 c 128,-1,2
 408 -24 408 -24 399.5 -79 c 128,-1,3
 391 -134 391 -134 375.5 -186 c 128,-1,4
 360 -238 360 -238 334 -279 c 0,5,6
 271 -376 271 -376 181 -422.5 c 128,-1,7
 91 -469 91 -469 -6 -469 c 0,8,9
 -38 -469 -38 -469 -66 -462.5 c 128,-1,10
 -94 -456 -94 -456 -115.5 -442 c 128,-1,11
 -137 -428 -137 -428 -149.5 -406.5 c 128,-1,12
 -162 -385 -162 -385 -162 -356 c 0,13,14
 -162 -330 -162 -330 -154 -310.5 c 128,-1,15
 -146 -291 -146 -291 -133.5 -276.5 c 128,-1,16
 -121 -262 -121 -262 -105 -252.5 c 128,-1,17
 -89 -243 -89 -243 -74 -238 c 1,18,-1
 125 -375 l 1,19,20
 153 -359 153 -359 172 -327.5 c 128,-1,21
 191 -296 191 -296 202.5 -252.5 c 128,-1,22
 214 -209 214 -209 218.5 -155.5 c 128,-1,23
 223 -102 223 -102 223 -43 c 2,24,-1
 223 866 l 1,25,-1
 78 866 l 1,26,-1
 78 934 l 1,27,-1
 330 1012 l 1,28,-1
 414 1012 l 1,29,-1
 414 131 l 2,0,1
436 1325 m 256,30,31
 436 1299 436 1299 426.5 1275.5 c 128,-1,32
 417 1252 417 1252 400 1235 c 128,-1,33
 383 1218 383 1218 360 1208 c 128,-1,34
 337 1198 337 1198 311 1198 c 256,35,36
 285 1198 285 1198 262 1208 c 128,-1,37
 239 1218 239 1218 221.5 1235 c 128,-1,38
 204 1252 204 1252 194 1275.5 c 128,-1,39
 184 1299 184 1299 184 1325 c 256,40,41
 184 1351 184 1351 194 1374 c 128,-1,42
 204 1397 204 1397 221.5 1414 c 128,-1,43
 239 1431 239 1431 262 1440.5 c 128,-1,44
 285 1450 285 1450 311 1450 c 256,45,46
 337 1450 337 1450 360 1440.5 c 128,-1,47
 383 1431 383 1431 400 1414 c 128,-1,48
 417 1397 417 1397 426.5 1374 c 128,-1,49
 436 1351 436 1351 436 1325 c 256,30,31
EndSplineSet
EndChar

StartChar: k
Encoding: 107 107 78
Width: 1094
Flags: W
LayerCount: 2
Fore
SplineSet
745 0 m 1,0,-1
 745 80 l 1,1,-1
 489 465 l 1,2,-1
 375 465 l 1,3,-1
 375 131 l 2,4,5
 375 112 375 112 387 100 c 128,-1,6
 399 88 399 88 418 86 c 2,7,-1
 506 80 l 1,8,-1
 506 0 l 1,9,-1
 41 0 l 1,10,-1
 41 80 l 1,11,-1
 141 86 l 2,12,13
 160 88 160 88 172 100 c 128,-1,14
 184 112 184 112 184 131 c 2,15,-1
 184 1362 l 1,16,-1
 29 1362 l 1,17,-1
 29 1430 l 1,18,-1
 291 1509 l 1,19,-1
 375 1509 l 1,20,-1
 375 524 l 1,21,-1
 416 524 l 1,22,-1
 717 864 l 2,23,24
 725 874 725 874 719.5 885.5 c 128,-1,25
 714 897 714 897 700 899 c 2,26,-1
 616 907 l 1,27,-1
 616 987 l 1,28,-1
 1014 987 l 1,29,-1
 1014 907 l 1,30,-1
 883 893 l 1,31,-1
 612 604 l 1,32,-1
 965 92 l 1,33,-1
 1073 80 l 1,34,-1
 1073 0 l 1,35,-1
 745 0 l 1,0,-1
EndSplineSet
EndChar

StartChar: l
Encoding: 108 108 79
Width: 608
Flags: W
LayerCount: 2
Fore
SplineSet
55 0 m 1,0,-1
 55 80 l 1,1,-1
 164 86 l 2,2,3
 178 86 178 86 193.5 100.5 c 128,-1,4
 209 115 209 115 209 129 c 2,5,-1
 209 1362 l 1,6,-1
 53 1362 l 1,7,-1
 53 1430 l 1,8,-1
 315 1509 l 1,9,-1
 399 1509 l 1,10,-1
 399 129 l 2,11,12
 399 115 399 115 413.5 100.5 c 128,-1,13
 428 86 428 86 442 86 c 2,14,-1
 553 80 l 1,15,-1
 553 0 l 1,16,-1
 55 0 l 1,0,-1
EndSplineSet
EndChar

StartChar: m
Encoding: 109 109 80
Width: 1741
Flags: W
LayerCount: 2
Fore
SplineSet
1237 0 m 1,0,-1
 1237 80 l 1,1,-1
 1323 86 l 2,2,3
 1342 88 1342 88 1354 100 c 128,-1,4
 1366 112 1366 112 1366 131 c 2,5,-1
 1366 653 l 2,6,7
 1366 701 1366 701 1357 739.5 c 128,-1,8
 1348 778 1348 778 1326.5 805 c 128,-1,9
 1305 832 1305 832 1270 847 c 128,-1,10
 1235 862 1235 862 1184 862 c 0,11,12
 1158 862 1158 862 1129.5 857.5 c 128,-1,13
 1101 853 1101 853 1072.5 845.5 c 128,-1,14
 1044 838 1044 838 1016.5 827.5 c 128,-1,15
 989 817 989 817 965 805 c 1,16,-1
 965 131 l 2,17,18
 965 112 965 112 977 100 c 128,-1,19
 989 88 989 88 1008 86 c 2,20,-1
 1094 80 l 1,21,-1
 1094 0 l 1,22,-1
 645 0 l 1,23,-1
 645 80 l 1,24,-1
 731 86 l 2,25,26
 750 88 750 88 762 100 c 128,-1,27
 774 112 774 112 774 131 c 2,28,-1
 774 666 l 2,29,30
 774 709 774 709 764.5 745.5 c 128,-1,31
 755 782 755 782 733.5 807.5 c 128,-1,32
 712 833 712 833 677.5 847.5 c 128,-1,33
 643 862 643 862 594 862 c 0,34,35
 565 862 565 862 533.5 856.5 c 128,-1,36
 502 851 502 851 473 842.5 c 128,-1,37
 444 834 444 834 418.5 823.5 c 128,-1,38
 393 813 393 813 375 803 c 1,39,-1
 375 131 l 2,40,41
 375 112 375 112 387 100 c 128,-1,42
 399 88 399 88 418 86 c 2,43,-1
 504 80 l 1,44,-1
 504 0 l 1,45,-1
 41 0 l 1,46,-1
 41 80 l 1,47,-1
 141 86 l 2,48,49
 160 88 160 88 172 100 c 128,-1,50
 184 112 184 112 184 131 c 2,51,-1
 184 842 l 1,52,-1
 43 842 l 1,53,-1
 43 909 l 1,54,-1
 291 987 l 1,55,-1
 375 987 l 1,56,-1
 375 885 l 1,57,58
 409 906 409 906 450.5 928 c 128,-1,59
 492 950 492 950 536 969 c 128,-1,60
 580 988 580 988 624.5 1000 c 128,-1,61
 669 1012 669 1012 709 1012 c 0,62,63
 753 1012 753 1012 789 999.5 c 128,-1,64
 825 987 825 987 852.5 966.5 c 128,-1,65
 880 946 880 946 900.5 920.5 c 128,-1,66
 921 895 921 895 934 870 c 1,67,68
 965 889 965 889 1009 914 c 128,-1,69
 1053 939 1053 939 1102 960.5 c 128,-1,70
 1151 982 1151 982 1200 997 c 128,-1,71
 1249 1012 1249 1012 1290 1012 c 0,72,73
 1371 1012 1371 1012 1422 982.5 c 128,-1,74
 1473 953 1473 953 1502.5 907.5 c 128,-1,75
 1532 862 1532 862 1543 806 c 128,-1,76
 1554 750 1554 750 1554 698 c 2,77,-1
 1554 131 l 2,78,79
 1554 112 1554 112 1566.5 100 c 128,-1,80
 1579 88 1579 88 1597 86 c 2,81,-1
 1696 80 l 1,82,-1
 1696 0 l 1,83,-1
 1237 0 l 1,0,-1
EndSplineSet
EndChar

StartChar: n
Encoding: 110 110 81
Width: 1161
Flags: W
LayerCount: 2
Fore
SplineSet
668 0 m 1,0,-1
 668 80 l 1,1,-1
 754 86 l 2,2,3
 772 88 772 88 784.5 100 c 128,-1,4
 797 112 797 112 797 131 c 2,5,-1
 797 664 l 2,6,7
 797 761 797 761 752 811.5 c 128,-1,8
 707 862 707 862 600 862 c 0,9,10
 541 862 541 862 484 845.5 c 128,-1,11
 427 829 427 829 375 803 c 1,12,-1
 375 131 l 2,13,14
 375 112 375 112 387 100 c 128,-1,15
 399 88 399 88 418 86 c 2,16,-1
 504 80 l 1,17,-1
 504 0 l 1,18,-1
 41 0 l 1,19,-1
 41 80 l 1,20,-1
 141 86 l 2,21,22
 160 88 160 88 172 100 c 128,-1,23
 184 112 184 112 184 131 c 2,24,-1
 184 842 l 1,25,-1
 41 842 l 1,26,-1
 41 909 l 1,27,-1
 291 987 l 1,28,-1
 375 987 l 1,29,-1
 375 885 l 1,30,31
 418 909 418 909 462.5 932 c 128,-1,32
 507 955 507 955 551 973 c 128,-1,33
 595 991 595 991 636 1001.5 c 128,-1,34
 677 1012 677 1012 713 1012 c 0,35,36
 847 1012 847 1012 917 929 c 128,-1,37
 987 846 987 846 987 696 c 2,38,-1
 987 131 l 2,39,40
 987 112 987 112 999.5 100 c 128,-1,41
 1012 88 1012 88 1030 86 c 2,42,-1
 1120 80 l 1,43,-1
 1120 0 l 1,44,-1
 668 0 l 1,0,-1
EndSplineSet
EndChar

StartChar: o
Encoding: 111 111 82
Width: 1114
Flags: W
LayerCount: 2
Fore
SplineSet
831 494 m 256,0,1
 831 578 831 578 814.5 655 c 128,-1,2
 798 732 798 732 764 791 c 128,-1,3
 730 850 730 850 679 885 c 128,-1,4
 628 920 628 920 559 920 c 0,5,6
 488 920 488 920 436 885 c 128,-1,7
 384 850 384 850 350.5 791 c 128,-1,8
 317 732 317 732 301 655 c 128,-1,9
 285 578 285 578 285 494 c 0,10,11
 285 411 285 411 301.5 334 c 128,-1,12
 318 257 318 257 352 198 c 128,-1,13
 386 139 386 139 437 103.5 c 128,-1,14
 488 68 488 68 557 68 c 0,15,16
 627 68 627 68 679 103 c 128,-1,17
 731 138 731 138 764.5 197 c 128,-1,18
 798 256 798 256 814.5 333 c 128,-1,19
 831 410 831 410 831 494 c 256,0,1
1044 492 m 0,20,21
 1044 383 1044 383 1009.5 288.5 c 128,-1,22
 975 194 975 194 911.5 124.5 c 128,-1,23
 848 55 848 55 757.5 15 c 128,-1,24
 667 -25 667 -25 555 -25 c 256,25,26
 443 -25 443 -25 353 14.5 c 128,-1,27
 263 54 263 54 200 123 c 128,-1,28
 137 192 137 192 103.5 286.5 c 128,-1,29
 70 381 70 381 70 492 c 0,30,31
 70 601 70 601 104 696 c 128,-1,32
 138 791 138 791 202 861.5 c 128,-1,33
 266 932 266 932 356.5 972 c 128,-1,34
 447 1012 447 1012 561 1012 c 256,35,36
 675 1012 675 1012 765 971 c 128,-1,37
 855 930 855 930 917 859.5 c 128,-1,38
 979 789 979 789 1011.5 694.5 c 128,-1,39
 1044 600 1044 600 1044 492 c 0,20,21
EndSplineSet
EndChar

StartChar: p
Encoding: 112 112 83
Width: 1145
Flags: W
LayerCount: 2
Fore
SplineSet
870 479 m 0,0,1
 870 558 870 558 851.5 628.5 c 128,-1,2
 833 699 833 699 797 752.5 c 128,-1,3
 761 806 761 806 707.5 837 c 128,-1,4
 654 868 654 868 584 868 c 0,5,6
 545 868 545 868 507.5 858 c 128,-1,7
 470 848 470 848 441 837 c 0,8,9
 407 824 407 824 375 807 c 1,10,-1
 375 102 l 1,11,12
 399 93 399 93 426 86 c 0,13,14
 449 80 449 80 479 75 c 128,-1,15
 509 70 509 70 541 70 c 0,16,17
 625 70 625 70 687 104 c 128,-1,18
 749 138 749 138 789.5 194.5 c 128,-1,19
 830 251 830 251 850 325 c 128,-1,20
 870 399 870 399 870 479 c 0,0,1
1075 508 m 0,21,22
 1075 387 1075 387 1039.5 288.5 c 128,-1,23
 1004 190 1004 190 937.5 120.5 c 128,-1,24
 871 51 871 51 774.5 13 c 128,-1,25
 678 -25 678 -25 557 -25 c 0,26,27
 529 -25 529 -25 497 -22.5 c 128,-1,28
 465 -20 465 -20 438 -16 c 0,29,30
 406 -12 406 -12 375 -6 c 1,31,-1
 375 -311 l 2,32,33
 375 -330 375 -330 388 -341 c 128,-1,34
 401 -352 401 -352 420 -354 c 2,35,-1
 541 -367 l 1,36,-1
 541 -446 l 1,37,-1
 43 -446 l 1,38,-1
 43 -367 l 1,39,-1
 141 -354 l 2,40,41
 160 -352 160 -352 172 -341 c 128,-1,42
 184 -330 184 -330 184 -311 c 2,43,-1
 184 842 l 1,44,-1
 43 842 l 1,45,-1
 43 909 l 1,46,-1
 295 987 l 1,47,-1
 375 987 l 1,48,-1
 375 885 l 1,49,50
 419 920 419 920 469 948 c 0,51,52
 512 972 512 972 568 992 c 128,-1,53
 624 1012 624 1012 684 1012 c 0,54,55
 763 1012 763 1012 834 976 c 128,-1,56
 905 940 905 940 958.5 874 c 128,-1,57
 1012 808 1012 808 1043.5 715 c 128,-1,58
 1075 622 1075 622 1075 508 c 0,21,22
EndSplineSet
EndChar

StartChar: q
Encoding: 113 113 84
Width: 1124
Flags: W
LayerCount: 2
Fore
SplineSet
762 895 m 1,0,1
 734 901 734 901 698.5 909.5 c 128,-1,2
 663 918 663 918 621 918 c 0,3,4
 537 918 537 918 472.5 888 c 128,-1,5
 408 858 408 858 364.5 803.5 c 128,-1,6
 321 749 321 749 298.5 672.5 c 128,-1,7
 276 596 276 596 276 502 c 0,8,9
 276 423 276 423 293.5 349.5 c 128,-1,10
 311 276 311 276 348.5 220 c 128,-1,11
 386 164 386 164 444.5 130 c 128,-1,12
 503 96 503 96 586 96 c 0,13,14
 605 96 605 96 628.5 98.5 c 128,-1,15
 652 101 652 101 676 105 c 128,-1,16
 700 109 700 109 722.5 114.5 c 128,-1,17
 745 120 745 120 762 125 c 1,18,-1
 762 895 l 1,0,1
598 -446 m 1,19,-1
 598 -369 l 1,20,-1
 719 -358 l 2,21,22
 737 -356 737 -356 749.5 -345 c 128,-1,23
 762 -334 762 -334 762 -315 c 2,24,-1
 762 55 l 1,25,26
 733 41 733 41 698 27 c 128,-1,27
 663 13 663 13 624.5 1.5 c 128,-1,28
 586 -10 586 -10 547.5 -17.5 c 128,-1,29
 509 -25 509 -25 475 -25 c 0,30,31
 380 -25 380 -25 305 14 c 128,-1,32
 230 53 230 53 178 120 c 128,-1,33
 126 187 126 187 98 277 c 128,-1,34
 70 367 70 367 70 469 c 0,35,36
 70 594 70 594 110 694.5 c 128,-1,37
 150 795 150 795 226 865.5 c 128,-1,38
 302 936 302 936 412 974 c 128,-1,39
 522 1012 522 1012 662 1012 c 0,40,41
 690 1012 690 1012 727 1009.5 c 128,-1,42
 764 1007 764 1007 803 1003 c 128,-1,43
 842 999 842 999 881 992.5 c 128,-1,44
 920 986 920 986 952 979 c 1,45,-1
 952 -315 l 2,46,47
 952 -334 952 -334 964.5 -344.5 c 128,-1,48
 977 -355 977 -355 995 -358 c 2,49,-1
 1094 -369 l 1,50,-1
 1094 -446 l 1,51,-1
 598 -446 l 1,19,-1
EndSplineSet
EndChar

StartChar: r
Encoding: 114 114 85
Width: 801
Flags: W
LayerCount: 2
Fore
SplineSet
700 778 m 1,0,1
 680 801 680 801 654 817.5 c 128,-1,2
 628 834 628 834 590 834 c 0,3,4
 540 834 540 834 489 800.5 c 128,-1,5
 438 767 438 767 385 707 c 1,6,-1
 385 131 l 2,7,8
 385 112 385 112 397 100 c 128,-1,9
 409 88 409 88 428 86 c 1,10,-1
 563 80 l 1,11,-1
 563 0 l 1,12,-1
 51 0 l 1,13,-1
 51 78 l 1,14,-1
 152 86 l 2,15,16
 170 88 170 88 182.5 100 c 128,-1,17
 195 112 195 112 195 131 c 2,18,-1
 195 842 l 1,19,-1
 47 842 l 1,20,-1
 47 909 l 1,21,-1
 301 987 l 1,22,-1
 385 987 l 1,23,-1
 385 805 l 1,24,25
 407 829 407 829 438.5 864.5 c 128,-1,26
 470 900 470 900 506 933 c 128,-1,27
 542 966 542 966 580.5 989 c 128,-1,28
 619 1012 619 1012 655 1012 c 0,29,30
 671 1012 671 1012 689 1009 c 128,-1,31
 707 1006 707 1006 724 1001.5 c 128,-1,32
 741 997 741 997 755.5 991.5 c 128,-1,33
 770 986 770 986 780 981 c 1,34,-1
 780 778 l 1,35,-1
 700 778 l 1,0,1
EndSplineSet
EndChar

StartChar: s
Encoding: 115 115 86
Width: 815
Flags: W
LayerCount: 2
Fore
SplineSet
745 297 m 0,0,1
 745 222 745 222 718 162 c 128,-1,2
 691 102 691 102 641 60.5 c 128,-1,3
 591 19 591 19 518 -3 c 128,-1,4
 445 -25 445 -25 354 -25 c 0,5,6
 307 -25 307 -25 262.5 -19.5 c 128,-1,7
 218 -14 218 -14 180.5 -5.5 c 128,-1,8
 143 3 143 3 114 12 c 128,-1,9
 85 21 85 21 70 27 c 1,10,-1
 70 299 l 1,11,-1
 174 299 l 1,12,-1
 199 125 l 1,13,14
 230 105 230 105 275.5 86.5 c 128,-1,15
 321 68 321 68 381 68 c 0,16,17
 425 68 425 68 459 81.5 c 128,-1,18
 493 95 493 95 516.5 117 c 128,-1,19
 540 139 540 139 552.5 167.5 c 128,-1,20
 565 196 565 196 565 227 c 0,21,22
 565 270 565 270 548 300.5 c 128,-1,23
 531 331 531 331 499 355.5 c 128,-1,24
 467 380 467 380 420.5 403 c 128,-1,25
 374 426 374 426 315 455 c 0,26,27
 259 482 259 482 216 508.5 c 128,-1,28
 173 535 173 535 143.5 565.5 c 128,-1,29
 114 596 114 596 99 632.5 c 128,-1,30
 84 669 84 669 84 715 c 0,31,32
 84 783 84 783 108.5 838 c 128,-1,33
 133 893 133 893 180 931.5 c 128,-1,34
 227 970 227 970 295.5 991 c 128,-1,35
 364 1012 364 1012 453 1012 c 0,36,37
 498 1012 498 1012 539 1007 c 128,-1,38
 580 1002 580 1002 614 995 c 128,-1,39
 648 988 648 988 674 980 c 128,-1,40
 700 972 700 972 715 965 c 1,41,-1
 715 723 l 1,42,-1
 608 723 l 1,43,-1
 592 866 l 1,44,45
 570 883 570 883 527 898 c 128,-1,46
 484 913 484 913 436 913 c 0,47,48
 351 913 351 913 310.5 874.5 c 128,-1,49
 270 836 270 836 270 776 c 0,50,51
 270 741 270 741 281.5 715 c 128,-1,52
 293 689 293 689 319.5 666 c 128,-1,53
 346 643 346 643 389.5 619 c 128,-1,54
 433 595 433 595 498 565 c 0,55,56
 552 541 552 541 597 515 c 128,-1,57
 642 489 642 489 675 457 c 128,-1,58
 708 425 708 425 726.5 386 c 128,-1,59
 745 347 745 347 745 297 c 0,0,1
EndSplineSet
EndChar

StartChar: t
Encoding: 116 116 87
Width: 696
Flags: W
LayerCount: 2
Fore
SplineSet
682 43 m 1,0,1
 644 24 644 24 599 9 c 0,2,3
 561 -4 561 -4 511 -14.5 c 128,-1,4
 461 -25 461 -25 406 -25 c 0,5,6
 290 -25 290 -25 238 29 c 128,-1,7
 186 83 186 83 186 205 c 2,8,-1
 186 885 l 1,9,-1
 55 885 l 1,10,-1
 55 952 l 1,11,-1
 195 1018 l 1,12,-1
 287 1235 l 1,13,-1
 377 1235 l 1,14,-1
 377 987 l 1,15,-1
 666 987 l 1,16,-1
 666 885 l 1,17,-1
 377 885 l 1,18,-1
 377 313 l 2,19,20
 377 252 377 252 387.5 209.5 c 128,-1,21
 398 167 398 167 418.5 140.5 c 128,-1,22
 439 114 439 114 469.5 102 c 128,-1,23
 500 90 500 90 541 90 c 0,24,25
 571 90 571 90 596.5 95 c 128,-1,26
 622 100 622 100 641 107 c 0,27,28
 663 115 663 115 682 125 c 1,29,-1
 682 43 l 1,0,1
EndSplineSet
EndChar

StartChar: u
Encoding: 117 117 88
Width: 1165
Flags: W
LayerCount: 2
Fore
SplineSet
797 0 m 1,0,-1
 797 117 l 1,1,2
 771 97 771 97 733.5 72 c 128,-1,3
 696 47 696 47 652.5 25.5 c 128,-1,4
 609 4 609 4 561.5 -10.5 c 128,-1,5
 514 -25 514 -25 469 -25 c 0,6,7
 403 -25 403 -25 350.5 -5.5 c 128,-1,8
 298 14 298 14 261.5 54.5 c 128,-1,9
 225 95 225 95 205.5 157.5 c 128,-1,10
 186 220 186 220 186 307 c 2,11,-1
 186 862 l 1,12,-1
 43 862 l 1,13,-1
 43 932 l 1,14,-1
 295 1012 l 1,15,-1
 377 1012 l 1,16,-1
 377 346 l 2,17,18
 377 292 377 292 387.5 249 c 128,-1,19
 398 206 398 206 421.5 176 c 128,-1,20
 445 146 445 146 483 130.5 c 128,-1,21
 521 115 521 115 575 115 c 0,22,23
 606 115 606 115 638 121 c 128,-1,24
 670 127 670 127 699 136.5 c 128,-1,25
 728 146 728 146 753.5 156.5 c 128,-1,26
 779 167 779 167 797 176 c 1,27,-1
 797 862 l 1,28,-1
 653 862 l 1,29,-1
 653 932 l 1,30,-1
 903 1012 l 1,31,-1
 987 1012 l 1,32,-1
 987 131 l 2,33,34
 987 112 987 112 1000.5 100 c 128,-1,35
 1014 88 1014 88 1032 86 c 2,36,-1
 1122 80 l 1,37,-1
 1122 0 l 1,38,-1
 797 0 l 1,0,-1
EndSplineSet
EndChar

StartChar: v
Encoding: 118 118 89
Width: 1083
Flags: W
LayerCount: 2
Fore
SplineSet
954 895 m 1,0,-1
 596 0 l 1,1,-1
 463 0 l 1,2,-1
 133 895 l 1,3,-1
 20 907 l 1,4,-1
 20 987 l 1,5,-1
 473 987 l 1,6,-1
 473 907 l 1,7,-1
 375 901 l 2,8,9
 358 899 358 899 348 886 c 128,-1,10
 338 873 338 873 344 856 c 2,11,-1
 573 215 l 1,12,-1
 825 856 l 2,13,14
 832 872 832 872 823 885.5 c 128,-1,15
 814 899 814 899 797 901 c 2,16,-1
 705 907 l 1,17,-1
 705 987 l 1,18,-1
 1063 987 l 1,19,-1
 1063 907 l 1,20,-1
 954 895 l 1,0,-1
EndSplineSet
EndChar

StartChar: w
Encoding: 119 119 90
Width: 1604
Flags: W
LayerCount: 2
Fore
SplineSet
1479 895 m 1,0,-1
 1198 0 l 1,1,-1
 1053 0 l 1,2,-1
 811 766 l 1,3,-1
 541 0 l 1,4,-1
 395 0 l 1,5,-1
 133 895 l 1,6,-1
 20 907 l 1,7,-1
 20 987 l 1,8,-1
 469 987 l 1,9,-1
 469 907 l 1,10,-1
 373 901 l 2,11,12
 356 899 356 899 346.5 886 c 128,-1,13
 337 873 337 873 342 856 c 2,14,-1
 512 219 l 1,15,-1
 776 987 l 1,16,-1
 922 987 l 1,17,-1
 1159 219 l 1,18,-1
 1348 856 l 2,19,20
 1353 872 1353 872 1344.5 885.5 c 128,-1,21
 1336 899 1336 899 1319 901 c 2,22,-1
 1225 907 l 1,23,-1
 1225 987 l 1,24,-1
 1583 987 l 1,25,-1
 1583 907 l 1,26,-1
 1479 895 l 1,0,-1
EndSplineSet
EndChar

StartChar: x
Encoding: 120 120 91
Width: 1044
Flags: W
LayerCount: 2
Fore
SplineSet
584 0 m 1,0,-1
 584 80 l 1,1,-1
 653 88 l 2,2,3
 667 90 667 90 672.5 102 c 128,-1,4
 678 114 678 114 672 125 c 1,5,-1
 496 387 l 1,6,-1
 295 125 l 2,7,8
 287 116 287 116 290 103 c 128,-1,9
 293 90 293 90 307 88 c 2,10,-1
 410 80 l 1,11,-1
 410 0 l 1,12,-1
 20 0 l 1,13,-1
 20 80 l 1,14,-1
 137 96 l 1,15,-1
 430 477 l 1,16,-1
 152 889 l 1,17,-1
 31 907 l 1,18,-1
 31 987 l 1,19,-1
 481 987 l 1,20,-1
 481 907 l 1,21,-1
 410 897 l 2,22,23
 396 895 396 895 389.5 883 c 128,-1,24
 383 871 383 871 389 860 c 1,25,-1
 551 631 l 1,26,-1
 729 860 l 2,27,28
 737 869 737 869 733 882 c 128,-1,29
 729 895 729 895 715 897 c 2,30,-1
 627 907 l 1,31,-1
 627 987 l 1,32,-1
 995 987 l 1,33,-1
 995 907 l 1,34,-1
 885 889 l 1,35,-1
 610 539 l 1,36,-1
 913 96 l 1,37,-1
 1024 80 l 1,38,-1
 1024 0 l 1,39,-1
 584 0 l 1,0,-1
EndSplineSet
EndChar

StartChar: y
Encoding: 121 121 92
Width: 1085
Flags: W
LayerCount: 2
Fore
SplineSet
958 895 m 1,0,-1
 565 -63 l 2,1,2
 555 -88 555 -88 537 -130 c 128,-1,3
 519 -172 519 -172 494.5 -219.5 c 128,-1,4
 470 -267 470 -267 440.5 -313 c 128,-1,5
 411 -359 411 -359 379 -391 c 0,6,7
 342 -428 342 -428 297.5 -448.5 c 128,-1,8
 253 -469 253 -469 201 -469 c 0,9,10
 165 -469 165 -469 137 -459.5 c 128,-1,11
 109 -450 109 -450 90 -434 c 128,-1,12
 71 -418 71 -418 61 -396.5 c 128,-1,13
 51 -375 51 -375 51 -352 c 0,14,15
 51 -317 51 -317 66.5 -287.5 c 128,-1,16
 82 -258 82 -258 117 -229 c 1,17,-1
 309 -317 l 1,18,19
 334 -292 334 -292 360 -251.5 c 128,-1,20
 386 -211 386 -211 409 -166 c 128,-1,21
 432 -121 432 -121 451 -76.5 c 128,-1,22
 470 -32 470 -32 481 2 c 1,23,-1
 133 895 l 1,24,-1
 20 907 l 1,25,-1
 20 987 l 1,26,-1
 473 987 l 1,27,-1
 473 907 l 1,28,-1
 375 901 l 2,29,30
 358 899 358 899 348 886 c 128,-1,31
 338 873 338 873 344 856 c 2,32,-1
 582 252 l 1,33,-1
 825 856 l 2,34,35
 832 872 832 872 823 885.5 c 128,-1,36
 814 899 814 899 797 901 c 2,37,-1
 700 907 l 1,38,-1
 700 987 l 1,39,-1
 1065 987 l 1,40,-1
 1065 907 l 1,41,-1
 958 895 l 1,0,-1
EndSplineSet
EndChar

StartChar: z
Encoding: 122 122 93
Width: 946
Flags: W
LayerCount: 2
Fore
SplineSet
70 0 m 1,0,-1
 70 109 l 1,1,-1
 612 891 l 1,2,-1
 256 891 l 2,3,4
 241 891 241 891 229.5 876.5 c 128,-1,5
 218 862 218 862 215 848 c 1,6,-1
 195 696 l 1,7,-1
 90 696 l 1,8,-1
 90 987 l 1,9,-1
 848 987 l 1,10,-1
 848 903 l 1,11,-1
 287 98 l 1,12,-1
 700 98 l 2,13,14
 707 98 707 98 714.5 103 c 128,-1,15
 722 108 722 108 728.5 115 c 128,-1,16
 735 122 735 122 739.5 130.5 c 128,-1,17
 744 139 744 139 745 147 c 2,18,-1
 766 309 l 1,19,-1
 877 309 l 1,20,-1
 877 0 l 1,21,-1
 70 0 l 1,0,-1
EndSplineSet
EndChar

StartChar: braceleft
Encoding: 123 123 94
Width: 999
Flags: W
LayerCount: 2
Fore
SplineSet
858 -252 m 1,0,1
 804 -252 804 -252 751 -248 c 128,-1,2
 698 -244 698 -244 651 -233.5 c 128,-1,3
 604 -223 604 -223 565.5 -206 c 128,-1,4
 527 -189 527 -189 502 -162 c 0,5,6
 467 -126 467 -126 450 -83.5 c 128,-1,7
 433 -41 433 -41 425.5 6 c 128,-1,8
 418 53 418 53 418 102 c 2,9,-1
 418 278 l 2,10,11
 418 319 418 319 413 359 c 128,-1,12
 408 399 408 399 396 435 c 128,-1,13
 384 471 384 471 360 494 c 0,14,15
 342 512 342 512 319 522.5 c 128,-1,16
 296 533 296 533 267.5 539 c 128,-1,17
 239 545 239 545 203.5 547 c 128,-1,18
 168 549 168 549 123 549 c 1,19,-1
 123 641 l 1,20,21
 168 641 168 641 203.5 643 c 128,-1,22
 239 645 239 645 267.5 651 c 128,-1,23
 296 657 296 657 319 667.5 c 128,-1,24
 342 678 342 678 360 696 c 0,25,26
 384 719 384 719 396 755 c 128,-1,27
 408 791 408 791 413 831 c 128,-1,28
 418 871 418 871 418 912 c 2,29,-1
 418 1087 l 2,30,31
 418 1137 418 1137 425.5 1183.5 c 128,-1,32
 433 1230 433 1230 450 1273 c 128,-1,33
 467 1316 467 1316 502 1352 c 0,34,35
 527 1379 527 1379 565.5 1396 c 128,-1,36
 604 1413 604 1413 651 1423.5 c 128,-1,37
 698 1434 698 1434 751 1438 c 128,-1,38
 804 1442 804 1442 858 1442 c 1,39,-1
 858 1358 l 1,40,41
 845 1358 845 1358 818 1356 c 128,-1,42
 791 1354 791 1354 759.5 1348 c 128,-1,43
 728 1342 728 1342 698 1329.5 c 128,-1,44
 668 1317 668 1317 649 1296 c 0,45,46
 628 1273 628 1273 617.5 1239 c 128,-1,47
 607 1205 607 1205 603 1164.5 c 128,-1,48
 599 1124 599 1124 599.5 1080 c 128,-1,49
 600 1036 600 1036 600 993 c 0,50,51
 600 958 600 958 598.5 919.5 c 128,-1,52
 597 881 597 881 591 843.5 c 128,-1,53
 585 806 585 806 573.5 772.5 c 128,-1,54
 562 739 562 739 541 713 c 0,55,56
 500 660 500 660 443.5 635 c 128,-1,57
 387 610 387 610 324 596 c 1,58,59
 387 582 387 582 443.5 556 c 128,-1,60
 500 530 500 530 541 477 c 0,61,62
 562 451 562 451 573.5 417.5 c 128,-1,63
 585 384 585 384 591 346.5 c 128,-1,64
 597 309 597 309 598.5 270.5 c 128,-1,65
 600 232 600 232 600 197 c 0,66,67
 600 154 600 154 599.5 110 c 128,-1,68
 599 66 599 66 603 25.5 c 128,-1,69
 607 -15 607 -15 617.5 -49 c 128,-1,70
 628 -83 628 -83 649 -106 c 0,71,72
 668 -127 668 -127 698 -139.5 c 128,-1,73
 728 -152 728 -152 759.5 -158 c 128,-1,74
 791 -164 791 -164 818 -166 c 128,-1,75
 845 -168 845 -168 858 -168 c 1,76,-1
 858 -252 l 1,0,1
EndSplineSet
EndChar

StartChar: bar
Encoding: 124 124 95
Width: 724
Flags: W
LayerCount: 2
Fore
SplineSet
300 -528 m 1,0,-1
 300 1630 l 1,1,-1
 424 1630 l 1,2,-1
 424 -528 l 1,3,-1
 300 -528 l 1,0,-1
EndSplineSet
EndChar

StartChar: braceright
Encoding: 125 125 96
Width: 999
Flags: W
LayerCount: 2
Fore
SplineSet
877 549 m 1,0,1
 788 549 788 549 732 539 c 128,-1,2
 676 529 676 529 639 494 c 0,3,4
 615 471 615 471 603 435 c 128,-1,5
 591 399 591 399 586.5 359 c 128,-1,6
 582 319 582 319 582 278 c 2,7,-1
 582 102 l 2,8,9
 582 53 582 53 574.5 6 c 128,-1,10
 567 -41 567 -41 549.5 -83.5 c 128,-1,11
 532 -126 532 -126 498 -162 c 0,12,13
 472 -189 472 -189 434 -206 c 128,-1,14
 396 -223 396 -223 349 -233.5 c 128,-1,15
 302 -244 302 -244 249 -248 c 128,-1,16
 196 -252 196 -252 141 -252 c 1,17,-1
 141 -168 l 1,18,19
 154 -168 154 -168 181 -166 c 128,-1,20
 208 -164 208 -164 239.5 -158 c 128,-1,21
 271 -152 271 -152 301 -139.5 c 128,-1,22
 331 -127 331 -127 350 -106 c 0,23,24
 372 -83 372 -83 382 -49 c 128,-1,25
 392 -15 392 -15 396 25.5 c 128,-1,26
 400 66 400 66 399.5 110 c 128,-1,27
 399 154 399 154 399 197 c 0,28,29
 399 232 399 232 400.5 270.5 c 128,-1,30
 402 309 402 309 408 346.5 c 128,-1,31
 414 384 414 384 426 417.5 c 128,-1,32
 438 451 438 451 459 477 c 1,33,34
 499 530 499 530 556 556 c 128,-1,35
 613 582 613 582 676 596 c 1,36,37
 644 603 644 603 614 612 c 128,-1,38
 584 621 584 621 556 635 c 128,-1,39
 528 649 528 649 503.5 668 c 128,-1,40
 479 687 479 687 459 713 c 0,41,42
 438 739 438 739 426 772.5 c 128,-1,43
 414 806 414 806 408 843.5 c 128,-1,44
 402 881 402 881 400.5 919.5 c 128,-1,45
 399 958 399 958 399 993 c 0,46,47
 399 1036 399 1036 399.5 1080 c 128,-1,48
 400 1124 400 1124 396 1164.5 c 128,-1,49
 392 1205 392 1205 382 1239 c 128,-1,50
 372 1273 372 1273 350 1296 c 0,51,52
 331 1317 331 1317 301 1329.5 c 128,-1,53
 271 1342 271 1342 239.5 1348 c 128,-1,54
 208 1354 208 1354 181 1356 c 128,-1,55
 154 1358 154 1358 141 1358 c 1,56,-1
 141 1442 l 1,57,58
 196 1442 196 1442 249 1438 c 128,-1,59
 302 1434 302 1434 349 1423.5 c 128,-1,60
 396 1413 396 1413 434 1396 c 128,-1,61
 472 1379 472 1379 498 1352 c 0,62,63
 532 1316 532 1316 549.5 1273 c 128,-1,64
 567 1230 567 1230 574.5 1183.5 c 128,-1,65
 582 1137 582 1137 582 1087 c 2,66,-1
 582 912 l 2,67,68
 582 871 582 871 586.5 831 c 128,-1,69
 591 791 591 791 603 755 c 128,-1,70
 615 719 615 719 639 696 c 0,71,72
 676 661 676 661 732 651 c 128,-1,73
 788 641 788 641 877 641 c 1,74,-1
 877 549 l 1,0,1
EndSplineSet
EndChar

StartChar: asciitilde
Encoding: 126 126 97
Width: 1706
Flags: W
LayerCount: 2
Fore
SplineSet
1530 627 m 1,0,1
 1471 586 1471 586 1420 558.5 c 128,-1,2
 1369 531 1369 531 1322.5 514 c 128,-1,3
 1276 497 1276 497 1232.5 490 c 128,-1,4
 1189 483 1189 483 1145 483 c 0,5,6
 1072 483 1072 483 1000 504.5 c 128,-1,7
 928 526 928 526 855 552 c 128,-1,8
 782 578 782 578 707 599.5 c 128,-1,9
 632 621 632 621 553 621 c 0,10,11
 475 621 475 621 377 578.5 c 128,-1,12
 279 536 279 536 176 461 c 1,13,-1
 176 594 l 1,14,15
 286 672 286 672 384 705.5 c 128,-1,16
 482 739 482 739 565 739 c 0,17,18
 640 739 640 739 715 717.5 c 128,-1,19
 790 696 790 696 864 670.5 c 128,-1,20
 938 645 938 645 1009 623.5 c 128,-1,21
 1080 602 1080 602 1147 602 c 0,22,23
 1220 602 1220 602 1313.5 636.5 c 128,-1,24
 1407 671 1407 671 1530 760 c 1,25,-1
 1530 627 l 1,0,1
EndSplineSet
EndChar

StartChar: quoteleft
Encoding: 8216 8216 98
Width: 506
Flags: W
LayerCount: 2
Fore
SplineSet
381 1438 m 1,0,1
 356 1410 356 1410 326.5 1377 c 128,-1,2
 297 1344 297 1344 271.5 1305 c 128,-1,3
 246 1266 246 1266 228.5 1221.5 c 128,-1,4
 211 1177 211 1177 211 1126 c 0,5,6
 211 1117 211 1117 212 1106 c 128,-1,7
 213 1095 213 1095 213 1087 c 1,8,-1
 342 1087 l 1,9,10
 350 1076 350 1076 357 1064 c 0,11,12
 363 1053 363 1053 368 1038 c 128,-1,13
 373 1023 373 1023 373 1006 c 0,14,15
 373 980 373 980 364 957 c 128,-1,16
 355 934 355 934 339 917 c 128,-1,17
 323 900 323 900 300.5 890.5 c 128,-1,18
 278 881 278 881 250 881 c 0,19,20
 171 881 171 881 125.5 931 c 128,-1,21
 80 981 80 981 80 1071 c 0,22,23
 80 1146 80 1146 107.5 1208 c 128,-1,24
 135 1270 135 1270 172.5 1318.5 c 128,-1,25
 210 1367 210 1367 247.5 1400.5 c 128,-1,26
 285 1434 285 1434 305 1452 c 1,27,-1
 381 1438 l 1,0,1
EndSplineSet
EndChar

StartChar: quoteright
Encoding: 8217 8217 99
Width: 506
Flags: W
LayerCount: 2
Fore
SplineSet
426 1262 m 0,0,1
 426 1187 426 1187 398.5 1124.5 c 128,-1,2
 371 1062 371 1062 333.5 1014 c 128,-1,3
 296 966 296 966 258.5 932.5 c 128,-1,4
 221 899 221 899 201 881 c 1,5,-1
 125 897 l 1,6,7
 159 931 159 931 190.5 967 c 128,-1,8
 222 1003 222 1003 245.5 1042 c 128,-1,9
 269 1081 269 1081 282.5 1122.5 c 128,-1,10
 296 1164 296 1164 295 1208 c 0,11,12
 295 1216 295 1216 294 1226.5 c 128,-1,13
 293 1237 293 1237 293 1245 c 1,14,-1
 164 1245 l 1,15,16
 155 1255 155 1255 148 1268 c 0,17,18
 142 1279 142 1279 137.5 1294 c 128,-1,19
 133 1309 133 1309 133 1327 c 0,20,21
 133 1380 133 1380 165 1416 c 128,-1,22
 197 1452 197 1452 256 1452 c 0,23,24
 333 1452 333 1452 379.5 1401.5 c 128,-1,25
 426 1351 426 1351 426 1262 c 0,0,1
EndSplineSet
EndChar

StartChar: quotedblleft
Encoding: 8220 8220 100
Width: 928
Flags: W
LayerCount: 2
Fore
SplineSet
381 1438 m 1,0,1
 350 1407 350 1407 319.5 1372.5 c 128,-1,2
 289 1338 289 1338 265 1299 c 128,-1,3
 241 1260 241 1260 226 1217 c 128,-1,4
 211 1174 211 1174 211 1126 c 0,5,6
 211 1115 211 1115 212 1105 c 128,-1,7
 213 1095 213 1095 213 1087 c 1,8,-1
 342 1087 l 1,9,10
 350 1078 350 1078 357 1066 c 0,11,12
 363 1055 363 1055 368 1040 c 128,-1,13
 373 1025 373 1025 373 1006 c 0,14,15
 373 980 373 980 364 957 c 128,-1,16
 355 934 355 934 339 917 c 128,-1,17
 323 900 323 900 300.5 890.5 c 128,-1,18
 278 881 278 881 250 881 c 0,19,20
 171 881 171 881 125.5 932 c 128,-1,21
 80 983 80 983 80 1071 c 0,22,23
 80 1146 80 1146 107.5 1208.5 c 128,-1,24
 135 1271 135 1271 172.5 1319 c 128,-1,25
 210 1367 210 1367 247.5 1400.5 c 128,-1,26
 285 1434 285 1434 305 1452 c 1,27,-1
 381 1438 l 1,0,1
803 1438 m 1,28,29
 781 1412 781 1412 752 1380 c 128,-1,30
 723 1348 723 1348 696.5 1309 c 128,-1,31
 670 1270 670 1270 651.5 1225 c 128,-1,32
 633 1180 633 1180 633 1128 c 0,33,34
 633 1117 633 1117 634 1106 c 128,-1,35
 635 1095 635 1095 635 1087 c 1,36,-1
 764 1087 l 1,37,38
 772 1076 772 1076 779 1064 c 0,39,40
 785 1053 785 1053 790 1039 c 128,-1,41
 795 1025 795 1025 795 1008 c 0,42,43
 795 982 795 982 786 958.5 c 128,-1,44
 777 935 777 935 761 918 c 128,-1,45
 745 901 745 901 722 891 c 128,-1,46
 699 881 699 881 672 881 c 0,47,48
 591 881 591 881 546.5 934 c 128,-1,49
 502 987 502 987 502 1075 c 0,50,51
 502 1149 502 1149 529.5 1210.5 c 128,-1,52
 557 1272 557 1272 594.5 1320 c 128,-1,53
 632 1368 632 1368 669.5 1401 c 128,-1,54
 707 1434 707 1434 727 1452 c 1,55,-1
 803 1438 l 1,28,29
EndSplineSet
EndChar

StartChar: quotedblright
Encoding: 8221 8221 101
Width: 928
Flags: W
LayerCount: 2
Fore
SplineSet
426 1260 m 0,0,1
 426 1186 426 1186 398.5 1124 c 128,-1,2
 371 1062 371 1062 333.5 1014 c 128,-1,3
 296 966 296 966 258.5 932.5 c 128,-1,4
 221 899 221 899 201 881 c 1,5,-1
 125 897 l 1,6,7
 146 922 146 922 175.5 954 c 128,-1,8
 205 986 205 986 231.5 1024.5 c 128,-1,9
 258 1063 258 1063 276.5 1108 c 128,-1,10
 295 1153 295 1153 295 1204 c 0,11,12
 295 1215 295 1215 294 1226 c 128,-1,13
 293 1237 293 1237 293 1245 c 1,14,-1
 164 1245 l 1,15,16
 155 1256 155 1256 148 1269 c 0,17,18
 142 1280 142 1280 137.5 1295 c 128,-1,19
 133 1310 133 1310 133 1327 c 0,20,21
 133 1353 133 1353 142 1376 c 128,-1,22
 151 1399 151 1399 167.5 1416 c 128,-1,23
 184 1433 184 1433 207 1442.5 c 128,-1,24
 230 1452 230 1452 258 1452 c 0,25,26
 339 1452 339 1452 382.5 1400 c 128,-1,27
 426 1348 426 1348 426 1260 c 0,0,1
848 1262 m 0,28,29
 848 1187 848 1187 820.5 1124.5 c 128,-1,30
 793 1062 793 1062 755.5 1014 c 128,-1,31
 718 966 718 966 680.5 932.5 c 128,-1,32
 643 899 643 899 623 881 c 1,33,-1
 547 897 l 1,34,35
 578 928 578 928 608.5 962.5 c 128,-1,36
 639 997 639 997 663.5 1035.5 c 128,-1,37
 688 1074 688 1074 703.5 1117 c 128,-1,38
 719 1160 719 1160 719 1208 c 0,39,40
 719 1219 719 1219 717 1228 c 128,-1,41
 715 1237 715 1237 715 1245 c 1,42,-1
 586 1245 l 1,43,44
 577 1255 577 1255 570 1268 c 0,45,46
 564 1279 564 1279 559.5 1294 c 128,-1,47
 555 1309 555 1309 555 1329 c 0,48,49
 555 1382 555 1382 588.5 1417 c 128,-1,50
 622 1452 622 1452 678 1452 c 0,51,52
 756 1452 756 1452 802 1400.5 c 128,-1,53
 848 1349 848 1349 848 1262 c 0,28,29
EndSplineSet
EndChar

StartChar: u0950
Encoding: 2384 2384 102
Width: 2136
Flags: W
LayerCount: 2
Fore
SplineSet
1307 1408 m 1,0,1
 1314 1392 1314 1392 1316 1371 c 1,2,-1
 1312 1345 l 1,3,-1
 1301 1326 l 1,4,-1
 1072 1261 l 1,5,-1
 1058 1293 l 1,6,-1
 1241 1441 l 1,7,-1
 1256 1443 l 1,8,9
 1270 1443 1270 1443 1281.5 1437 c 128,-1,10
 1293 1431 1293 1431 1307 1408 c 1,0,1
1617 1307 m 1,11,12
 1543 1176 1543 1176 1425 1105.5 c 128,-1,13
 1307 1035 1307 1035 1145 1035 c 0,14,15
 996 1035 996 1035 875 1135 c 0,16,17
 787 1207 787 1207 723 1328 c 1,18,-1
 797 1368 l 1,19,20
 868 1237 868 1237 967 1173 c 1,21,22
 1052 1120 1052 1120 1145 1120 c 0,23,24
 1283 1120 1283 1120 1379.5 1176 c 128,-1,25
 1476 1232 1476 1232 1543 1346 c 1,26,-1
 1617 1307 l 1,11,12
709 572 m 1,27,28
 641 542 641 542 549 521 c 1,29,-1
 475 509 l 1,30,-1
 470 595 l 1,31,32
 498 595 498 595 512 597 c 128,-1,33
 526 599 526 599 559 606 c 0,34,35
 664 627 664 627 727 670 c 0,36,37
 816 730 816 730 816 829 c 0,38,39
 816 908 816 908 766 971 c 0,40,41
 703 1049 703 1049 584 1049 c 0,42,43
 512 1049 512 1049 452 1026 c 1,44,-1
 307 958 l 1,45,-1
 285 1037 l 1,46,47
 370 1084 370 1084 439 1109 c 128,-1,48
 508 1134 508 1134 584 1134 c 0,49,50
 747 1134 747 1134 833 1027 c 0,51,52
 900 943 900 943 900 829 c 0,53,54
 900 764 900 764 872.5 714 c 128,-1,55
 845 664 845 664 792 621 c 1,56,57
 821 603 821 603 857 571 c 1,58,59
 897 532 897 532 923 491 c 1,60,61
 948 458 948 458 988.5 436.5 c 128,-1,62
 1029 415 1029 415 1076 415 c 0,63,64
 1160 415 1160 415 1232 539 c 1,65,66
 1251 579 1251 579 1272 619 c 0,67,68
 1286 645 1286 645 1304 675 c 1,69,70
 1371 796 1371 796 1439 856 c 0,71,72
 1528 933 1528 933 1649 933 c 0,73,74
 1798 933 1798 933 1891 817 c 0,75,76
 2003 677 2003 677 2003 494 c 0,77,78
 2003 387 2003 387 1942 287 c 0,79,80
 1853 143 1853 143 1683 143 c 0,81,82
 1511 143 1511 143 1408 250 c 1,83,84
 1334 325 1334 325 1304 452 c 1,85,-1
 1389 468 l 1,86,87
 1410 376 1410 376 1468 313 c 1,88,89
 1549 228 1549 228 1683 228 c 0,90,91
 1807 228 1807 228 1872 337 c 1,92,93
 1916 414 1916 414 1916 493 c 0,94,95
 1916 647 1916 647 1838 752 c 0,96,97
 1769 845 1769 845 1649 845 c 0,98,99
 1575 845 1575 845 1517 808 c 1,100,101
 1452 765 1452 765 1377 631 c 1,102,-1
 1295 487 l 1,103,104
 1249 410 1249 410 1200 373 c 1,105,106
 1142 326 1142 326 1077 326 c 1,107,-1
 1024 330 l 2,108,109
 1010 332 1010 332 996 336.5 c 128,-1,110
 982 341 982 341 968 348 c 1,111,-1
 970 316 l 1,112,-1
 970 286 l 2,113,114
 970 139 970 139 879 65 c 1,115,116
 801 3 801 3 667 3 c 0,117,118
 515 3 515 3 385 98 c 0,119,120
 290 168 290 168 207 292 c 1,121,122
 163 362 163 362 123 448 c 1,123,-1
 202 483 l 1,124,125
 286 293 286 293 404 190.5 c 128,-1,126
 522 88 522 88 668 88 c 0,127,128
 764 88 764 88 820 131 c 0,129,130
 885 181 885 181 885 286 c 0,131,132
 885 403 885 403 817 484 c 1,133,134
 784 521 784 521 709 572 c 1,27,28
EndSplineSet
EndChar

StartChar: u0C01
Encoding: 3073 3073 103
Width: 949
Flags: W
LayerCount: 2
Fore
SplineSet
805 350 m 1,0,1
 769 180 769 180 694 96 c 0,2,3
 610 1 610 1 463 1 c 0,4,5
 311 1 311 1 223 141 c 0,6,7
 184 204 184 204 164.5 281.5 c 128,-1,8
 145 359 145 359 145 457 c 0,9,10
 145 654 145 654 226 791 c 1,11,12
 328 960 328 960 523 960 c 1,13,-1
 523 860 l 1,14,15
 374 860 374 860 295 726 c 1,16,17
 233 617 233 617 233 458 c 0,18,19
 233 320 233 320 293 217 c 0,20,21
 358 104 358 104 464 104 c 0,22,23
 574 104 574 104 638 178 c 0,24,25
 692 240 692 240 725 382 c 1,26,-1
 805 350 l 1,0,1
EndSplineSet
AnchorPoint: "BR" -69 188 mark 0
EndChar

StartChar: u0C03
Encoding: 3075 3075 105
Width: 676
Flags: W
LayerCount: 2
Fore
SplineSet
506 653 m 256,0,1
 506 582 506 582 456 532 c 128,-1,2
 406 482 406 482 336 482 c 0,3,4
 265 482 265 482 215 532 c 128,-1,5
 165 582 165 582 165 653 c 256,6,7
 165 724 165 724 215 774 c 128,-1,8
 265 824 265 824 336 824 c 0,9,10
 403 824 403 824 454.5 774 c 128,-1,11
 506 724 506 724 506 653 c 256,0,1
506 191 m 0,12,13
 506 123 506 123 456.5 71.5 c 128,-1,14
 407 20 407 20 336 20 c 256,15,16
 265 20 265 20 215 70 c 128,-1,17
 165 120 165 120 165 191 c 256,18,19
 165 262 165 262 215 312 c 128,-1,20
 265 362 265 362 336 362 c 0,21,22
 403 362 403 362 454.5 312 c 128,-1,23
 506 262 506 262 506 191 c 0,12,13
421 652 m 0,24,25
 421 689 421 689 397.5 712.5 c 128,-1,26
 374 736 374 736 337 736 c 0,27,28
 301 736 301 736 276 712.5 c 128,-1,29
 251 689 251 689 251 652 c 0,30,31
 251 616 251 616 274 591 c 1,32,33
 300 568 300 568 336 568 c 256,34,35
 372 568 372 568 396.5 592.5 c 128,-1,36
 421 617 421 617 421 652 c 0,24,25
421 192 m 0,37,38
 421 228 421 228 396.5 253 c 128,-1,39
 372 278 372 278 336 278 c 0,40,41
 303 278 303 278 276.5 253 c 128,-1,42
 250 228 250 228 250 192 c 256,43,44
 250 156 250 156 273 131 c 1,45,46
 299 108 299 108 335 108 c 256,47,48
 371 108 371 108 395.5 132 c 128,-1,49
 420 156 420 156 421 192 c 0,37,38
EndSplineSet
AnchorPoint: "BR" -69 188 mark 0
EndChar

StartChar: u0C05
Encoding: 3077 3077 106
Width: 1519
Flags: W
LayerCount: 2
Fore
SplineSet
550 763 m 0,0,1
 550 803 550 803 526.5 831 c 128,-1,2
 503 859 503 859 466 859 c 0,3,4
 431 859 431 859 405.5 831 c 128,-1,5
 380 803 380 803 380 763 c 0,6,7
 380 721 380 721 405 692 c 128,-1,8
 430 663 430 663 466 663 c 0,9,10
 503 663 503 663 526.5 691 c 128,-1,11
 550 719 550 719 550 763 c 0,0,1
877 442 m 1,12,13
 834 493 834 493 814 553.5 c 128,-1,14
 794 614 794 614 794 675 c 0,15,16
 794 792 794 792 860.5 875 c 128,-1,17
 927 958 927 958 1034 958 c 0,18,19
 1167 958 1167 958 1259 865 c 1,20,21
 1375 745 1375 745 1375 506 c 0,22,23
 1375 260 1375 260 1167 119 c 1,24,25
 991 1 991 1 766 1 c 0,26,27
 523 1 523 1 351 114 c 0,28,29
 144 251 144 251 144 507 c 0,30,31
 144 752 144 752 268 872 c 0,32,33
 359 960 359 960 468 960 c 0,34,35
 539 960 539 960 588 903 c 128,-1,36
 637 846 637 846 637 764 c 0,37,38
 637 686 637 686 587 626 c 128,-1,39
 537 566 537 566 466 566 c 0,40,41
 394 566 394 566 344.5 623 c 128,-1,42
 295 680 295 680 295 764 c 1,43,44
 266 731 266 731 249.5 662.5 c 128,-1,45
 233 594 233 594 233 509 c 0,46,47
 233 299 233 299 413 190 c 1,48,49
 558 104 558 104 768 104 c 0,50,51
 962 104 962 104 1110 193 c 0,52,53
 1292 303 1292 303 1292 508 c 0,54,55
 1292 688 1292 688 1207 783 c 0,56,57
 1137 860 1137 860 1037 860 c 0,58,59
 970 860 970 860 927.5 804 c 128,-1,60
 885 748 885 748 885 666 c 0,61,62
 885 603 885 603 914 544.5 c 128,-1,63
 943 486 943 486 1003 443 c 1,64,-1
 1109 443 l 1,65,-1
 1109 347 l 1,66,-1
 418 347 l 1,67,-1
 418 443 l 1,68,-1
 877 442 l 1,12,13
EndSplineSet
EndChar

StartChar: u0C06
Encoding: 3078 3078 107
Width: 1479
Flags: W
LayerCount: 2
Fore
SplineSet
1143 510 m 1,0,1
 1192 533 1192 533 1220.5 593 c 128,-1,2
 1249 653 1249 653 1249 720 c 256,3,4
 1249 787 1249 787 1184 826 c 1,5,6
 1131 856 1131 856 1073 856 c 0,7,8
 1012 856 1012 856 965 830 c 0,9,10
 900 794 900 794 900 720 c 0,11,12
 900 636 900 636 978 580 c 0,13,14
 1036 538 1036 538 1143 510 c 1,0,1
527 760 m 0,15,16
 527 799 527 799 502 827.5 c 128,-1,17
 477 856 477 856 441 856 c 0,18,19
 408 856 408 856 382.5 828 c 128,-1,20
 357 800 357 800 357 760 c 0,21,22
 357 717 357 717 381.5 688.5 c 128,-1,23
 406 660 406 660 442 660 c 0,24,25
 479 660 479 660 503.5 688.5 c 128,-1,26
 528 717 528 717 527 760 c 0,15,16
394 474 m 1,27,-1
 993 474 l 1,28,29
 922 492 922 492 875 550 c 0,30,31
 817 620 817 620 817 719 c 0,32,33
 817 847 817 847 910 910 c 1,34,35
 980 956 980 956 1076 956 c 0,36,37
 1164 956 1164 956 1242 903 c 1,38,39
 1338 836 1338 836 1338 719 c 0,40,41
 1338 637 1338 637 1316 568 c 128,-1,42
 1294 499 1294 499 1248 457 c 1,43,44
 1274 427 1274 427 1289 388 c 128,-1,45
 1304 349 1304 349 1304 306 c 0,46,47
 1304 136 1304 136 1107 58 c 1,48,49
 959 1 959 1 714 1 c 0,50,51
 479 1 479 1 313 118 c 1,52,53
 122 255 122 255 122 506 c 0,54,55
 122 742 122 742 236 865 c 1,56,57
 325 958 325 958 441 958 c 0,58,59
 513 958 513 958 562.5 901 c 128,-1,60
 612 844 612 844 612 762 c 0,61,62
 612 684 612 684 562 624 c 128,-1,63
 512 564 512 564 441 564 c 0,64,65
 369 564 369 564 319.5 621 c 128,-1,66
 270 678 270 678 270 762 c 2,67,-1
 270 767 l 1,68,69
 244 730 244 730 226 659 c 128,-1,70
 208 588 208 588 208 507 c 0,71,72
 208 309 208 309 374 197 c 1,73,74
 518 102 518 102 715 102 c 0,75,76
 920 102 920 102 1046 141 c 0,77,78
 1218 194 1218 194 1218 307 c 0,79,80
 1218 340 1218 340 1206.5 360 c 128,-1,81
 1195 380 1195 380 1167 401 c 1,82,-1
 1082 382 l 1,83,-1
 1028 375 l 1,84,-1
 396 375 l 1,85,-1
 394 474 l 1,27,-1
EndSplineSet
EndChar

StartChar: u0C07
Encoding: 3079 3079 108
Width: 1230
Flags: W
LayerCount: 2
Fore
SplineSet
1086 571 m 0,0,1
 1086 542 1086 542 1082 508.5 c 128,-1,2
 1078 475 1078 475 1069 436 c 0,3,4
 1053 364 1053 364 1014 297 c 1,5,6
 1076 192 1076 192 1076 40 c 0,7,8
 1076 -70 1076 -70 1022 -141 c 1,9,10
 976 -199 976 -199 902 -211 c 1,11,-1
 891 -113 l 1,12,13
 932 -106 932 -106 961 -67 c 128,-1,14
 990 -28 990 -28 990 42 c 0,15,16
 990 89 990 89 982 131 c 1,17,18
 980 147 980 147 974 170 c 128,-1,19
 968 193 968 193 960 212 c 1,20,21
 885 117 885 117 786 64 c 0,22,23
 672 3 672 3 535 3 c 0,24,25
 379 3 379 3 288.5 80.5 c 128,-1,26
 198 158 198 158 198 278 c 0,27,28
 198 377 198 377 293 463 c 0,29,30
 398 559 398 559 547 559 c 0,31,32
 646 559 646 559 755 518 c 1,33,34
 876 471 876 471 958 381 c 1,35,36
 979 425 979 425 991.5 478.5 c 128,-1,37
 1004 532 1004 532 1004 572 c 0,38,39
 1004 698 1004 698 944 779 c 128,-1,40
 884 860 884 860 800 860 c 0,41,42
 728 860 728 860 684 816 c 1,43,44
 644 779 644 779 635 719 c 1,45,-1
 549 719 l 1,46,47
 549 775 549 775 500 818 c 128,-1,48
 451 861 451 861 372 861 c 0,49,50
 312 861 312 861 275 831 c 128,-1,51
 238 801 238 801 238 751 c 0,52,53
 238 728 238 728 242 706 c 128,-1,54
 246 684 246 684 257 658 c 1,55,56
 259 646 259 646 277 618 c 1,57,-1
 207 558 l 1,58,-1
 179 618 l 1,59,60
 150 693 150 693 150 753 c 0,61,62
 150 838 150 838 212.5 901 c 128,-1,63
 275 964 275 964 370 964 c 0,64,65
 447 964 447 964 501.5 932.5 c 128,-1,66
 556 901 556 901 593 847 c 1,67,68
 625 897 625 897 674 929 c 1,69,70
 731 964 731 964 801 964 c 0,71,72
 918 964 918 964 1004 856.5 c 128,-1,73
 1090 749 1090 749 1086 571 c 0,0,1
910 300 m 1,74,75
 847 382 847 382 734 428 c 0,76,77
 642 465 642 465 547 465 c 0,78,79
 435 465 435 465 357 405 c 0,80,81
 285 349 285 349 285 279 c 0,82,83
 285 201 285 201 352 153 c 128,-1,84
 419 105 419 105 536 105 c 0,85,86
 659 105 659 105 759 162 c 1,87,88
 848 211 848 211 910 300 c 1,74,75
EndSplineSet
EndChar

StartChar: u0C08
Encoding: 3080 3080 109
Width: 2015
Flags: W
LayerCount: 2
Fore
SplineSet
1786 298 m 0,0,1
 1786 382 1786 382 1734.5 447.5 c 128,-1,2
 1683 513 1683 513 1609 513 c 0,3,4
 1537 513 1537 513 1484.5 448 c 128,-1,5
 1432 383 1432 383 1432 298 c 0,6,7
 1432 216 1432 216 1483 159 c 128,-1,8
 1534 102 1534 102 1609 102 c 0,9,10
 1683 102 1683 102 1734.5 157.5 c 128,-1,11
 1786 213 1786 213 1786 298 c 0,0,1
996 610 m 1,12,13
 960 716 960 716 885 783 c 1,14,15
 803 858 803 858 708 858 c 256,16,17
 613 858 613 858 531 784 c 1,18,19
 459 717 459 717 418 610 c 1,20,-1
 996 610 l 1,12,13
1022 514 m 1,21,-1
 398 514 l 1,22,23
 398 328 398 328 482.5 215 c 128,-1,24
 567 102 567 102 709 102 c 0,25,26
 844 102 844 102 932 219.5 c 128,-1,27
 1020 337 1020 337 1022 514 c 1,21,-1
634 952 m 1,28,29
 587 968 587 968 536 1018 c 1,30,31
 501 1055 501 1055 478 1092 c 1,32,-1
 557 1143 l 1,33,-1
 617 1079 l 1,34,35
 668 1035 668 1035 708 1035 c 0,36,37
 786 1035 786 1035 861 1123 c 1,38,-1
 996 1289 l 1,39,40
 1089 1378 1089 1378 1206 1378 c 2,41,-1
 1364 1378 l 1,42,-1
 1364 1266 l 1,43,-1
 1203 1266 l 2,44,45
 1124 1266 1124 1266 1056 1198 c 1,46,-1
 940 1057 l 1,47,48
 868 972 868 972 790 947 c 1,49,50
 896 918 896 918 975 825 c 128,-1,51
 1054 732 1054 732 1087 609 c 1,52,-1
 1609 609 l 2,53,54
 1660 609 1660 609 1704 642 c 0,55,56
 1755 681 1755 681 1755 746 c 0,57,58
 1755 797 1755 797 1708.5 838 c 128,-1,59
 1662 879 1662 879 1611 879 c 0,60,61
 1537 879 1537 879 1488 842 c 1,62,63
 1448 809 1448 809 1448 766 c 1,64,-1
 1363 771 l 1,65,66
 1371 849 1371 849 1421 906 c 1,67,68
 1489 978 1489 978 1610 978 c 0,69,70
 1696 978 1696 978 1768.5 905.5 c 128,-1,71
 1841 833 1841 833 1841 745 c 0,72,73
 1841 688 1841 688 1816.5 635.5 c 128,-1,74
 1792 583 1792 583 1752 555 c 1,75,76
 1803 518 1803 518 1835.5 445.5 c 128,-1,77
 1868 373 1868 373 1868 296 c 0,78,79
 1868 173 1868 173 1791 85.5 c 128,-1,80
 1714 -2 1714 -2 1605 -2 c 0,81,82
 1498 -2 1498 -2 1420.5 86 c 128,-1,83
 1343 174 1343 174 1343 295 c 0,84,85
 1343 358 1343 358 1361 414 c 0,86,87
 1370 442 1370 442 1383 467 c 128,-1,88
 1396 492 1396 492 1412 510 c 1,89,-1
 1099 510 l 1,90,91
 1099 292 1099 292 987.5 144.5 c 128,-1,92
 876 -3 876 -3 703 -3 c 256,93,94
 530 -3 530 -3 417.5 141 c 128,-1,95
 305 285 305 285 305 510 c 1,96,-1
 147 510 l 1,97,-1
 147 606 l 1,98,-1
 319 606 l 1,99,100
 352 732 352 732 436.5 826.5 c 128,-1,101
 521 921 521 921 634 952 c 1,28,29
EndSplineSet
EndChar

StartChar: u0C09
Encoding: 3081 3081 110
Width: 1671
Flags: W
LayerCount: 2
Fore
SplineSet
1528 618 m 1,0,-1
 453 618 l 1,1,2
 434 586 434 586 419 537 c 1,3,4
 414 517 414 517 410 491.5 c 128,-1,5
 406 466 406 466 406 443 c 0,6,7
 406 263 406 263 457 181 c 0,8,9
 480 144 480 144 514 124.5 c 128,-1,10
 548 105 548 105 595 105 c 0,11,12
 690 105 690 105 750 200 c 1,13,-1
 810 327 l 1,14,-1
 884 327 l 1,15,-1
 937 200 l 1,16,17
 995 105 995 105 1094 105 c 0,18,19
 1186 105 1186 105 1240 173 c 0,20,21
 1286 230 1286 230 1286 298 c 1,22,-1
 1282 348 l 1,23,24
 1278 370 1278 370 1260 385 c 1,25,26
 1260 311 1260 311 1212.5 259.5 c 128,-1,27
 1165 208 1165 208 1100 208 c 0,28,29
 1039 208 1039 208 990 259.5 c 128,-1,30
 941 311 941 311 941 385 c 0,31,32
 941 463 941 463 987 520 c 128,-1,33
 1033 577 1033 577 1100 577 c 0,34,35
 1244 577 1244 577 1319 467 c 1,36,37
 1372 386 1372 386 1372 297 c 0,38,39
 1372 191 1372 191 1316 110 c 0,40,41
 1241 3 1241 3 1094 3 c 0,42,43
 1019 3 1019 3 963 39 c 1,44,45
 894 85 894 85 844 188 c 1,46,47
 790 83 790 83 725 40 c 0,48,49
 668 3 668 3 597 3 c 0,50,51
 469 3 469 3 398 96 c 1,52,53
 320 203 320 203 320 442 c 0,54,55
 320 486 320 486 328 530 c 0,56,57
 330 545 330 545 337 570.5 c 128,-1,58
 344 596 344 596 351 617 c 1,59,-1
 147 617 l 1,60,-1
 147 698 l 1,61,-1
 387 698 l 1,62,63
 454 811 454 811 566.5 881.5 c 128,-1,64
 679 952 679 952 805 952 c 1,65,-1
 805 1157 l 1,66,-1
 891 1157 l 1,67,-1
 891 954 l 1,68,69
 979 954 979 954 1065 919 c 1,70,71
 1125 896 1125 896 1193 849 c 1,72,-1
 1153 764 l 1,73,74
 1088 803 1088 803 1026 826 c 0,75,76
 986 840 986 840 940 848 c 128,-1,77
 894 856 894 856 850 856 c 0,78,79
 751 856 751 856 659 815.5 c 128,-1,80
 567 775 567 775 499 697 c 1,81,-1
 1532 697 l 1,82,-1
 1528 618 l 1,0,-1
1182 388 m 0,83,84
 1182 423 1182 423 1160 448 c 128,-1,85
 1138 473 1138 473 1108 473 c 0,86,87
 1079 473 1079 473 1056 448 c 1,88,89
 1035 423 1035 423 1035 388 c 0,90,91
 1035 355 1035 355 1057 328.5 c 128,-1,92
 1079 302 1079 302 1108 302 c 0,93,94
 1136 302 1136 302 1161 327 c 1,95,96
 1183 353 1183 353 1182 388 c 0,83,84
EndSplineSet
EndChar

StartChar: u0C0A
Encoding: 3082 3082 111
Width: 2251
Flags: W
LayerCount: 2
Fore
SplineSet
2021 393 m 0,0,1
 2021 477 2021 477 1969.5 537.5 c 128,-1,2
 1918 598 1918 598 1844 598 c 256,3,4
 1770 598 1770 598 1718.5 538 c 128,-1,5
 1667 478 1667 478 1667 393 c 256,6,7
 1667 308 1667 308 1718 250 c 128,-1,8
 1769 192 1769 192 1844 192 c 0,9,10
 1914 192 1914 192 1967.5 251 c 128,-1,11
 2021 310 2021 310 2021 393 c 0,0,1
1179 389 m 0,12,13
 1179 424 1179 424 1157 449 c 128,-1,14
 1135 474 1135 474 1105 474 c 0,15,16
 1076 474 1076 474 1053 449 c 1,17,18
 1032 424 1032 424 1032 389 c 0,19,20
 1032 356 1032 356 1054 329.5 c 128,-1,21
 1076 303 1076 303 1105 303 c 0,22,23
 1133 303 1133 303 1158 328 c 1,24,25
 1180 354 1180 354 1179 389 c 0,12,13
443 611 m 1,26,-1
 415 529 l 1,27,28
 407 489 407 489 407 441 c 0,29,30
 407 265 407 265 463 179 c 0,31,32
 512 103 512 103 598 103 c 0,33,34
 693 103 693 103 753 198 c 1,35,-1
 813 325 l 1,36,-1
 887 325 l 1,37,-1
 920 236 l 1,38,39
 978 101 978 101 1097 101 c 0,40,41
 1189 101 1189 101 1243 165 c 0,42,43
 1289 219 1289 219 1289 286 c 0,44,45
 1289 301 1289 301 1289 317 c 1,46,47
 1285 332 1285 332 1282.5 347 c 128,-1,48
 1280 362 1280 362 1264 383 c 1,49,50
 1264 309 1264 309 1216.5 257.5 c 128,-1,51
 1169 206 1169 206 1104 206 c 0,52,53
 1043 206 1043 206 994 257.5 c 128,-1,54
 945 309 945 309 945 383 c 0,55,56
 945 461 945 461 991 518 c 128,-1,57
 1037 575 1037 575 1104 575 c 0,58,59
 1238 575 1238 575 1316 470 c 1,60,61
 1376 385 1376 385 1376 283 c 0,62,63
 1376 184 1376 184 1312 102 c 0,64,65
 1231 0 1231 0 1098 0 c 0,66,67
 1023 0 1023 0 967 36 c 1,68,69
 898 82 898 82 848 185 c 1,70,71
 794 80 794 80 729 37 c 0,72,73
 672 0 672 0 601 0 c 0,74,75
 482 0 482 0 410 93 c 1,76,77
 324 207 324 207 324 439 c 0,78,79
 324 459 324 459 325 480 c 128,-1,80
 326 501 326 501 330 522.5 c 128,-1,81
 334 544 334 544 336.5 556.5 c 128,-1,82
 339 569 339 569 351 609 c 1,83,-1
 157 609 l 1,84,-1
 157 693 l 1,85,-1
 390 693 l 1,86,87
 439 775 439 775 516 835.5 c 128,-1,88
 593 896 593 896 688 926 c 1,89,-1
 688 1154 l 1,90,-1
 774 1154 l 1,91,-1
 774 946 l 1,92,-1
 863 950 l 1,93,-1
 945 946 l 1,94,-1
 945 1154 l 1,95,-1
 1030 1154 l 1,96,-1
 1030 923 l 1,97,98
 1080 908 1080 908 1137 882 c 0,99,100
 1155 873 1155 873 1172.5 863.5 c 128,-1,101
 1190 854 1190 854 1218 836 c 1,102,-1
 1174 751 l 1,103,104
 1114 791 1114 791 1044 817 c 0,105,106
 945 854 945 854 850 854 c 0,107,108
 748 854 748 854 655 811.5 c 128,-1,109
 562 769 562 769 495 692 c 1,110,-1
 1846 692 l 2,111,112
 1900 692 1900 692 1942 721 c 0,113,114
 1993 757 1993 757 1993 822 c 0,115,116
 1993 875 1993 875 1947.5 919.5 c 128,-1,117
 1902 964 1902 964 1848 964 c 0,118,119
 1771 964 1771 964 1728 930.5 c 128,-1,120
 1685 897 1685 897 1685 853 c 1,121,-1
 1600 853 l 1,122,123
 1600 930 1600 930 1656 990 c 0,124,125
 1724 1062 1724 1062 1848 1062 c 0,126,127
 1934 1062 1934 1062 2006 988 c 0,128,129
 2043 951 2043 951 2060.5 911.5 c 128,-1,130
 2078 872 2078 872 2078 823 c 0,131,132
 2078 763 2078 763 2052.5 720.5 c 128,-1,133
 2027 678 2027 678 1981 649 c 1,134,135
 2037 609 2037 609 2072 538.5 c 128,-1,136
 2107 468 2107 468 2107 390 c 0,137,138
 2107 267 2107 267 2030 179.5 c 128,-1,139
 1953 92 1953 92 1844 92 c 256,140,141
 1735 92 1735 92 1657.5 180 c 128,-1,142
 1580 268 1580 268 1580 389 c 0,143,144
 1580 450 1580 450 1600 506.5 c 128,-1,145
 1620 563 1620 563 1663 607 c 1,146,-1
 443 611 l 1,26,-1
EndSplineSet
EndChar

StartChar: u0C0C
Encoding: 3084 3084 113
Width: 1537
Flags: W
LayerCount: 2
Fore
SplineSet
1393 347 m 1,0,1
 1393 32 1393 32 1274 -170 c 1,2,3
 1133 -412 1133 -412 860 -412 c 0,4,5
 639 -412 639 -412 526 -281 c 1,6,7
 437 -175 437 -175 437 -26 c 0,8,9
 437 102 437 102 543 202 c 1,10,-1
 674 307 l 1,11,-1
 835 426 l 1,12,13
 877 463 877 463 917 527 c 0,14,15
 938 559 938 559 938 619 c 0,16,17
 938 689 938 689 908 733 c 0,18,19
 869 789 869 789 795 789 c 0,20,21
 720 789 720 789 669 712 c 1,22,-1
 619 603 l 1,23,-1
 551 603 l 1,24,-1
 500 710 l 1,25,26
 446 788 446 788 347 788 c 0,27,28
 300 788 300 788 268 770.5 c 128,-1,29
 236 753 236 753 236 720 c 0,30,31
 236 680 236 680 250 633 c 1,32,-1
 263 593 l 1,33,-1
 189 547 l 1,34,-1
 170 603 l 1,35,36
 149 673 149 673 149 722 c 0,37,38
 149 789 149 789 204 840 c 128,-1,39
 259 891 259 891 347 891 c 0,40,41
 445 891 445 891 510 830 c 1,42,43
 546 798 546 798 586 726 c 1,44,45
 607 790 607 790 651 833 c 0,46,47
 709 891 709 891 795 891 c 0,48,49
 916 891 916 891 979 799 c 0,50,51
 1029 725 1029 725 1029 618 c 0,52,53
 1029 567 1029 567 1015 530 c 1,54,55
 973 427 973 427 892 356 c 1,56,-1
 709 219 l 1,57,-1
 581 117 l 1,58,59
 524 57 524 57 524 -24 c 0,60,61
 524 -137 524 -137 596 -214 c 0,62,63
 687 -310 687 -310 860 -310 c 0,64,65
 1085 -310 1085 -310 1206 -100 c 1,66,67
 1306 76 1306 76 1306 349 c 0,68,69
 1306 438 1306 438 1295 513.5 c 128,-1,70
 1284 589 1284 589 1258 670 c 0,71,72
 1197 860 1197 860 1092 860 c 1,73,-1
 1092 980 l 1,74,75
 1239 980 1239 980 1324 748 c 1,76,77
 1392 559 1392 559 1393 347 c 1,0,1
EndSplineSet
EndChar

StartChar: u0C0E
Encoding: 3086 3086 114
Width: 1192
Flags: W
LayerCount: 2
Fore
SplineSet
550 74 m 1,0,1
 518 40 518 40 475 20 c 1,2,3
 432 2 432 2 385 2 c 0,4,5
 285 2 285 2 211 84.5 c 128,-1,6
 137 167 137 167 137 283 c 0,7,8
 137 400 137 400 206 486 c 128,-1,9
 275 572 275 572 374 572 c 0,10,11
 526 572 526 572 591 451 c 1,12,-1
 676 226 l 1,13,14
 734 103 734 103 874 103 c 0,15,16
 978 103 978 103 1041 209 c 1,17,18
 1087 290 1087 290 1110 435 c 1,19,20
 1115 478 1115 478 1119 532.5 c 128,-1,21
 1123 587 1123 587 1123 637 c 0,22,23
 1123 798 1123 798 1066 968 c 1,24,25
 995 1187 995 1187 855 1320 c 0,26,27
 682 1485 682 1485 433 1485 c 1,28,-1
 338 1481 l 1,29,30
 296 1477 296 1477 242 1465 c 1,31,-1
 226 1564 l 1,32,33
 342 1586 342 1586 437 1586 c 0,34,35
 716 1586 716 1586 909 1403 c 0,36,37
 1064 1256 1064 1256 1145 1010 c 0,38,39
 1209 813 1209 813 1209 637 c 0,40,41
 1209 490 1209 490 1195 397 c 0,42,43
 1170 227 1170 227 1106 130 c 0,44,45
 1021 3 1021 3 873 3 c 0,46,47
 693 3 693 3 615 124 c 1,48,-1
 531 349 l 2,49,50
 485 472 485 472 372 472 c 0,51,52
 307 472 307 472 264.5 417 c 128,-1,53
 222 362 222 362 222 284 c 0,54,55
 222 207 222 207 270 154 c 128,-1,56
 318 101 318 101 383 101 c 0,57,58
 422 101 422 101 456 119.5 c 128,-1,59
 490 138 490 138 512 171 c 1,60,-1
 550 74 l 1,0,1
EndSplineSet
EndChar

StartChar: u0C0F
Encoding: 3087 3087 115
Width: 1365
Flags: W
LayerCount: 2
Fore
SplineSet
667 1568 m 1,0,1
 576 1568 576 1568 513 1538 c 1,2,3
 425 1498 425 1498 381 1392 c 1,4,5
 366 1350 366 1350 355 1301 c 1,6,7
 348 1250 348 1250 348 1201 c 0,8,9
 348 1151 348 1151 356 1093 c 2,10,-1
 367 1022 l 1,11,-1
 282 1022 l 1,12,-1
 268 1128 l 1,13,-1
 264 1210 l 1,14,15
 264 1240 264 1240 265 1268.5 c 128,-1,16
 266 1297 266 1297 272 1337.5 c 128,-1,17
 278 1378 278 1378 300 1432 c 0,18,19
 354 1565 354 1565 466 1623 c 0,20,21
 508 1644 508 1644 557.5 1655 c 128,-1,22
 607 1666 607 1666 665 1666 c 1,23,-1
 667 1568 l 1,0,1
886 0 m 1,24,25
 707 0 707 0 628 121 c 1,26,-1
 540 346 l 2,27,28
 491 469 491 469 379 469 c 0,29,30
 314 469 314 469 271.5 414 c 128,-1,31
 229 359 229 359 229 281 c 0,32,33
 229 204 229 204 277 151 c 128,-1,34
 325 98 325 98 392 98 c 0,35,36
 431 98 431 98 464.5 116.5 c 128,-1,37
 498 135 498 135 520 168 c 1,38,-1
 556 73 l 1,39,40
 489 -1 489 -1 391 -1 c 0,41,42
 289 -1 289 -1 215 81.5 c 128,-1,43
 141 164 141 164 141 280 c 0,44,45
 141 397 141 397 210 483 c 128,-1,46
 279 569 279 569 378 569 c 0,47,48
 532 569 532 569 599 448 c 1,49,-1
 685 223 l 1,50,51
 743 100 743 100 884 100 c 0,52,53
 1008 100 1008 100 1075 209 c 0,54,55
 1133 305 1133 305 1133 471 c 0,56,57
 1133 567 1133 567 1112 670 c 1,58,59
 1066 913 1066 913 924 1072 c 1,60,61
 769 1248 769 1248 559 1248 c 1,62,-1
 554 1346 l 1,63,-1
 576 1347 l 1,64,-1
 594 1347 l 2,65,66
 815 1347 815 1347 987 1144 c 0,67,68
 1141 961 1141 961 1198 690 c 1,69,-1
 1212 591 l 1,70,-1
 1217 489 l 1,71,72
 1217 279 1217 279 1133 142 c 1,73,74
 1042 -3 1042 -3 886 0 c 1,24,25
EndSplineSet
EndChar

StartChar: u0C10
Encoding: 3088 3088 116
Width: 1359
Flags: W
LayerCount: 2
Fore
SplineSet
1129 435 m 0,0,1
 1129 628 1129 628 1061.5 743.5 c 128,-1,2
 994 859 994 859 881 859 c 0,3,4
 807 859 807 859 757 813 c 1,5,6
 724 780 724 780 699 717 c 1,7,-1
 621 717 l 1,8,9
 588 784 588 784 563 809 c 1,10,11
 509 859 509 859 406 859 c 0,12,13
 325 859 325 859 274 794 c 1,14,15
 233 740 233 740 233 683 c 2,16,-1
 233 671 l 1,17,-1
 235 664 l 1,18,-1
 154 664 l 1,19,20
 150 676 150 676 150 695 c 0,21,22
 150 781 150 781 204 859 c 1,23,24
 275 959 275 959 406 959 c 0,25,26
 506 959 506 959 570 920 c 0,27,28
 612 895 612 895 656 834 c 1,29,30
 692 894 692 894 738 922 c 1,31,32
 796 959 796 959 881 959 c 0,33,34
 1026 959 1026 959 1120 818 c 128,-1,35
 1214 677 1214 677 1214 435 c 0,36,37
 1214 231 1214 231 1125 111 c 0,38,39
 1043 1 1043 1 923 1 c 0,40,41
 754 1 754 1 670 122 c 1,42,-1
 574 347 l 1,43,44
 524 470 524 470 424 470 c 0,45,46
 359 470 359 470 316.5 415 c 128,-1,47
 274 360 274 360 274 282 c 0,48,49
 274 205 274 205 322 152 c 128,-1,50
 370 99 370 99 435 99 c 0,51,52
 474 99 474 99 508 118.5 c 128,-1,53
 542 138 542 138 563 170 c 1,54,-1
 600 75 l 1,55,56
 568 41 568 41 525 21 c 1,57,58
 514 17 514 17 489 10 c 128,-1,59
 464 3 464 3 435 3 c 0,60,61
 335 3 335 3 261 85.5 c 128,-1,62
 187 168 187 168 187 284 c 0,63,64
 187 401 187 401 256 487 c 128,-1,65
 325 573 325 573 424 573 c 0,66,67
 576 573 576 573 641 452 c 1,68,-1
 725 227 l 1,69,70
 783 104 783 104 923 104 c 0,71,72
 1008 104 1008 104 1065 190 c 0,73,74
 1129 286 1129 286 1129 435 c 0,0,1
EndSplineSet
EndChar

StartChar: u0C12
Encoding: 3090 3090 117
Width: 1299
Flags: W
LayerCount: 2
Fore
SplineSet
1080 473 m 1,0,1
 1155 381 1155 381 1155 265 c 0,2,3
 1155 155 1155 155 1085.5 78 c 128,-1,4
 1016 1 1016 1 889 1 c 0,5,6
 780 1 780 1 710 47 c 1,7,8
 659 83 659 83 623 155 c 1,9,10
 581 84 581 84 517 45 c 0,11,12
 445 1 445 1 353 1 c 0,13,14
 269 1 269 1 207.5 73 c 128,-1,15
 146 145 146 145 146 252 c 0,16,17
 146 366 146 366 220 441 c 1,18,19
 267 492 267 492 386 553 c 0,20,21
 496 609 496 609 525 646.5 c 128,-1,22
 554 684 554 684 554 735 c 0,23,24
 554 793 554 793 513 823.5 c 128,-1,25
 472 854 472 854 404 854 c 0,26,27
 294 854 294 854 261 773 c 1,28,-1
 253 734 l 1,29,-1
 168 734 l 1,30,31
 179 808 179 808 198 844 c 0,32,33
 258 954 258 954 404 954 c 0,34,35
 517 954 517 954 579 894.5 c 128,-1,36
 641 835 641 835 641 733 c 0,37,38
 641 633 641 633 581 565 c 0,39,40
 531 508 531 508 421 461 c 0,41,42
 344 428 344 428 293 377 c 1,43,44
 233 314 233 314 233 250 c 0,45,46
 233 185 233 185 267 142.5 c 128,-1,47
 301 100 301 100 352 100 c 0,48,49
 443 100 443 100 508 155 c 0,50,51
 564 202 564 202 589 284 c 1,52,-1
 668 284 l 1,53,54
 696 189 696 189 725 159 c 1,55,56
 776 99 776 99 888 99 c 0,57,58
 967 99 967 99 1014.5 150.5 c 128,-1,59
 1062 202 1062 202 1062 276 c 0,60,61
 1062 315 1062 315 1051 343 c 1,62,63
 1043 371 1043 371 1017 404 c 1,64,-1
 1080 473 l 1,0,1
EndSplineSet
EndChar

StartChar: u0C13
Encoding: 3091 3091 118
Width: 1299
Flags: W
LayerCount: 2
Fore
SplineSet
338 951 m 1,0,1
 330 970 330 970 322.5 992 c 128,-1,2
 315 1014 315 1014 307 1043 c 1,3,4
 303 1068 303 1068 300.5 1089.5 c 128,-1,5
 298 1111 298 1111 298 1132 c 0,6,7
 298 1204 298 1204 327 1274 c 1,8,9
 346 1323 346 1323 383 1366 c 1,10,-1
 446 1295 l 1,11,12
 424 1270 424 1270 406 1231 c 1,13,14
 387 1184 387 1184 387 1130 c 0,15,16
 387 1105 387 1105 388 1091 c 128,-1,17
 389 1077 389 1077 398 1042.5 c 128,-1,18
 407 1008 407 1008 432 959 c 1,19,20
 528 951 528 951 583 892 c 128,-1,21
 638 833 638 833 638 742 c 0,22,23
 638 639 638 639 577 565 c 1,24,25
 527 507 527 507 418 449 c 1,26,27
 337 409 337 409 291 367 c 0,28,29
 230 313 230 313 230 256 c 0,30,31
 230 191 230 191 263 147 c 1,32,33
 296 107 296 107 349 107 c 0,34,35
 433 107 433 107 497 160.5 c 128,-1,36
 561 214 561 214 586 292 c 1,37,-1
 665 292 l 1,38,39
 693 197 693 197 722 167 c 1,40,41
 773 107 773 107 885 107 c 0,42,43
 964 107 964 107 1011.5 158.5 c 128,-1,44
 1059 210 1059 210 1059 284 c 0,45,46
 1059 323 1059 323 1048 351 c 1,47,48
 1040 379 1040 379 1014 412 c 1,49,-1
 1077 477 l 1,50,51
 1109 437 1109 437 1129 382.5 c 128,-1,52
 1149 328 1149 328 1149 278 c 0,53,54
 1149 168 1149 168 1079 90 c 0,55,56
 1004 6 1004 6 886 6 c 0,57,58
 777 6 777 6 707 52 c 1,59,60
 656 88 656 88 620 160 c 1,61,62
 578 89 578 89 514 50 c 0,63,64
 442 6 442 6 350 6 c 0,65,66
 262 6 262 6 205 71 c 0,67,68
 144 140 144 140 144 256 c 0,69,70
 144 361 144 361 218 435 c 0,71,72
 264 481 264 481 384 545 c 1,73,74
 462 582 462 582 504 625 c 0,75,76
 553 676 553 676 553 743 c 0,77,78
 553 797 553 797 511 828.5 c 128,-1,79
 469 860 469 860 400 860 c 0,80,81
 308 860 308 860 271 797 c 0,82,83
 266 788 266 788 263.5 777.5 c 128,-1,84
 261 767 261 767 253 735 c 1,85,-1
 168 743 l 1,86,87
 175 801 175 801 189 834 c 0,88,89
 231 930 231 930 338 951 c 1,0,1
EndSplineSet
EndChar

StartChar: u0C14
Encoding: 3092 3092 119
Width: 1299
Flags: W
LayerCount: 2
Fore
SplineSet
1135 1020 m 1,0,1
 1135 1062 1135 1062 1111.5 1090 c 128,-1,2
 1088 1118 1088 1118 1053 1118 c 0,3,4
 1021 1118 1021 1118 993 1089 c 1,5,6
 970 1062 970 1062 970 1022 c 0,7,8
 970 983 970 983 993 955 c 1,9,10
 1019 929 1019 929 1052 929 c 0,11,12
 1084 929 1084 929 1109 956 c 128,-1,13
 1134 983 1134 983 1135 1020 c 1,0,1
905 1120 m 1,14,-1
 645 1120 l 1,15,-1
 659 1081 l 1,16,-1
 664 1037 l 1,17,18
 664 984 664 984 645 949 c 1,19,20
 630 917 630 917 594 892 c 1,21,22
 640 839 640 839 640 746 c 0,23,24
 640 634 640 634 579 563 c 0,25,26
 535 513 535 513 421 453 c 128,-1,27
 307 393 307 393 293 384 c 1,28,29
 232 338 232 338 232 262 c 0,30,31
 232 195 232 195 266.5 152 c 128,-1,32
 301 109 301 109 351 109 c 0,33,34
 436 109 436 109 503 166 c 0,35,36
 563 216 563 216 588 297 c 1,37,-1
 667 297 l 1,38,39
 696 204 696 204 724 171 c 0,40,41
 777 110 777 110 887 110 c 0,42,43
 965 110 965 110 1013.5 165 c 128,-1,44
 1062 220 1062 220 1062 294 c 0,45,46
 1062 366 1062 366 1018 415 c 1,47,-1
 1075 486 l 1,48,49
 1149 404 1149 404 1149 290 c 0,50,51
 1149 177 1149 177 1081 96 c 1,52,53
 1007 10 1007 10 887 10 c 0,54,55
 778 10 778 10 708 57 c 0,56,57
 655 93 655 93 620 167 c 1,58,59
 577 97 577 97 510 53 c 128,-1,60
 443 9 443 9 350 9 c 0,61,62
 266 9 266 9 204.5 81 c 128,-1,63
 143 153 143 153 143 263 c 0,64,65
 143 401 143 401 217 461 c 1,66,-1
 383 549 l 1,67,68
 461 586 461 586 500 629 c 0,69,70
 546 679 546 679 546 747 c 0,71,72
 546 805 546 805 507.5 834 c 128,-1,73
 469 863 469 863 398 863 c 0,74,75
 314 863 314 863 272 800 c 0,76,77
 268 793 268 793 262 775.5 c 128,-1,78
 256 758 256 758 249 737 c 1,79,-1
 164 737 l 1,80,-1
 169 776 l 1,81,82
 180 820 180 820 209 862 c 1,83,-1
 166 862 l 1,84,-1
 166 962 l 1,85,-1
 510 962 l 2,86,87
 536 962 536 962 557 980.5 c 128,-1,88
 578 999 578 999 578 1035 c 0,89,90
 578 1068 578 1068 557 1088.5 c 128,-1,91
 536 1109 536 1109 513 1117 c 1,92,-1
 169 1117 l 1,93,-1
 169 1213 l 1,94,-1
 1052 1213 l 2,95,96
 1120 1213 1120 1213 1169.5 1156 c 128,-1,97
 1219 1099 1219 1099 1219 1020 c 0,98,99
 1219 943 1219 943 1169.5 886 c 128,-1,100
 1120 829 1120 829 1052 829 c 256,101,102
 984 829 984 829 934 885.5 c 128,-1,103
 884 942 884 942 884 1020 c 0,104,105
 884 1067 884 1067 905 1120 c 1,14,-1
EndSplineSet
EndChar

StartChar: u0C15.base
Encoding: 65539 -1 121
Width: 1233
Flags: W
LayerCount: 2
Fore
SplineSet
1089 312 m 0,0,1
 1089 136 1089 136 933 60 c 0,2,3
 816 2 816 2 615 2 c 0,4,5
 400 2 400 2 263 136 c 1,6,7
 146 252 146 252 146 391 c 1,8,-1
 232 391 l 1,9,10
 232 288 232 288 335 199 c 0,11,12
 391 150 391 150 460.5 125 c 128,-1,13
 530 100 530 100 614 100 c 0,14,15
 776 100 776 100 872 139 c 0,16,17
 1003 192 1003 192 1003 313 c 256,18,19
 1003 434 1003 434 886 471 c 0,20,21
 812 494 812 494 629 494 c 2,22,-1
 548 494 l 2,23,24
 459 494 459 494 404 501 c 128,-1,25
 349 508 349 508 313 526 c 0,26,27
 216 572 216 572 216 714 c 0,28,29
 216 823 216 823 281 879 c 1,30,31
 374 957 374 957 606 957 c 0,32,33
 804 957 804 957 907 869 c 0,34,35
 982 806 982 806 982 728 c 1,36,-1
 897 728 l 1,37,38
 897 767 897 767 836 806 c 1,39,40
 754 856 754 856 606 856 c 0,41,42
 514 856 514 856 456 845.5 c 128,-1,43
 398 835 398 835 358 812 c 0,44,45
 301 779 301 779 301 715 c 0,46,47
 301 643 301 643 355 614 c 1,48,49
 397 593 397 593 492 593 c 1,50,-1
 559 594 l 1,51,-1
 630 595 l 1,52,53
 912 595 912 595 1007 517 c 0,54,55
 1089 450 1089 450 1089 312 c 0,0,1
EndSplineSet
AnchorPoint: "BLW" 203 0 basechar 0
AnchorPoint: "BR" 368 188 basechar 0
AnchorPoint: "V" 200 446 basechar 0
Ligature2: "'blws' Below Base Substitutions in Telugu lookup 3 subtable" u0C15.base u0C30.sub
MultipleSubs2: "Multiple Substitution lookup 13 subtable" u0C30.sub.alt u0C15.base
LCarets2: 1 0 
GlyphClass: 2

EndChar

StartChar: u0C15.sub
Encoding: 65540 -1 122
Width: 1124
Flags: W
LayerCount: 2
Fore
SplineSet
1083 0 m 1,0,-1
 642 0 l 1,1,2
 656 -30 656 -30 670 -70.5 c 128,-1,3
 684 -111 684 -111 695 -154 c 1,4,5
 714 -240 714 -240 714 -326 c 0,6,7
 714 -488 714 -488 639 -588 c 0,8,9
 551 -704 551 -704 364 -704 c 0,10,11
 223 -704 223 -704 120 -602 c 0,12,13
 2 -486 2 -486 2 -292 c 0,14,15
 2 -161 2 -161 36 -55.5 c 128,-1,16
 70 50 70 50 198 205 c 0,17,18
 298 326 298 326 312 349 c 0,19,20
 358 428 358 428 358 549 c 0,21,22
 358 728 358 728 274 807 c 1,23,24
 218 858 218 858 134 858 c 1,25,-1
 109 857 l 1,26,-1
 95 855 l 1,27,-1
 95 953 l 1,28,-1
 117 957 l 1,29,-1
 153 958 l 1,30,31
 260 958 260 958 334 891 c 1,32,33
 441 791 441 791 441 549 c 0,34,35
 441 446 441 446 420 379 c 0,36,37
 411 349 411 349 395 317.5 c 128,-1,38
 379 286 379 286 356 254 c 1,39,-1
 260 135 l 2,40,41
 216 80 216 80 184.5 36 c 128,-1,42
 153 -8 153 -8 139 -38 c 0,43,44
 86 -147 86 -147 86 -292 c 0,45,46
 86 -436 86 -436 176 -525 c 1,47,48
 257 -603 257 -603 363 -603 c 0,49,50
 501 -603 501 -603 566 -513 c 0,51,52
 622 -436 622 -436 622 -306 c 0,53,54
 622 -255 622 -255 616.5 -215.5 c 128,-1,55
 611 -176 611 -176 595 -125 c 1,56,57
 570 -36 570 -36 530 14 c 1,58,-1
 560 100 l 1,59,-1
 1082 100 l 1,60,-1
 1083 0 l 1,0,-1
EndSplineSet
AnchorPoint: "BR" 0 188 mark 0
Ligature2: "'blwf' Below Base Form (sub)" u0C15 u0C4D
LCarets2: 1 0 

EndChar

StartChar: u0C15_u0C4D_u0C37.base
Encoding: 65542 -1 124
Width: 1233
Flags: W
LayerCount: 2
Fore
SplineSet
979 -251 m 1,0,1
 993 -312 993 -312 1023.5 -342.5 c 128,-1,2
 1054 -373 1054 -373 1111 -373 c 1,3,-1
 1111 -459 l 1,4,5
 1037 -459 1037 -459 990.5 -430.5 c 128,-1,6
 944 -402 944 -402 914 -331 c 1,7,8
 892 -350 892 -350 852.5 -362.5 c 128,-1,9
 813 -375 813 -375 767 -375 c 0,10,11
 706 -375 706 -375 661.5 -350.5 c 128,-1,12
 617 -326 617 -326 585 -284 c 1,13,14
 559 -324 559 -324 511 -349 c 128,-1,15
 463 -374 463 -374 379 -374 c 0,16,17
 238 -374 238 -374 180 -255 c 0,18,19
 165 -222 165 -222 155.5 -177.5 c 128,-1,20
 146 -133 146 -133 146 -86 c 1,21,-1
 232 -86 l 1,22,23
 232 -158 232 -158 250 -202 c 1,24,25
 283 -288 283 -288 379 -288 c 0,26,27
 477 -288 477 -288 514 -224 c 0,28,29
 525 -203 525 -203 530 -160 c 1,30,-1
 615 -149 l 1,31,32
 627 -196 627 -196 642 -218 c 0,33,34
 686 -287 686 -287 765 -287 c 0,35,36
 837 -287 837 -287 879.5 -242.5 c 128,-1,37
 922 -198 922 -198 922 -109 c 2,38,-1
 922 -98 l 1,39,-1
 921 -91 l 1,40,-1
 1007 -79 l 1,41,-1
 1008 -100 l 2,42,43
 1008 -112 1008 -112 1007.5 -128 c 128,-1,44
 1007 -144 1007 -144 1003 -173 c 128,-1,45
 999 -202 999 -202 979 -251 c 1,0,1
1087 317 m 1,46,47
 1087 141 1087 141 931 65 c 0,48,49
 814 7 814 7 613 7 c 0,50,51
 398 7 398 7 261 141 c 1,52,53
 144 257 144 257 144 396 c 1,54,-1
 230 396 l 1,55,56
 230 294 230 294 333 205 c 1,57,58
 447 108 447 108 612 108 c 0,59,60
 826 108 826 108 924 172 c 0,61,62
 1002 222 1002 222 1002 318 c 0,63,64
 1002 439 1002 439 885 476 c 0,65,66
 811 499 811 499 628 499 c 2,67,-1
 547 499 l 2,68,69
 458 499 458 499 403 506 c 128,-1,70
 348 513 348 513 312 531 c 0,71,72
 215 577 215 577 215 719 c 0,73,74
 215 828 215 828 280 884 c 1,75,76
 373 962 373 962 605 962 c 0,77,78
 803 962 803 962 906 874 c 0,79,80
 981 811 981 811 981 733 c 1,81,-1
 896 733 l 1,82,83
 896 772 896 772 835 811 c 1,84,85
 753 861 753 861 605 861 c 0,86,87
 513 861 513 861 455 850.5 c 128,-1,88
 397 840 397 840 357 817 c 0,89,90
 300 784 300 784 300 720 c 0,91,92
 300 648 300 648 354 619 c 1,93,94
 396 598 396 598 491 598 c 1,95,-1
 558 599 l 1,96,-1
 629 600 l 1,97,98
 911 600 911 600 1006 522 c 0,99,100
 1088 455 1088 455 1087 317 c 1,46,47
EndSplineSet
AnchorPoint: "BR" 365 188 basechar 0
AnchorPoint: "V" 196 446 basechar 0
Ligature2: "'blws' Below Base Substitutions in Telugu lookup 3 subtable" u0C15_u0C4D_u0C37.base u0C30.sub
MultipleSubs2: "Multiple Substitution lookup 13 subtable" u0C30.sub.alt u0C15_u0C4D_u0C37.base
LCarets2: 1 0 
GlyphClass: 2

EndChar

StartChar: u0C16
Encoding: 3094 3094 125
Width: 1433
Flags: W
LayerCount: 2
Fore
SplineSet
639 237 m 1,0,1
 586 283 586 283 531 309 c 1,2,3
 461 339 461 339 382 339 c 0,4,5
 314 339 314 339 273 307 c 128,-1,6
 232 275 232 275 232 225 c 0,7,8
 232 172 232 172 282 135 c 1,9,10
 335 101 335 101 412 101 c 256,11,12
 489 101 489 101 542 135.5 c 128,-1,13
 595 170 595 170 639 237 c 1,0,1
443 716 m 0,14,15
 443 749 443 749 422 773.5 c 128,-1,16
 401 798 401 798 369 798 c 0,17,18
 339 798 339 798 319 774.5 c 128,-1,19
 299 751 299 751 299 716 c 0,20,21
 299 683 299 683 318.5 660 c 128,-1,22
 338 637 338 637 370 637 c 0,23,24
 399 637 399 637 421 660.5 c 128,-1,25
 443 684 443 684 443 716 c 0,14,15
438 910 m 0,26,27
 615 910 615 910 713 791 c 1,28,29
 801 682 801 682 801 501 c 0,30,31
 801 436 801 436 788 374.5 c 128,-1,32
 775 313 775 313 747 256 c 1,33,34
 829 171 829 171 858 152 c 1,35,36
 926 104 926 104 1001 104 c 0,37,38
 1094 104 1094 104 1148.5 197 c 128,-1,39
 1203 290 1203 290 1203 438 c 0,40,41
 1203 621 1203 621 1137.5 738.5 c 128,-1,42
 1072 856 1072 856 947 856 c 1,43,-1
 942 953 l 1,44,45
 1105 953 1105 953 1198 805.5 c 128,-1,46
 1291 658 1291 658 1291 437 c 0,47,48
 1291 248 1291 248 1215 125 c 128,-1,49
 1139 2 1139 2 1002 2 c 0,50,51
 910 2 910 2 828 58 c 0,52,53
 765 100 765 100 708 179 c 1,54,55
 657 98 657 98 583 50 c 128,-1,56
 509 2 509 2 414 2 c 0,57,58
 300 2 300 2 224 71 c 128,-1,59
 148 140 148 140 148 228 c 0,60,61
 148 313 148 313 213 376 c 128,-1,62
 278 439 278 439 385 439 c 0,63,64
 483 439 483 439 560 403 c 0,65,66
 618 375 618 375 682 314 c 1,67,68
 698 354 698 354 706 401 c 0,69,70
 710 426 710 426 712.5 450.5 c 128,-1,71
 715 475 715 475 715 501 c 0,72,73
 715 619 715 619 665 696.5 c 128,-1,74
 615 774 615 774 509 800 c 1,75,76
 530 763 530 763 530 716 c 0,77,78
 530 642 530 642 482.5 590.5 c 128,-1,79
 435 539 435 539 370 539 c 0,80,81
 309 539 309 539 260 589 c 1,82,83
 214 639 214 639 214 716 c 0,84,85
 214 808 214 808 275.5 859 c 128,-1,86
 337 910 337 910 438 910 c 0,26,27
769 -267 m 1,87,-1
 625 -267 l 1,88,-1
 668 -4 l 1,89,-1
 725 -4 l 1,90,-1
 769 -267 l 1,87,-1
EndSplineSet
AnchorPoint: "BR" 578 188 basechar 0
AnchorPoint: "BLW" 298 0 basechar 0
Ligature2: "'blws' Below Base Substitutions in Telugu lookup 3 subtable" u0C16 u0C30.sub
AlternateSubs2: "Alternate Substitution lookup 14 subtable" u0C16.base
MultipleSubs2: "Multiple Substitution lookup 13 subtable" u0C30.sub.alt u0C16

EndChar

StartChar: u0C16.base
Encoding: 65543 -1 126
Width: 1433
Flags: W
LayerCount: 2
Fore
SplineSet
639 237 m 1,0,1
 586 283 586 283 531 309 c 1,2,3
 461 339 461 339 382 339 c 0,4,5
 314 339 314 339 273 307 c 128,-1,6
 232 275 232 275 232 225 c 0,7,8
 232 172 232 172 282 135 c 1,9,10
 335 101 335 101 412 101 c 256,11,12
 489 101 489 101 542 135.5 c 128,-1,13
 595 170 595 170 639 237 c 1,0,1
443 716 m 0,14,15
 443 749 443 749 422 773.5 c 128,-1,16
 401 798 401 798 369 798 c 0,17,18
 339 798 339 798 319 774.5 c 128,-1,19
 299 751 299 751 299 716 c 0,20,21
 299 683 299 683 318.5 660 c 128,-1,22
 338 637 338 637 370 637 c 0,23,24
 399 637 399 637 421 660.5 c 128,-1,25
 443 684 443 684 443 716 c 0,14,15
438 910 m 0,26,27
 615 910 615 910 713 791 c 1,28,29
 801 682 801 682 801 501 c 0,30,31
 801 371 801 371 751 258 c 1,32,33
 851 154 851 154 890 132 c 0,34,35
 940 103 940 103 1001 103 c 0,36,37
 1094 103 1094 103 1148.5 200 c 128,-1,38
 1203 297 1203 297 1203 448 c 0,39,40
 1203 610 1203 610 1129 722 c 0,41,42
 1037 860 1037 860 857 860 c 1,43,-1
 857 960 l 1,44,45
 1083 960 1083 960 1197 790 c 0,46,47
 1289 653 1289 653 1289 448 c 0,48,49
 1289 262 1289 262 1207 127 c 0,50,51
 1132 3 1132 3 1001 3 c 0,52,53
 936 3 936 3 875 36 c 0,54,55
 829 61 829 61 710 179 c 1,56,57
 659 98 659 98 581.5 50 c 128,-1,58
 504 2 504 2 413 2 c 0,59,60
 299 2 299 2 223 71 c 128,-1,61
 147 140 147 140 147 228 c 0,62,63
 147 313 147 313 212 376 c 128,-1,64
 277 439 277 439 384 439 c 0,65,66
 482 439 482 439 559 403 c 0,67,68
 617 375 617 375 681 314 c 1,69,70
 697 354 697 354 705 401 c 0,71,72
 709 426 709 426 711.5 450.5 c 128,-1,73
 714 475 714 475 714 501 c 0,74,75
 714 619 714 619 664 696.5 c 128,-1,76
 614 774 614 774 508 800 c 1,77,78
 529 763 529 763 529 716 c 0,79,80
 529 642 529 642 481.5 590.5 c 128,-1,81
 434 539 434 539 369 539 c 0,82,83
 308 539 308 539 259 589 c 1,84,85
 213 639 213 639 213 716 c 0,86,87
 213 811 213 811 273.5 860.5 c 128,-1,88
 334 910 334 910 438 910 c 0,26,27
768 -267 m 1,89,-1
 624 -267 l 1,90,-1
 667 -4 l 1,91,-1
 724 -4 l 1,92,-1
 768 -267 l 1,89,-1
EndSplineSet
AnchorPoint: "BLW" 306 0 basechar 0
AnchorPoint: "BR" 580 188 basechar 0
AnchorPoint: "V" 391 457.5 basechar 0
Ligature2: "'blws' Below Base Substitutions in Telugu lookup 3 subtable" u0C16.base u0C30.sub
MultipleSubs2: "Multiple Substitution lookup 13 subtable" u0C30.sub.alt u0C16.base
LCarets2: 1 0 
GlyphClass: 2

EndChar

StartChar: u0C16.sub
Encoding: 65544 -1 127
Width: 28
Flags: W
LayerCount: 2
Fore
SplineSet
-229 -679 m 1,0,1
 -229 -814 -229 -814 -282.5 -900 c 128,-1,2
 -336 -986 -336 -986 -436 -986 c 0,3,4
 -497 -986 -497 -986 -541 -954 c 1,5,6
 -569 -935 -569 -935 -615 -878 c 1,7,8
 -655 -927 -655 -927 -707.5 -958.5 c 128,-1,9
 -760 -990 -760 -990 -818 -990 c 0,10,11
 -897 -990 -897 -990 -950 -939 c 128,-1,12
 -1003 -888 -1003 -888 -1003 -827 c 0,13,14
 -1003 -764 -1003 -764 -958.5 -719.5 c 128,-1,15
 -914 -675 -914 -675 -837 -675 c 0,16,17
 -724 -675 -724 -675 -629 -764 c 1,18,-1
 -614 -701 l 1,19,-1
 -609 -644 l 1,20,21
 -609 -567 -609 -567 -638 -510 c 0,22,23
 -671 -447 -671 -447 -739 -418 c 1,24,-1
 -731 -472 l 1,25,26
 -731 -523 -731 -523 -765 -561.5 c 128,-1,27
 -799 -600 -799 -600 -845 -600 c 0,28,29
 -892 -600 -892 -600 -924 -563 c 128,-1,30
 -956 -526 -956 -526 -956 -472 c 0,31,32
 -956 -411 -956 -411 -914 -371 c 1,33,34
 -872 -334 -872 -334 -795 -334 c 0,35,36
 -674 -334 -674 -334 -603 -427 c 1,37,38
 -539 -515 -539 -515 -539 -645 c 0,39,40
 -539 -681 -539 -681 -547 -728.5 c 128,-1,41
 -555 -776 -555 -776 -573 -816 c 1,42,-1
 -509 -877 l 1,43,44
 -472 -906 -472 -906 -433 -906 c 0,45,46
 -368 -906 -368 -906 -329.5 -842.5 c 128,-1,47
 -291 -779 -291 -779 -291 -680 c 0,48,49
 -291 -570 -291 -570 -348 -484 c 1,50,51
 -398 -405 -398 -405 -484 -405 c 1,52,-1
 -489 -327 l 1,53,54
 -376 -327 -376 -327 -308 -418 c 0,55,56
 -261 -481 -261 -481 -238 -590 c 1,57,-1
 -229 -679 l 1,0,1
-572 -1185 m 1,58,-1
 -657 -1185 l 1,59,-1
 -629 -996 l 1,60,-1
 -600 -996 l 1,61,-1
 -572 -1185 l 1,58,-1
-797 -474 m 1,62,63
 -797 -452 -797 -452 -811 -437 c 1,64,65
 -825 -426 -825 -426 -846 -424 c 1,66,67
 -867 -424 -867 -424 -879.5 -437 c 128,-1,68
 -892 -450 -892 -450 -892 -475 c 0,69,70
 -892 -494 -892 -494 -880.5 -508.5 c 128,-1,71
 -869 -523 -869 -523 -847 -525 c 1,72,73
 -829 -525 -829 -525 -815 -511.5 c 128,-1,74
 -801 -498 -801 -498 -797 -474 c 1,62,63
-661 -829 m 1,75,76
 -694 -793 -694 -793 -737 -772 c 1,77,78
 -777 -756 -777 -756 -837 -756 c 0,79,80
 -884 -756 -884 -756 -910.5 -775.5 c 128,-1,81
 -937 -795 -937 -795 -937 -830 c 0,82,83
 -937 -866 -937 -866 -903 -890.5 c 128,-1,84
 -869 -915 -869 -915 -818 -915 c 0,85,86
 -772 -915 -772 -915 -734.5 -894 c 128,-1,87
 -697 -873 -697 -873 -661 -829 c 1,75,76
EndSplineSet
AnchorPoint: "BLW" -312 0 mark 0
Ligature2: "'blwf' Below Base Form (sub)" u0C16 u0C4D
LCarets2: 1 0 

EndChar

StartChar: u0C16_u0C3F
Encoding: 65545 -1 128
Width: 1218
Flags: W
LayerCount: 2
Fore
SplineSet
441 716 m 0,0,1
 441 749 441 749 420 773.5 c 128,-1,2
 399 798 399 798 367 798 c 0,3,4
 337 798 337 798 317 774.5 c 128,-1,5
 297 751 297 751 297 716 c 0,6,7
 297 683 297 683 316.5 660 c 128,-1,8
 336 637 336 637 368 637 c 0,9,10
 397 637 397 637 419 660.5 c 128,-1,11
 441 684 441 684 441 716 c 0,0,1
645 235 m 1,12,13
 592 282 592 282 534 305 c 0,14,15
 464 334 464 334 382 334 c 0,16,17
 314 334 314 334 273 302 c 128,-1,18
 232 270 232 270 232 220 c 0,19,20
 232 166 232 166 283 133.5 c 128,-1,21
 334 101 334 101 412 101 c 0,22,23
 489 101 489 101 547.5 135.5 c 128,-1,24
 606 170 606 170 645 235 c 1,12,13
581 1194 m 0,25,26
 581 1247 581 1247 553.5 1283 c 128,-1,27
 526 1319 526 1319 482 1319 c 0,28,29
 439 1319 439 1319 412 1283.5 c 128,-1,30
 385 1248 385 1248 385 1194 c 0,31,32
 385 1138 385 1138 412 1102 c 128,-1,33
 439 1066 439 1066 482 1066 c 0,34,35
 526 1066 526 1066 553.5 1102 c 128,-1,36
 581 1138 581 1138 581 1194 c 0,25,26
603 1357 m 1,37,38
 635 1329 635 1329 653 1283 c 128,-1,39
 671 1237 671 1237 671 1188 c 0,40,41
 671 1100 671 1100 615 1035 c 128,-1,42
 559 970 559 970 483 970 c 0,43,44
 406 970 406 970 348 1034 c 1,45,46
 292 1101 292 1101 292 1187 c 0,47,48
 292 1313 292 1313 374.5 1383 c 128,-1,49
 457 1453 457 1453 604 1453 c 0,50,51
 818 1453 818 1453 981 1298 c 0,52,53
 1121 1164 1121 1164 1203 942 c 1,54,55
 1239 840 1239 840 1257 744.5 c 128,-1,56
 1275 649 1275 649 1275 550 c 0,57,58
 1275 413 1275 413 1261 321 c 0,59,60
 1240 180 1240 180 1186 101 c 0,61,62
 1119 2 1119 2 999 2 c 0,63,64
 897 2 897 2 804 83 c 0,65,66
 782 101 782 101 714 176 c 1,67,68
 664 97 664 97 585 49.5 c 128,-1,69
 506 2 506 2 414 2 c 0,70,71
 295 2 295 2 221 68.5 c 128,-1,72
 147 135 147 135 147 223 c 0,73,74
 147 308 147 308 212 371 c 128,-1,75
 277 434 277 434 384 434 c 0,76,77
 486 434 486 434 560 404 c 1,78,79
 620 381 620 381 684 321 c 1,80,81
 699 357 699 357 707 404.5 c 128,-1,82
 715 452 715 452 715 503 c 0,83,84
 715 621 715 621 665 698.5 c 128,-1,85
 615 776 615 776 509 802 c 1,86,87
 530 765 530 765 530 718 c 0,88,89
 530 644 530 644 482.5 592.5 c 128,-1,90
 435 541 435 541 370 541 c 0,91,92
 309 541 309 541 260 591 c 1,93,94
 214 641 214 641 214 718 c 0,95,96
 214 811 214 811 272.5 861 c 128,-1,97
 331 911 331 911 438 911 c 0,98,99
 615 911 615 911 713 792 c 1,100,101
 801 683 801 683 801 502 c 0,102,103
 801 438 801 438 788.5 373 c 128,-1,104
 776 308 776 308 751 251 c 1,105,106
 828 172 828 172 857 151 c 0,107,108
 924 104 924 104 999 104 c 0,109,110
 1117 104 1117 104 1163 269 c 1,111,112
 1189 372 1189 372 1189 546 c 0,113,114
 1189 719 1189 719 1125 895 c 0,115,116
 1054 1093 1054 1093 930 1216 c 1,117,118
 785 1358 785 1358 603 1357 c 1,37,38
767 -267 m 1,119,-1
 623 -267 l 1,120,-1
 666 -4 l 1,121,-1
 723 -4 l 1,122,-1
 767 -267 l 1,119,-1
EndSplineSet
AnchorPoint: "BLW" 296 0 basechar 0
AnchorPoint: "BR" 576 188 basechar 0
Ligature2: "'psts' Post Base Sub 0C3F short i" u0C16.base u0C3F
LCarets2: 1 0 
GlyphClass: 2

EndChar

StartChar: u0C17.base
Encoding: 65546 -1 130
Width: 1192
Flags: W
LayerCount: 2
Fore
SplineSet
1050 475 m 1,0,1
 1050 315 1050 315 1021.5 202.5 c 128,-1,2
 993 90 993 90 918 -27 c 1,3,-1
 850 29 l 1,4,5
 911 128 911 128 937.5 230 c 128,-1,6
 964 332 964 332 964 476 c 0,7,8
 964 642 964 642 847 755 c 1,9,10
 737 858 737 858 596 858 c 0,11,12
 454 858 454 858 347 755 c 0,13,14
 234 646 234 646 234 476 c 0,15,16
 234 335 234 335 255.5 242 c 128,-1,17
 277 149 277 149 348 29 c 1,18,-1
 280 -27 l 1,19,20
 204 97 204 97 175 211 c 1,21,22
 163 268 163 268 156 333 c 128,-1,23
 149 398 149 398 149 474 c 0,24,25
 149 688 149 688 287 826 c 0,26,27
 418 957 418 957 598 957 c 0,28,29
 774 957 774 957 909 826 c 0,30,31
 1053 685 1053 685 1050 475 c 1,0,1
EndSplineSet
AnchorPoint: "BLW" 224 0 basechar 0
AnchorPoint: "BR" 426 188 basechar 0
AnchorPoint: "TR" 364 384 basechar 0
AnchorPoint: "V" 230 458 basechar 0
Ligature2: "'blws' Below Base Substitutions in Telugu lookup 3 subtable" u0C17.base u0C30.sub
MultipleSubs2: "Multiple Substitution lookup 13 subtable" u0C30.sub.alt u0C17.base
LCarets2: 1 0 
GlyphClass: 2

EndChar

StartChar: u0C17.sub
Encoding: 65547 -1 131
Width: 28
Flags: W
LayerCount: 2
Fore
SplineSet
-229 -684 m 1,0,1
 -229 -821 -229 -821 -275 -955 c 0,2,3
 -290 -1001 -290 -1001 -322 -1059 c 1,4,-1
 -392 -1008 l 1,5,-1
 -353 -917 l 1,6,7
 -334 -859 -334 -859 -324.5 -803 c 128,-1,8
 -315 -747 -315 -747 -315 -684 c 0,9,10
 -315 -561 -315 -561 -385 -490 c 0,11,12
 -448 -425 -448 -425 -539 -425 c 0,13,14
 -628 -425 -628 -425 -692 -490 c 0,15,16
 -762 -562 -762 -562 -762 -683 c 0,17,18
 -762 -800 -762 -800 -723 -916 c 0,19,20
 -711 -953 -711 -953 -685 -1006 c 1,21,-1
 -755 -1057 l 1,22,-1
 -801 -952 l 1,23,24
 -848 -814 -848 -814 -848 -681 c 0,25,26
 -848 -512 -848 -512 -753 -413 c 0,27,28
 -667 -324 -667 -324 -540 -324 c 0,29,30
 -414 -324 -414 -324 -326 -413 c 1,31,32
 -231 -511 -231 -511 -229 -684 c 1,0,1
EndSplineSet
AnchorPoint: "BLW" -364 0 mark 0
Ligature2: "'blwf' Below Base Form (sub)" u0C17 u0C4D
LCarets2: 1 0 

EndChar

StartChar: u0C18.sub
Encoding: 65549 -1 134
Width: 28
Flags: W
LayerCount: 2
Fore
SplineSet
-229 -651 m 0,0,1
 -229 -764 -229 -764 -275 -848 c 1,2,3
 -335 -954 -335 -954 -442 -954 c 0,4,5
 -505 -954 -505 -954 -549.5 -930.5 c 128,-1,6
 -594 -907 -594 -907 -629 -863 c 1,7,8
 -655 -912 -655 -912 -705 -937 c 1,9,10
 -745 -955 -745 -955 -795 -955 c 0,11,12
 -922 -955 -922 -955 -968.5 -802 c 128,-1,13
 -1015 -649 -1015 -649 -1083 -649 c 0,14,15
 -1123 -649 -1123 -649 -1151.5 -679.5 c 128,-1,16
 -1180 -710 -1180 -710 -1180 -757 c 0,17,18
 -1180 -808 -1180 -808 -1152 -840 c 1,19,20
 -1127 -873 -1127 -873 -1083 -873 c 0,21,22
 -1065 -873 -1065 -873 -1050 -866 c 128,-1,23
 -1035 -859 -1035 -859 -1021 -847 c 1,24,-1
 -993 -915 l 1,25,26
 -1033 -952 -1033 -952 -1083 -952 c 0,27,28
 -1148 -952 -1148 -952 -1197 -892.5 c 128,-1,29
 -1246 -833 -1246 -833 -1246 -755 c 0,30,31
 -1246 -676 -1246 -676 -1199.5 -621.5 c 128,-1,32
 -1153 -567 -1153 -567 -1083 -567 c 0,33,34
 -959 -567 -959 -567 -915 -720 c 128,-1,35
 -871 -873 -871 -873 -794 -873 c 0,36,37
 -712 -873 -712 -873 -668 -791 c 0,38,39
 -633 -726 -633 -726 -633 -654 c 0,40,41
 -633 -579 -633 -579 -677 -500 c 0,42,43
 -733 -400 -733 -400 -821 -389 c 1,44,-1
 -821 -312 l 1,45,46
 -688 -312 -688 -312 -617 -446 c 0,47,48
 -567 -542 -567 -542 -567 -655 c 1,49,-1
 -571 -719 l 1,50,51
 -575 -751 -575 -751 -589 -786 c 1,52,53
 -581 -814 -581 -814 -548 -842 c 0,54,55
 -504 -878 -504 -878 -441 -878 c 0,56,57
 -364 -878 -364 -878 -324 -799 c 1,58,59
 -294 -734 -294 -734 -294 -653 c 0,60,61
 -294 -561 -294 -561 -330 -494 c 0,62,63
 -380 -399 -380 -399 -479 -399 c 1,64,-1
 -479 -318 l 1,65,66
 -349 -318 -349 -318 -279 -439 c 1,67,68
 -228 -534 -228 -534 -229 -651 c 0,0,1
-909 -1172 m 1,69,-1
 -995 -1172 l 1,70,-1
 -966 -982 l 1,71,-1
 -938 -982 l 1,72,-1
 -909 -1172 l 1,69,-1
EndSplineSet
AnchorPoint: "BLW" -372 0 mark 0
Ligature2: "'blwf' Below Base Form (sub)" u0C18 u0C4D
LCarets2: 1 0 

EndChar

StartChar: u0C19
Encoding: 3097 3097 135
Width: 1419
Flags: W
LayerCount: 2
Fore
SplineSet
788 681 m 1,0,-1
 788 926 l 1,1,-1
 874 926 l 1,2,-1
 874 681 l 1,3,-1
 1142 681 l 1,4,-1
 1142 585 l 1,5,-1
 603 585 l 1,6,7
 592 569 592 569 572 549.5 c 128,-1,8
 552 530 552 530 530.5 513.5 c 128,-1,9
 509 497 509 497 485.5 482.5 c 128,-1,10
 462 468 462 468 425 447 c 1,11,12
 362 414 362 414 329.5 368.5 c 128,-1,13
 297 323 297 323 297 255 c 0,14,15
 297 190 297 190 331 147.5 c 128,-1,16
 365 105 365 105 416 105 c 0,17,18
 508 105 508 105 583.5 159.5 c 128,-1,19
 659 214 659 214 681 291 c 1,20,-1
 762 291 l 1,21,22
 785 212 785 212 832 166 c 1,23,24
 896 106 896 106 1009 106 c 0,25,26
 1085 106 1085 106 1132.5 160.5 c 128,-1,27
 1180 215 1180 215 1180 287 c 0,28,29
 1180 313 1180 313 1172 342 c 1,30,-1
 1246 393 l 1,31,32
 1269 333 1269 333 1269 273 c 0,33,34
 1269 164 1269 164 1200 83.5 c 128,-1,35
 1131 3 1131 3 1008 3 c 0,36,37
 895 3 895 3 816 49 c 0,38,39
 751 88 751 88 715 157 c 1,40,41
 673 92 673 92 590.5 47.5 c 128,-1,42
 508 3 508 3 415 3 c 0,43,44
 333 3 333 3 271.5 75 c 128,-1,45
 210 147 210 147 210 254 c 0,46,47
 210 353 210 353 253 423 c 128,-1,48
 296 493 296 493 392 543 c 1,49,50
 470 580 470 580 510 622 c 0,51,52
 559 673 559 673 559 738 c 0,53,54
 559 795 559 795 515 826.5 c 128,-1,55
 471 858 471 858 400 858 c 0,56,57
 305 858 305 858 258 793 c 0,58,59
 243 771 243 771 229 728 c 1,60,-1
 143 742 l 1,61,62
 159 813 159 813 184 850 c 0,63,64
 255 959 255 959 400 959 c 0,65,66
 513 959 513 959 579.5 899 c 128,-1,67
 646 839 646 839 646 739 c 2,68,-1
 646 720 l 1,69,-1
 646 699 l 1,70,-1
 644 683 l 1,71,-1
 788 681 l 1,0,-1
EndSplineSet
AnchorPoint: "BR" 505 188 basechar 0
AnchorPoint: "BLW" 264 0 basechar 0
AnchorPoint: "V" 373 451 basechar 0
EndChar

StartChar: u0C19.sub
Encoding: 65550 -1 136
Width: 28
Flags: W
LayerCount: 2
Fore
SplineSet
-561 -571 m 1,0,1
 -583 -610 -583 -610 -622 -642 c 0,2,3
 -648 -664 -648 -664 -698 -690 c 1,4,5
 -730 -708 -730 -708 -755 -737 c 1,6,7
 -777 -767 -777 -767 -777 -802 c 0,8,9
 -777 -844 -777 -844 -757.5 -871.5 c 128,-1,10
 -738 -899 -738 -899 -706 -899 c 0,11,12
 -656 -899 -656 -899 -617 -867 c 128,-1,13
 -578 -835 -578 -835 -560 -788 c 1,14,-1
 -492 -788 l 1,15,16
 -476 -844 -476 -844 -457 -863 c 1,17,18
 -425 -899 -425 -899 -360 -899 c 0,19,20
 -310 -899 -310 -899 -281.5 -866.5 c 128,-1,21
 -253 -834 -253 -834 -253 -787 c 0,22,23
 -253 -747 -253 -747 -275 -715 c 1,24,-1
 -226 -664 l 1,25,26
 -205 -694 -205 -694 -194 -726.5 c 128,-1,27
 -183 -759 -183 -759 -183 -798 c 0,28,29
 -183 -870 -183 -870 -229 -923 c 128,-1,30
 -275 -976 -275 -976 -360 -976 c 0,31,32
 -428 -976 -428 -976 -465 -952.5 c 128,-1,33
 -502 -929 -502 -929 -531 -880 c 1,34,35
 -571 -931 -571 -931 -603 -950 c 0,36,37
 -645 -975 -645 -975 -708 -975 c 0,38,39
 -766 -975 -766 -975 -805 -927 c 128,-1,40
 -844 -879 -844 -879 -844 -801 c 0,41,42
 -844 -738 -844 -738 -809 -689 c 0,43,44
 -781 -649 -781 -649 -724 -616 c 1,45,46
 -675 -594 -675 -594 -640 -555 c 1,47,48
 -598 -513 -598 -513 -598 -472 c 0,49,50
 -598 -439 -598 -439 -626.5 -420.5 c 128,-1,51
 -655 -402 -655 -402 -698 -402 c 0,52,53
 -740 -402 -740 -402 -768 -427 c 1,54,55
 -784 -443 -784 -443 -788 -466 c 1,56,-1
 -859 -466 l 1,57,58
 -855 -420 -855 -420 -829 -381 c 0,59,60
 -787 -320 -787 -320 -698 -320 c 0,61,62
 -623 -320 -623 -320 -577.5 -357.5 c 128,-1,63
 -532 -395 -532 -395 -532 -458 c 0,64,65
 -532 -483 -532 -483 -534 -491 c 1,66,-1
 -417 -491 l 1,67,-1
 -417 -316 l 1,68,-1
 -352 -316 l 1,69,-1
 -352 -491 l 1,70,-1
 -229 -491 l 1,71,-1
 -229 -569 l 1,72,-1
 -561 -571 l 1,0,1
EndSplineSet
AnchorPoint: "BLW" -330 0 mark 0
Ligature2: "'blwf' Below Base Form (sub)" u0C19 u0C4D
LCarets2: 1 0 

EndChar

StartChar: u0C1A.base
Encoding: 65551 -1 138
Width: 1304
Flags: W
LayerCount: 2
Fore
SplineSet
1290 435 m 0,0,1
 1290 351 1290 351 1272 278.5 c 128,-1,2
 1254 206 1254 206 1217 143 c 0,3,4
 1133 1 1133 1 993 1 c 0,5,6
 887 1 887 1 816 58 c 0,7,8
 766 98 766 98 727 169 c 1,9,10
 694 97 694 97 643 55 c 1,11,12
 606 26 606 26 568.5 13.5 c 128,-1,13
 531 1 531 1 464 1 c 0,14,15
 403 1 403 1 345 63 c 1,16,17
 273 144 273 144 273 278 c 0,18,19
 273 367 273 367 308 437 c 1,20,21
 334 493 334 493 387 543 c 1,22,-1
 150 608 l 1,23,-1
 173 706 l 1,24,-1
 513 611 l 1,25,-1
 513 518 l 1,26,27
 464 490 464 490 436 464 c 1,28,29
 359 387 359 387 359 278 c 0,30,31
 359 197 359 197 396 144 c 1,32,33
 428 101 428 101 464 101 c 0,34,35
 573 101 573 101 630 179 c 1,36,-1
 688 303 l 1,37,-1
 760 303 l 1,38,-1
 820 186 l 1,39,40
 881 101 881 101 994 101 c 0,41,42
 1094 101 1094 101 1152 211 c 1,43,44
 1203 310 1203 310 1203 434 c 0,45,46
 1203 585 1203 585 1115 705 c 1,47,48
 1001 857 1001 857 780 857 c 1,49,-1
 780 957 l 1,50,51
 1046 957 1046 957 1186 766 c 1,52,53
 1291 621 1291 621 1290 435 c 0,0,1
EndSplineSet
AnchorPoint: "BR" 582 188 basechar 0
AnchorPoint: "BLW" 334 0 basechar 0
AnchorPoint: "V" 322 454 basechar 0
Ligature2: "'blws' Below Base Substitutions in Telugu lookup 3 subtable" u0C1A.base u0C30.sub
MultipleSubs2: "Multiple Substitution lookup 13 subtable" u0C30.sub.alt u0C1A.base
LCarets2: 1 0 
GlyphClass: 2

EndChar

StartChar: u0C1A.sub
Encoding: 65552 -1 139
Width: 896
Flags: W
LayerCount: 2
Fore
SplineSet
800 -57 m 1,0,1
 800 -332 800 -332 723 -494 c 0,2,3
 637 -677 637 -677 468 -677 c 0,4,5
 438 -677 438 -677 409.5 -669 c 128,-1,6
 381 -661 381 -661 351 -642 c 0,7,8
 297 -609 297 -609 257 -551 c 1,9,10
 215 -616 215 -616 161 -651 c 1,11,12
 97 -691 97 -691 18 -691 c 0,13,14
 -60 -691 -60 -691 -115 -625.5 c 128,-1,15
 -170 -560 -170 -560 -185 -457 c 1,16,-1
 -186 -432 l 1,17,-1
 -187 -417 l 1,18,19
 -187 -367 -187 -367 -174 -327.5 c 128,-1,20
 -161 -288 -161 -288 -131 -244 c 1,21,-1
 -257 -222 l 1,22,-1
 -246 -122 l 1,23,-1
 -37 -162 l 1,24,-1
 -15 -247 l 1,25,26
 -54 -287 -54 -287 -75 -323 c 1,27,28
 -101 -372 -101 -372 -101 -421 c 1,29,-1
 -100 -446 l 1,30,31
 -92 -510 -92 -510 -56.5 -552.5 c 128,-1,32
 -21 -595 -21 -595 30 -595 c 0,33,34
 95 -595 95 -595 150 -539 c 0,35,36
 196 -493 196 -493 214 -432 c 1,37,-1
 295 -432 l 1,38,39
 316 -490 316 -490 359 -533 c 1,40,41
 410 -580 410 -580 467 -580 c 0,42,43
 599 -580 599 -580 662 -427 c 1,44,45
 713 -296 713 -296 713 -68 c 0,46,47
 713 255 713 255 543 521 c 0,48,49
 357 813 357 813 63 859 c 1,50,-1
 63 959 l 1,51,52
 288 934 288 934 463 769 c 0,53,54
 618 622 618 622 711 386 c 1,55,56
 797 164 797 164 800 -57 c 1,0,1
EndSplineSet
Ligature2: "'blwf' Below Base Form (sub)" u0C1A u0C4D
LCarets2: 1 0 

EndChar

StartChar: u0C1A_u0C3F
Encoding: 65553 -1 140
Width: 1261
Flags: W
LayerCount: 2
Fore
SplineSet
667 1170 m 0,0,1
 667 1226 667 1226 635 1262 c 1,2,3
 605 1301 605 1301 559 1301 c 256,4,5
 513 1301 513 1301 479 1262.5 c 128,-1,6
 445 1224 445 1224 445 1170 c 256,7,8
 445 1116 445 1116 477 1080 c 128,-1,9
 509 1044 509 1044 556 1044 c 256,10,11
 603 1044 603 1044 635 1080 c 128,-1,12
 667 1116 667 1116 667 1170 c 0,0,1
690 1453 m 1,13,14
 904 1453 904 1453 1059 1273 c 1,15,16
 1175 1136 1175 1136 1249 900 c 1,17,18
 1277 805 1277 805 1291 731 c 128,-1,19
 1305 657 1305 657 1305 593 c 0,20,21
 1305 442 1305 442 1290 354 c 0,22,23
 1265 202 1265 202 1202 114 c 1,24,25
 1121 4 1121 4 981 4 c 0,26,27
 876 4 876 4 809 57 c 1,28,29
 760 94 760 94 724 164 c 1,30,31
 694 93 694 93 640 54 c 0,32,33
 570 4 570 4 460 4 c 0,34,35
 399 4 399 4 341 62 c 1,36,37
 269 138 269 138 269 272 c 0,38,39
 269 361 269 361 304 431 c 1,40,41
 330 487 330 487 383 537 c 1,42,-1
 146 602 l 1,43,-1
 169 700 l 1,44,-1
 509 605 l 1,45,-1
 509 512 l 1,46,47
 459 483 459 483 433 457 c 0,48,49
 356 381 356 381 356 274 c 0,50,51
 356 192 356 192 393 143 c 0,52,53
 422 106 422 106 461 106 c 0,54,55
 570 106 570 106 627 180 c 0,56,57
 635 191 635 191 685 300 c 1,58,-1
 757 300 l 1,59,-1
 813 187 l 1,60,61
 870 106 870 106 982 106 c 0,62,63
 1127 106 1127 106 1185 292 c 1,64,65
 1218 404 1218 404 1218 595 c 0,66,67
 1218 708 1218 708 1172 863 c 0,68,69
 1111 1068 1111 1068 1006 1192 c 0,70,71
 871 1353 871 1353 681 1353 c 1,72,73
 707 1337 707 1337 731.5 1286 c 128,-1,74
 756 1235 756 1235 756 1188 c 0,75,76
 756 1090 756 1090 699 1019 c 128,-1,77
 642 948 642 948 550 948 c 0,78,79
 471 948 471 948 412.5 1021.5 c 128,-1,80
 354 1095 354 1095 354 1188 c 0,81,82
 354 1315 354 1315 447 1385.5 c 128,-1,83
 540 1456 540 1456 690 1453 c 1,13,14
EndSplineSet
AnchorPoint: "BLW" 330 0 basechar 0
AnchorPoint: "BR" 580 188 basechar 0
Ligature2: "'psts' Post Base Sub 0C3F short i" u0C1A.base u0C3F
LCarets2: 1 0 
GlyphClass: 2

EndChar

StartChar: u0C1C
Encoding: 3100 3100 145
Width: 1362
Flags: W
LayerCount: 2
Fore
SplineSet
634 749 m 1,0,-1
 708 668 l 1,1,2
 762 622 762 622 830 622 c 0,3,4
 912 622 912 622 958 655 c 1,5,6
 1001 690 1001 690 1001 741 c 0,7,8
 1001 788 1001 788 963.5 823 c 128,-1,9
 926 858 926 858 856 858 c 0,10,11
 826 858 826 858 784 850 c 1,12,-1
 768 948 l 1,13,-1
 814 955 l 1,14,-1
 856 957 l 1,15,16
 969 957 969 957 1034 886 c 1,17,18
 1087 826 1087 826 1087 741 c 0,19,20
 1087 655 1087 655 1030 597 c 1,21,22
 963 526 963 526 830 526 c 0,23,24
 765 526 765 526 704 563 c 0,25,26
 685 574 685 574 663.5 592 c 128,-1,27
 642 610 642 610 617 636 c 1,28,29
 596 586 596 586 549.5 543.5 c 128,-1,30
 503 501 503 501 429 465 c 1,31,32
 298 393 298 393 298 253 c 0,33,34
 298 188 298 188 332 145.5 c 128,-1,35
 366 103 366 103 417 103 c 0,36,37
 508 103 508 103 573 158 c 0,38,39
 629 205 629 205 654 287 c 1,40,-1
 733 287 l 1,41,42
 761 192 761 192 790 162 c 1,43,44
 841 102 841 102 953 102 c 0,45,46
 1032 102 1032 102 1079.5 153.5 c 128,-1,47
 1127 205 1127 205 1127 279 c 0,48,49
 1127 318 1127 318 1116 346 c 1,50,51
 1108 374 1108 374 1082 407 c 1,52,-1
 1145 472 l 1,53,54
 1177 432 1177 432 1197 377.5 c 128,-1,55
 1217 323 1217 323 1217 273 c 0,56,57
 1217 163 1217 163 1147 85 c 0,58,59
 1072 1 1072 1 953 1 c 0,60,61
 844 1 844 1 774 47 c 0,62,63
 724 80 724 80 688 155 c 1,64,65
 644 84 644 84 581 45 c 0,66,67
 509 1 509 1 417 1 c 0,68,69
 335 1 335 1 273.5 73 c 128,-1,70
 212 145 212 145 212 252 c 0,71,72
 212 354 212 354 256.5 429.5 c 128,-1,73
 301 505 301 505 394 555 c 1,74,75
 471 592 471 592 504 627 c 0,76,77
 547 673 547 673 547 737 c 0,78,79
 547 794 547 794 503 825.5 c 128,-1,80
 459 857 459 857 387 857 c 0,81,82
 298 857 298 857 255 793 c 1,83,84
 246 777 246 777 232 730 c 1,85,-1
 146 738 l 1,86,87
 158 813 158 813 177 848 c 0,88,89
 238 958 238 958 387 958 c 0,90,91
 496 958 496 958 565 901 c 128,-1,92
 634 844 634 844 634 749 c 1,0,-1
EndSplineSet
AnchorPoint: "BR" 498 188 basechar 0
AnchorPoint: "BLW" 270 0 basechar 0
MultipleSubs2: "Multiple Substitution lookup 13 subtable" u0C30.sub.alt u0C1C

EndChar

StartChar: u0C1C.sub
Encoding: 65557 -1 146
Width: 28
Flags: W
LayerCount: 2
Fore
SplineSet
-218 -665 m 1,0,1
 -197 -695 -197 -695 -186 -727.5 c 128,-1,2
 -175 -760 -175 -760 -175 -799 c 0,3,4
 -175 -871 -175 -871 -221 -924 c 128,-1,5
 -267 -977 -267 -977 -352 -977 c 0,6,7
 -416 -977 -416 -977 -455 -954 c 128,-1,8
 -494 -931 -494 -931 -523 -881 c 1,9,10
 -563 -932 -563 -932 -595 -951 c 0,11,12
 -637 -976 -637 -976 -700 -976 c 0,13,14
 -758 -976 -758 -976 -797 -928 c 128,-1,15
 -836 -880 -836 -880 -836 -802 c 0,16,17
 -836 -739 -836 -739 -801 -690 c 0,18,19
 -773 -650 -773 -650 -716 -617 c 1,20,21
 -667 -595 -667 -595 -632 -556 c 1,22,23
 -590 -514 -590 -514 -590 -473 c 0,24,25
 -590 -440 -590 -440 -618.5 -421.5 c 128,-1,26
 -647 -403 -647 -403 -690 -403 c 0,27,28
 -732 -403 -732 -403 -760 -428 c 1,29,30
 -776 -444 -776 -444 -780 -467 c 1,31,-1
 -851 -467 l 1,32,33
 -847 -421 -847 -421 -821 -382 c 0,34,35
 -779 -321 -779 -321 -690 -321 c 0,36,37
 -620 -321 -620 -321 -574 -358 c 1,38,39
 -532 -395 -532 -395 -524 -458 c 1,40,-1
 -478 -504 l 1,41,42
 -445 -529 -445 -529 -402 -529 c 0,43,44
 -349 -529 -349 -529 -321 -509 c 128,-1,45
 -293 -489 -293 -489 -293 -459 c 0,46,47
 -293 -396 -293 -396 -374 -396 c 2,48,-1
 -400 -396 l 1,49,-1
 -421 -401 l 1,50,-1
 -435 -323 l 1,51,-1
 -379 -318 l 1,52,53
 -302 -318 -302 -318 -262 -362 c 1,54,55
 -228 -401 -228 -401 -228 -458 c 256,56,57
 -228 -515 -228 -515 -267 -555 c 1,58,59
 -313 -605 -313 -605 -402 -605 c 0,60,61
 -420 -605 -420 -605 -436.5 -603 c 128,-1,62
 -453 -601 -453 -601 -479.5 -588.5 c 128,-1,63
 -506 -576 -506 -576 -543 -546 c 1,64,65
 -568 -592 -568 -592 -608 -632 c 0,66,67
 -638 -661 -638 -661 -688 -689 c 0,68,69
 -720 -707 -720 -707 -745 -736 c 1,70,71
 -767 -766 -767 -766 -767 -801 c 0,72,73
 -767 -843 -767 -843 -747.5 -870.5 c 128,-1,74
 -728 -898 -728 -898 -696 -898 c 0,75,76
 -642 -898 -642 -898 -602 -864 c 0,77,78
 -569 -835 -569 -835 -551 -788 c 1,79,-1
 -483 -788 l 1,80,81
 -467 -844 -467 -844 -448 -863 c 1,82,83
 -416 -899 -416 -899 -351 -899 c 0,84,85
 -302 -899 -302 -899 -272 -865 c 128,-1,86
 -242 -831 -242 -831 -242 -785 c 0,87,88
 -242 -746 -242 -746 -264 -714 c 1,89,-1
 -218 -665 l 1,0,1
EndSplineSet
AnchorPoint: "BLW" -362 0 mark 0
Ligature2: "'blwf' Below Base Form (sub)" u0C1C u0C4D
LCarets2: 1 0 

EndChar

StartChar: u0C1C_u0C3F
Encoding: 65558 -1 147
Width: 1362
Flags: W
LayerCount: 2
Fore
SplineSet
902 1157 m 0,0,1
 902 1211 902 1211 870 1247 c 128,-1,2
 838 1283 838 1283 791 1283 c 256,3,4
 744 1283 744 1283 712 1247 c 128,-1,5
 680 1211 680 1211 680 1157 c 256,6,7
 680 1103 680 1103 711.5 1067.5 c 128,-1,8
 743 1032 743 1032 792 1032 c 0,9,10
 838 1032 838 1032 870.5 1067 c 128,-1,11
 903 1102 903 1102 902 1157 c 0,0,1
635 766 m 1,12,13
 671 722 671 722 745 689 c 0,14,15
 777 675 777 675 807 668 c 128,-1,16
 837 661 837 661 872 661 c 0,17,18
 967 661 967 661 1021 750 c 1,19,20
 1068 832 1068 832 1068 960 c 0,21,22
 1068 1111 1068 1111 982 1206 c 1,23,24
 982 1190 982 1190 984 1181 c 1,25,-1
 986 1153 l 1,26,27
 986 1063 986 1063 931.5 999 c 128,-1,28
 877 935 877 935 789 935 c 0,29,30
 707 935 707 935 649 999 c 1,31,32
 593 1066 593 1066 593 1159 c 0,33,34
 593 1255 593 1255 652.5 1320 c 128,-1,35
 712 1385 712 1385 804 1385 c 0,36,37
 959 1385 959 1385 1059 1254 c 0,38,39
 1152 1131 1152 1131 1152 962 c 0,40,41
 1152 789 1152 789 1082 680 c 0,42,43
 1005 561 1005 561 870 561 c 0,44,45
 793 561 793 561 722 591 c 0,46,47
 669 613 669 613 620 652 c 1,48,49
 599 594 599 594 549.5 540.5 c 128,-1,50
 500 487 500 487 429.5 451.5 c 128,-1,51
 359 416 359 416 327 371.5 c 128,-1,52
 295 327 295 327 295 259 c 0,53,54
 295 192 295 192 330 149 c 128,-1,55
 365 106 365 106 415 106 c 0,56,57
 506 106 506 106 571 163 c 0,58,59
 625 210 625 210 651 293 c 1,60,-1
 730 293 l 1,61,62
 759 200 759 200 787 167 c 0,63,64
 840 106 840 106 950 106 c 0,65,66
 1029 106 1029 106 1076.5 159 c 128,-1,67
 1124 212 1124 212 1124 284 c 0,68,69
 1124 309 1124 309 1123 320.5 c 128,-1,70
 1122 332 1122 332 1114 351 c 1,71,72
 1106 379 1106 379 1080 412 c 1,73,-1
 1143 477 l 1,74,75
 1175 437 1175 437 1195 382.5 c 128,-1,76
 1215 328 1215 328 1215 277 c 0,77,78
 1215 165 1215 165 1145 87 c 0,79,80
 1071 3 1071 3 951 3 c 0,81,82
 841 3 841 3 773 50 c 0,83,84
 724 85 724 85 687 160 c 1,85,86
 641 90 641 90 575 46 c 128,-1,87
 509 2 509 2 416 2 c 0,88,89
 334 2 334 2 271 74 c 1,90,91
 242 110 242 110 227 154 c 128,-1,92
 212 198 212 198 212 255 c 0,93,94
 212 446 212 446 395 541 c 0,95,96
 467 578 467 578 504 620 c 1,97,98
 547 671 547 671 547 736 c 0,99,100
 547 793 547 793 503 824.5 c 128,-1,101
 459 856 459 856 387 856 c 0,102,103
 298 856 298 856 255 792 c 1,104,105
 246 776 246 776 232 729 c 1,106,-1
 146 737 l 1,107,108
 158 812 158 812 177 847 c 0,109,110
 238 957 238 957 387 957 c 0,111,112
 496 957 496 957 558 904 c 1,113,114
 623 854 623 854 635 766 c 1,12,13
EndSplineSet
AnchorPoint: "BR" 502 188 basechar 0
AnchorPoint: "BLW" 270 0 basechar 0
Ligature2: "'psts' Post Base Sub 0C3F short i" u0C1C u0C3F
LCarets2: 1 0 
GlyphClass: 2

EndChar

StartChar: u0C1D.sub
Encoding: 65560 -1 150
Width: 301
Flags: W
LayerCount: 2
Fore
SplineSet
270 -653 m 0,0,1
 270 -762 270 -762 220 -853 c 1,2,3
 157 -962 157 -962 47 -962 c 0,4,5
 -13 -962 -13 -962 -61 -933 c 0,6,7
 -97 -912 -97 -912 -131 -865 c 1,8,9
 -160 -912 -160 -912 -198.5 -937 c 128,-1,10
 -237 -962 -237 -962 -291 -962 c 0,11,12
 -348 -962 -348 -962 -391 -934 c 0,13,14
 -423 -913 -423 -913 -459 -869 c 1,15,16
 -498 -913 -498 -913 -547.5 -940 c 128,-1,17
 -597 -967 -597 -967 -650 -967 c 0,18,19
 -753 -967 -753 -967 -830 -879 c 128,-1,20
 -907 -791 -907 -791 -907 -667 c 0,21,22
 -907 -541 -907 -541 -832.5 -453.5 c 128,-1,23
 -758 -366 -758 -366 -651 -366 c 0,24,25
 -548 -366 -548 -366 -469 -454 c 1,26,27
 -432 -498 -432 -498 -412.5 -550.5 c 128,-1,28
 -393 -603 -393 -603 -393 -666 c 0,29,30
 -393 -705 -393 -705 -400.5 -736.5 c 128,-1,31
 -408 -768 -408 -768 -423 -794 c 1,32,33
 -401 -827 -401 -827 -378 -850 c 1,34,35
 -339 -882 -339 -882 -293 -882 c 0,36,37
 -214 -882 -214 -882 -170 -796 c 0,38,39
 -137 -731 -137 -731 -137 -654 c 0,40,41
 -137 -579 -137 -579 -181 -500 c 1,42,43
 -235 -398 -235 -398 -324 -390 c 1,44,-1
 -324 -312 l 1,45,46
 -207 -312 -207 -312 -132 -446 c 0,47,48
 -71 -556 -71 -556 -71 -655 c 1,49,-1
 -75 -718 l 2,50,51
 -77 -739 -77 -739 -79.5 -750 c 128,-1,52
 -82 -761 -82 -761 -93 -786 c 1,53,54
 -81 -819 -81 -819 -56 -844 c 1,55,56
 -14 -883 -14 -883 47 -883 c 0,57,58
 125 -883 125 -883 168 -801 c 1,59,60
 203 -731 203 -731 203 -652 c 0,61,62
 203 -561 203 -561 167 -493 c 0,63,64
 117 -398 117 -398 18 -398 c 1,65,-1
 18 -317 l 1,66,67
 152 -317 152 -317 219 -438 c 1,68,69
 270 -533 270 -533 270 -653 c 0,0,1
-88 -1205 m 1,70,-1
 -174 -1205 l 1,71,-1
 -145 -981 l 1,72,-1
 -117 -981 l 1,73,-1
 -88 -1205 l 1,70,-1
-461 -666 m 0,74,75
 -461 -573 -461 -573 -516 -509.5 c 128,-1,76
 -571 -446 -571 -446 -655 -446 c 0,77,78
 -734 -446 -734 -446 -790 -508.5 c 128,-1,79
 -846 -571 -846 -571 -846 -666 c 0,80,81
 -846 -758 -846 -758 -790 -822 c 128,-1,82
 -734 -886 -734 -886 -655 -886 c 0,83,84
 -573 -886 -573 -886 -517 -822 c 0,85,86
 -489 -790 -489 -790 -475 -752.5 c 128,-1,87
 -461 -715 -461 -715 -461 -666 c 0,74,75
EndSplineSet
AnchorPoint: "BLW" -400 0 mark 0
Ligature2: "'blwf' Below Base Form (sub)" u0C1D u0C4D
LCarets2: 1 0 

EndChar

StartChar: u0C1E
Encoding: 3102 3102 151
Width: 1628
Flags: W
LayerCount: 2
Fore
SplineSet
902 301 m 1,0,1
 840 385 840 385 728 428 c 0,2,3
 636 464 636 464 543 464 c 0,4,5
 431 464 431 464 353 404 c 0,6,7
 281 348 281 348 281 278 c 0,8,9
 281 197 281 197 348.5 149 c 128,-1,10
 416 101 416 101 532 101 c 0,11,12
 649 101 649 101 752 159 c 0,13,14
 841 210 841 210 902 301 c 1,0,1
1083 583 m 1,15,-1
 1085 546 l 1,16,17
 1085 517 1085 517 1080.5 494 c 128,-1,18
 1076 471 1076 471 1062 428 c 1,19,20
 1054 395 1054 395 1041.5 365 c 128,-1,21
 1029 335 1029 335 1010 302 c 1,22,23
 1037 253 1037 253 1055.5 183.5 c 128,-1,24
 1074 114 1074 114 1074 43 c 0,25,26
 1074 -77 1074 -77 1021 -146 c 1,27,28
 975 -209 975 -209 903 -209 c 1,29,-1
 890 -112 l 1,30,31
 926 -112 926 -112 959 -70 c 1,32,33
 989 -28 989 -28 989 43 c 0,34,35
 989 139 989 139 954 217 c 1,36,37
 879 121 879 121 781 67 c 0,38,39
 665 3 665 3 531 3 c 0,40,41
 375 3 375 3 284.5 82 c 128,-1,42
 194 161 194 161 194 281 c 0,43,44
 194 380 194 380 289 466 c 0,45,46
 394 562 394 562 543 562 c 0,47,48
 648 562 648 562 750 522 c 1,49,50
 871 476 871 476 952 383 c 1,51,52
 1001 496 1001 496 1001 572 c 0,53,54
 1001 698 1001 698 941 779 c 128,-1,55
 881 860 881 860 797 860 c 0,56,57
 726 860 726 860 680 813 c 1,58,59
 641 771 641 771 630 713 c 1,60,-1
 544 718 l 1,61,62
 544 774 544 774 495 817 c 128,-1,63
 446 860 446 860 367 860 c 0,64,65
 307 860 307 860 270 830 c 128,-1,66
 233 800 233 800 233 750 c 0,67,68
 233 727 233 727 237 705 c 128,-1,69
 241 683 241 683 252 657 c 1,70,71
 254 645 254 645 272 617 c 1,72,-1
 202 557 l 1,73,-1
 174 617 l 1,74,75
 145 692 145 692 145 752 c 0,76,77
 145 837 145 837 207.5 900 c 128,-1,78
 270 963 270 963 365 963 c 0,79,80
 442 963 442 963 496.5 931.5 c 128,-1,81
 551 900 551 900 588 846 c 1,82,83
 620 896 620 896 669 928 c 1,84,85
 726 963 726 963 796 963 c 0,86,87
 888 963 888 963 966 887.5 c 128,-1,88
 1044 812 1044 812 1073 688 c 1,89,-1
 1193 688 l 1,90,-1
 1193 923 l 1,91,-1
 1278 923 l 1,92,-1
 1278 688 l 1,93,-1
 1510 688 l 1,94,-1
 1510 589 l 1,95,-1
 1083 583 l 1,15,-1
EndSplineSet
AnchorPoint: "BLW" 232 0 basechar 0
AnchorPoint: "V" 622 447 basechar 0
MultipleSubs2: "Multiple Substitution lookup 13 subtable" u0C30.sub.alt u0C1E

EndChar

StartChar: u0C1E.sub
Encoding: 65561 -1 152
Width: 28
Flags: W
LayerCount: 2
Fore
SplineSet
-229 -621 m 1,0,-1
 -486 -621 l 1,1,2
 -494 -703 -494 -703 -548 -789 c 1,3,4
 -509 -867 -509 -867 -509 -958 c 0,5,6
 -509 -1040 -509 -1040 -556 -1086 c 0,7,8
 -593 -1123 -593 -1123 -651 -1123 c 0,9,10
 -680 -1123 -680 -1123 -701 -1112 c 1,11,-1
 -669 -1044 l 1,12,-1
 -651 -1046 l 1,13,14
 -621 -1046 -621 -1046 -598 -1023 c 1,15,16
 -575 -1002 -575 -1002 -575 -958 c 1,17,-1
 -579 -908 l 1,18,-1
 -591 -855 l 1,19,20
 -655 -919 -655 -919 -726 -956 c 128,-1,21
 -797 -993 -797 -993 -882 -993 c 0,22,23
 -991 -993 -991 -993 -1052.5 -938 c 128,-1,24
 -1114 -883 -1114 -883 -1114 -798 c 0,25,26
 -1114 -733 -1114 -733 -1051 -670 c 1,27,28
 -979 -602 -979 -602 -874 -602 c 0,29,30
 -803 -602 -803 -602 -728.5 -631 c 128,-1,31
 -654 -660 -654 -660 -589 -730 c 1,32,33
 -549 -641 -549 -641 -549 -599 c 0,34,35
 -549 -514 -549 -514 -598 -450.5 c 128,-1,36
 -647 -387 -647 -387 -704 -387 c 0,37,38
 -747 -387 -747 -387 -773.5 -412 c 128,-1,39
 -800 -437 -800 -437 -809 -473 c 1,40,-1
 -877 -473 l 1,41,42
 -881 -444 -881 -444 -915 -415.5 c 128,-1,43
 -949 -387 -949 -387 -993 -387 c 0,44,45
 -1081 -387 -1081 -387 -1081 -451 c 1,46,-1
 -1077 -486 l 1,47,-1
 -1068 -516 l 1,48,-1
 -1122 -560 l 1,49,50
 -1131 -542 -1131 -542 -1138.5 -512 c 128,-1,51
 -1146 -482 -1146 -482 -1146 -450 c 0,52,53
 -1146 -392 -1146 -392 -1103.5 -351 c 128,-1,54
 -1061 -310 -1061 -310 -993 -310 c 0,55,56
 -905 -310 -905 -310 -841 -384 c 1,57,58
 -791 -310 -791 -310 -702 -310 c 0,59,60
 -630 -310 -630 -310 -568.5 -375.5 c 128,-1,61
 -507 -441 -507 -441 -485 -544 c 1,62,-1
 -417 -544 l 1,63,-1
 -417 -370 l 1,64,-1
 -352 -370 l 1,65,-1
 -352 -544 l 1,66,-1
 -229 -544 l 1,67,-1
 -229 -621 l 1,0,-1
-630 -790 m 1,68,69
 -679 -733 -679 -733 -746 -707.5 c 128,-1,70
 -813 -682 -813 -682 -876 -682 c 0,71,72
 -951 -682 -951 -682 -1000.5 -717.5 c 128,-1,73
 -1050 -753 -1050 -753 -1050 -799 c 0,74,75
 -1050 -852 -1050 -852 -1004.5 -882.5 c 128,-1,76
 -959 -913 -959 -913 -884 -913 c 0,77,78
 -807 -913 -807 -913 -742 -878 c 0,79,80
 -691 -850 -691 -850 -630 -790 c 1,68,69
EndSplineSet
AnchorPoint: "BLW" -446 0 mark 0
Ligature2: "'blwf' Below Base Form (sub)" u0C1E u0C4D
LCarets2: 1 0 

EndChar

StartChar: u0C1F
Encoding: 3103 3103 153
Width: 1491
Flags: W
LayerCount: 2
Fore
SplineSet
637 725 m 1,0,1
 633 769 633 769 600 801 c 1,2,3
 567 830 567 830 519 830 c 0,4,5
 469 830 469 830 435.5 796.5 c 128,-1,6
 402 763 402 763 402 713 c 0,7,8
 402 667 402 667 436.5 631.5 c 128,-1,9
 471 596 471 596 518 596 c 0,10,11
 566 596 566 596 601.5 634.5 c 128,-1,12
 637 673 637 673 637 725 c 1,0,1
471 926 m 1,13,-1
 471 1126 l 1,14,-1
 571 1126 l 1,15,-1
 571 926 l 1,16,17
 639 908 639 908 685.5 855.5 c 128,-1,18
 732 803 732 803 732 731 c 0,19,20
 732 635 732 635 670.5 566 c 128,-1,21
 609 497 609 497 516 497 c 0,22,23
 428 497 428 497 363 558.5 c 128,-1,24
 298 620 298 620 298 706 c 1,25,26
 275 670 275 670 259 607 c 1,27,28
 254 582 254 582 250 545 c 128,-1,29
 246 508 246 508 246 472 c 0,30,31
 246 328 246 328 313 215.5 c 128,-1,32
 380 103 380 103 477 103 c 0,33,34
 565 103 565 103 632 179 c 0,35,36
 681 236 681 236 717 339 c 1,37,-1
 815 339 l 1,38,39
 843 243 843 243 894 180 c 1,40,41
 959 102 959 102 1051 102 c 0,42,43
 1171 102 1171 102 1217 222 c 1,44,45
 1245 299 1245 299 1245 447 c 0,46,47
 1245 584 1245 584 1192 686 c 0,48,49
 1125 816 1125 816 991 845 c 1,50,-1
 1013 943 l 1,51,52
 1185 908 1185 908 1273 754 c 0,53,54
 1309 690 1309 690 1327 615.5 c 128,-1,55
 1345 541 1345 541 1345 448 c 0,56,57
 1345 255 1345 255 1301 157 c 0,58,59
 1231 2 1231 2 1051 2 c 0,60,61
 955 2 955 2 877.5 52 c 128,-1,62
 800 102 800 102 763 181 c 1,63,64
 721 102 721 102 645.5 52 c 128,-1,65
 570 2 570 2 477 2 c 0,66,67
 339 2 339 2 242 141 c 128,-1,68
 145 280 145 280 145 471 c 0,69,70
 145 693 145 693 255 813 c 0,71,72
 339 905 339 905 471 926 c 1,13,-1
EndSplineSet
AnchorPoint: "BLW" 316 0 basechar 0
AnchorPoint: "BR" 594 188 basechar 0
Ligature2: "'blws' Below Base Substitutions in Telugu lookup 3 subtable" u0C1F u0C30.sub
AlternateSubs2: "Alternate Substitution lookup 14 subtable" u0C1F.base
MultipleSubs2: "Multiple Substitution lookup 13 subtable" u0C30.sub.alt u0C1F

EndChar

StartChar: u0C1F.base
Encoding: 65562 -1 154
Width: 1491
Flags: W
LayerCount: 2
Fore
SplineSet
637 725 m 1,0,1
 633 769 633 769 600 801 c 1,2,3
 567 830 567 830 519 830 c 0,4,5
 469 830 469 830 435.5 796.5 c 128,-1,6
 402 763 402 763 402 713 c 0,7,8
 402 667 402 667 436.5 631.5 c 128,-1,9
 471 596 471 596 518 596 c 0,10,11
 566 596 566 596 601.5 634.5 c 128,-1,12
 637 673 637 673 637 725 c 1,0,1
471 926 m 1,13,-1
 471 1126 l 1,14,-1
 571 1126 l 1,15,-1
 571 926 l 1,16,17
 639 908 639 908 685.5 855.5 c 128,-1,18
 732 803 732 803 732 731 c 0,19,20
 732 635 732 635 670.5 566 c 128,-1,21
 609 497 609 497 516 497 c 0,22,23
 428 497 428 497 363 558.5 c 128,-1,24
 298 620 298 620 298 706 c 1,25,26
 275 670 275 670 259 607 c 1,27,28
 254 582 254 582 250 545 c 128,-1,29
 246 508 246 508 246 472 c 0,30,31
 246 328 246 328 313 215.5 c 128,-1,32
 380 103 380 103 477 103 c 0,33,34
 565 103 565 103 632 179 c 0,35,36
 681 236 681 236 717 339 c 1,37,-1
 815 339 l 1,38,39
 843 243 843 243 894 180 c 1,40,41
 959 102 959 102 1051 102 c 0,42,43
 1171 102 1171 102 1217 237 c 1,44,45
 1245 323 1245 323 1245 475 c 0,46,47
 1245 629 1245 629 1192 725 c 0,48,49
 1129 838 1129 838 991 867 c 1,50,-1
 1013 963 l 1,51,52
 1189 928 1189 928 1273 787 c 0,53,54
 1345 666 1345 666 1345 475 c 0,55,56
 1345 347 1345 347 1330 272 c 0,57,58
 1308 154 1308 154 1250 86 c 0,59,60
 1179 2 1179 2 1052 2 c 0,61,62
 956 2 956 2 878.5 52 c 128,-1,63
 801 102 801 102 764 181 c 1,64,65
 722 102 722 102 646.5 52 c 128,-1,66
 571 2 571 2 478 2 c 0,67,68
 340 2 340 2 243 141 c 128,-1,69
 146 280 146 280 146 471 c 0,70,71
 146 693 146 693 256 813 c 0,72,73
 340 905 340 905 471 926 c 1,13,-1
EndSplineSet
AnchorPoint: "BR" 595 188 basechar 0
AnchorPoint: "BLW" 316 0 basechar 0
AnchorPoint: "V" 424 458 basechar 0
Ligature2: "'blws' Below Base Substitutions in Telugu lookup 3 subtable" u0C1F.base u0C30.sub
MultipleSubs2: "Multiple Substitution lookup 13 subtable" u0C30.sub.alt u0C1F.base
LCarets2: 1 0 
GlyphClass: 2

EndChar

StartChar: u0C1F.sub
Encoding: 65563 -1 155
Width: 28
Flags: W
LayerCount: 2
Fore
SplineSet
-229 -688 m 1,0,1
 -229 -802 -229 -802 -276 -880 c 1,2,3
 -334 -980 -334 -980 -444 -980 c 0,4,5
 -557 -980 -557 -980 -615 -860 c 1,6,7
 -654 -918 -654 -918 -689 -946 c 0,8,9
 -731 -979 -731 -979 -789 -979 c 0,10,11
 -882 -979 -882 -979 -943 -900 c 1,12,13
 -1008 -811 -1008 -811 -1008 -657 c 0,14,15
 -1008 -513 -1008 -513 -920 -414 c 1,16,17
 -843 -329 -843 -329 -759 -329 c 0,18,19
 -705 -329 -705 -329 -661 -373 c 1,20,21
 -619 -419 -619 -419 -619 -487 c 0,22,23
 -619 -550 -619 -550 -661 -601.5 c 128,-1,24
 -703 -653 -703 -653 -760 -653 c 0,25,26
 -810 -653 -810 -653 -846 -613 c 1,27,28
 -883 -576 -883 -576 -895 -505 c 1,29,30
 -918 -541 -918 -541 -930 -578 c 1,31,32
 -934 -596 -934 -596 -936.5 -614 c 128,-1,33
 -939 -632 -939 -632 -939 -655 c 0,34,35
 -939 -768 -939 -768 -895 -833 c 128,-1,36
 -851 -898 -851 -898 -784 -898 c 0,37,38
 -730 -898 -730 -898 -693 -851 c 1,39,40
 -668 -821 -668 -821 -649 -763 c 1,41,-1
 -581 -763 l 1,42,43
 -560 -826 -560 -826 -526.5 -863 c 128,-1,44
 -493 -900 -493 -900 -440 -900 c 0,45,46
 -365 -900 -365 -900 -323 -828 c 0,47,48
 -290 -770 -290 -770 -290 -688 c 0,49,50
 -290 -595 -290 -595 -346 -514.5 c 128,-1,51
 -402 -434 -402 -434 -473 -416 c 1,52,-1
 -462 -334 l 1,53,54
 -373 -359 -373 -359 -299 -464.5 c 128,-1,55
 -225 -570 -225 -570 -229 -688 c 1,0,1
-686 -491 m 0,56,57
 -686 -459 -686 -459 -707 -434 c 1,58,59
 -729 -412 -729 -412 -759 -412 c 0,60,61
 -788 -412 -788 -412 -809 -433.5 c 128,-1,62
 -830 -455 -830 -455 -830 -491 c 256,63,64
 -830 -527 -830 -527 -810.5 -552 c 128,-1,65
 -791 -577 -791 -577 -759 -577 c 0,66,67
 -730 -577 -730 -577 -707 -552 c 1,68,69
 -686 -527 -686 -527 -686 -491 c 0,56,57
EndSplineSet
AnchorPoint: "BLW" -378 0 mark 0
Ligature2: "'blwf' Below Base Form (sub)" u0C1F u0C4D
LCarets2: 1 0 

EndChar

